{
date = "2013-03-12 14:15:50 +0200";
familyName = "Open Sans Hebrew Condensed";
fontMaster = (
{
alignmentZones = (
"{3209, 16}",
"{1462, 24}",
"{1290, 20}",
"{1118, 18}",
"{0, -31}",
"{-1008, -16}"
);
ascender = 3209;
capHeight = 1462;
customParameters = (
{
name = TypoAscender;
value = 3209;
},
{
name = TypoDescender;
value = "-1008";
}
);
descender = "-1008";
id = "72C2BD91-63AC-4E79-A4ED-224E2850FB61";
weight = Bold;
weightValue = 700;
width = Condensed;
widthValue = 3;
xHeight = 1118;
}
);
glyphs = (
{
glyphname = A;
lastChange = "2013-03-07 05:35:11 +0200";
layers = (
{
layerId = "72C2BD91-63AC-4E79-A4ED-224E2850FB61";
name = "Bold Condensed";
paths = (
{
closed = 1;
nodes = (
"362 1468 LINE",
"0 0 LINE",
"272 0 LINE",
"356 369 LINE",
"737 369 LINE",
"821 0 LINE",
"1094 0 LINE",
"731 1468 LINE"
);
},
{
closed = 1;
nodes = (
"550 1244 OFFCURVE",
"560 1188 OFFCURVE",
"576 1105 CURVE SMOOTH",
"593 1022 OFFCURVE",
"603 970.999 OFFCURVE",
"608 950 CURVE SMOOTH",
"686 610 LINE",
"410 610 LINE",
"466 856 OFFCURVE",
"501 1013 OFFCURVE",
"514 1082 CURVE SMOOTH",
"527 1151 OFFCURVE",
"538 1215 OFFCURVE",
"547 1272 CURVE"
);
}
);
width = 1094;
}
);
unicode = 0041;
},
{
glyphname = Aacute;
lastChange = "2013-03-07 05:35:11 +0200";
layers = (
{
layerId = "72C2BD91-63AC-4E79-A4ED-224E2850FB61";
name = "Bold Condensed";
paths = (
{
closed = 1;
nodes = (
"362 1468 LINE",
"0 0 LINE",
"272 0 LINE",
"356 369 LINE",
"737 369 LINE",
"821 0 LINE",
"1094 0 LINE",
"731 1468 LINE"
);
},
{
closed = 1;
nodes = (
"550 1244 OFFCURVE",
"560 1188 OFFCURVE",
"576 1105 CURVE SMOOTH",
"593 1022 OFFCURVE",
"603 970.999 OFFCURVE",
"608 950 CURVE SMOOTH",
"686 610 LINE",
"410 610 LINE",
"466 856 OFFCURVE",
"501 1013 OFFCURVE",
"514 1082 CURVE SMOOTH",
"527 1151 OFFCURVE",
"538 1215 OFFCURVE",
"547 1272 CURVE"
);
},
{
closed = 1;
nodes = (
"577 1907 LINE",
"562 1872 OFFCURVE",
"536 1822 OFFCURVE",
"500 1757 CURVE SMOOTH",
"464 1692 OFFCURVE",
"432 1641 OFFCURVE",
"405 1606 CURVE",
"405 1579 LINE",
"592 1579 LINE",
"651 1628 OFFCURVE",
"713 1684 OFFCURVE",
"776 1747 CURVE SMOOTH",
"839 1811 OFFCURVE",
"879 1857 OFFCURVE",
"895 1886 CURVE",
"895 1907 LINE"
);
}
);
width = 1094;
}
);
unicode = 00C1;
},
{
glyphname = Acircumflex;
lastChange = "2013-03-07 05:35:11 +0200";
layers = (
{
layerId = "72C2BD91-63AC-4E79-A4ED-224E2850FB61";
name = "Bold Condensed";
paths = (
{
closed = 1;
nodes = (
"362 1468 LINE",
"0 0 LINE",
"272 0 LINE",
"356 369 LINE",
"737 369 LINE",
"821 0 LINE",
"1094 0 LINE",
"731 1468 LINE"
);
},
{
closed = 1;
nodes = (
"550 1244 OFFCURVE",
"560 1188 OFFCURVE",
"576 1105 CURVE SMOOTH",
"593 1022 OFFCURVE",
"603 970.999 OFFCURVE",
"608 950 CURVE SMOOTH",
"686 610 LINE",
"410 610 LINE",
"466 856 OFFCURVE",
"501 1013 OFFCURVE",
"514 1082 CURVE SMOOTH",
"527 1151 OFFCURVE",
"538 1215 OFFCURVE",
"547 1272 CURVE"
);
},
{
closed = 1;
nodes = (
"409 1907 LINE",
"382 1855 OFFCURVE",
"310 1755 OFFCURVE",
"192 1606 CURVE",
"192 1579 LINE",
"360 1579 LINE",
"425 1631 OFFCURVE",
"487 1690 OFFCURVE",
"546 1757 CURVE",
"608 1686 OFFCURVE",
"671 1627 OFFCURVE",
"735 1579 CURVE",
"903 1579 LINE",
"903 1606 LINE",
"790 1749 OFFCURVE",
"717 1849 OFFCURVE",
"686 1907 CURVE"
);
}
);
width = 1094;
}
);
unicode = 00C2;
},
{
glyphname = Adieresis;
lastChange = "2013-03-07 05:35:11 +0200";
layers = (
{
layerId = "72C2BD91-63AC-4E79-A4ED-224E2850FB61";
name = "Bold Condensed";
paths = (
{
closed = 1;
nodes = (
"362 1468 LINE",
"0 0 LINE",
"272 0 LINE",
"356 369 LINE",
"737 369 LINE",
"821 0 LINE",
"1094 0 LINE",
"731 1468 LINE"
);
},
{
closed = 1;
nodes = (
"550 1244 OFFCURVE",
"560 1188 OFFCURVE",
"576 1105 CURVE SMOOTH",
"593 1022 OFFCURVE",
"603 970.999 OFFCURVE",
"608 950 CURVE SMOOTH",
"686 610 LINE",
"410 610 LINE",
"466 856 OFFCURVE",
"501 1013 OFFCURVE",
"514 1082 CURVE SMOOTH",
"527 1151 OFFCURVE",
"538 1215 OFFCURVE",
"547 1272 CURVE"
);
},
{
closed = 1;
nodes = (
"265 1870 OFFCURVE",
"216 1822 OFFCURVE",
"216 1741 CURVE SMOOTH",
"216 1661 OFFCURVE",
"265 1614 OFFCURVE",
"348 1614 CURVE SMOOTH",
"431 1614 OFFCURVE",
"481 1665 OFFCURVE",
"481 1741 CURVE SMOOTH",
"481 1818 OFFCURVE",
"431 1870 OFFCURVE",
"348 1870 CURVE SMOOTH"
);
},
{
closed = 1;
nodes = (
"663 1870 OFFCURVE",
"614 1821 OFFCURVE",
"614 1741 CURVE SMOOTH",
"614 1664 OFFCURVE",
"664 1614 OFFCURVE",
"747 1614 CURVE SMOOTH",
"830 1614 OFFCURVE",
"880 1662 OFFCURVE",
"880 1741 CURVE SMOOTH",
"880 1822 OFFCURVE",
"828 1870 OFFCURVE",
"747 1870 CURVE SMOOTH"
);
}
);
width = 1094;
}
);
unicode = 00C4;
},
{
glyphname = Agrave;
lastChange = "2013-03-07 05:35:11 +0200";
layers = (
{
layerId = "72C2BD91-63AC-4E79-A4ED-224E2850FB61";
name = "Bold Condensed";
paths = (
{
closed = 1;
nodes = (
"362 1468 LINE",
"0 0 LINE",
"272 0 LINE",
"356 369 LINE",
"737 369 LINE",
"821 0 LINE",
"1094 0 LINE",
"731 1468 LINE"
);
},
{
closed = 1;
nodes = (
"550 1244 OFFCURVE",
"560 1188 OFFCURVE",
"576 1105 CURVE SMOOTH",
"593 1022 OFFCURVE",
"603 970.999 OFFCURVE",
"608 950 CURVE SMOOTH",
"686 610 LINE",
"410 610 LINE",
"466 856 OFFCURVE",
"501 1013 OFFCURVE",
"514 1082 CURVE SMOOTH",
"527 1151 OFFCURVE",
"538 1215 OFFCURVE",
"547 1272 CURVE"
);
},
{
closed = 1;
nodes = (
"193 1907 LINE",
"193 1886 LINE",
"210 1855 OFFCURVE",
"253 1806 OFFCURVE",
"320 1739 CURVE SMOOTH",
"387 1672 OFFCURVE",
"446 1619 OFFCURVE",
"496 1579 CURVE",
"683 1579 LINE",
"683 1606 LINE",
"658 1639 OFFCURVE",
"627 1688 OFFCURVE",
"591 1751 CURVE SMOOTH",
"556 1815 OFFCURVE",
"529 1867 OFFCURVE",
"511 1907 CURVE"
);
}
);
width = 1094;
}
);
unicode = 00C0;
},
{
glyphname = Aring;
lastChange = "2013-03-07 05:35:11 +0200";
layers = (
{
layerId = "72C2BD91-63AC-4E79-A4ED-224E2850FB61";
name = "Bold Condensed";
paths = (
{
closed = 1;
nodes = (
"362 1468 LINE",
"0 0 LINE",
"272 0 LINE",
"356 369 LINE",
"737 369 LINE",
"821 0 LINE",
"1094 0 LINE",
"731 1468 LINE"
);
},
{
closed = 1;
nodes = (
"550 1244 OFFCURVE",
"560 1188 OFFCURVE",
"576 1105 CURVE SMOOTH",
"593 1022 OFFCURVE",
"603 970.999 OFFCURVE",
"608 950 CURVE SMOOTH",
"686 610 LINE",
"410 610 LINE",
"466 856 OFFCURVE",
"501 1013 OFFCURVE",
"514 1082 CURVE SMOOTH",
"527 1151 OFFCURVE",
"538 1215 OFFCURVE",
"547 1272 CURVE"
);
},
{
closed = 1;
nodes = (
"603 1669 OFFCURVE",
"646 1630 OFFCURVE",
"646 1569 CURVE SMOOTH",
"646 1506 OFFCURVE",
"603 1468 OFFCURVE",
"546 1468 CURVE SMOOTH",
"479 1468 OFFCURVE",
"446 1506 OFFCURVE",
"446 1569 CURVE SMOOTH",
"446 1630 OFFCURVE",
"489 1669 OFFCURVE",
"546 1669 CURVE SMOOTH"
);
},
{
closed = 1;
nodes = (
"473 1802 OFFCURVE",
"414 1781 OFFCURVE",
"369 1739 CURVE SMOOTH",
"324 1698 OFFCURVE",
"302 1641 OFFCURVE",
"302 1569 CURVE SMOOTH",
"302 1496 OFFCURVE",
"324 1439 OFFCURVE",
"369 1397 CURVE SMOOTH",
"414 1356 OFFCURVE",
"473 1335 OFFCURVE",
"546 1335 CURVE SMOOTH",
"620 1335 OFFCURVE",
"680 1356 OFFCURVE",
"726 1399 CURVE SMOOTH",
"773 1442 OFFCURVE",
"796 1500 OFFCURVE",
"796 1571 CURVE SMOOTH",
"796 1640 OFFCURVE",
"772 1695 OFFCURVE",
"725 1738 CURVE SMOOTH",
"678 1781 OFFCURVE",
"619 1802 OFFCURVE",
"546 1802 CURVE SMOOTH"
);
}
);
width = 1094;
}
);
unicode = 00C5;
},
{
glyphname = Atilde;
lastChange = "2013-03-07 05:35:11 +0200";
layers = (
{
layerId = "72C2BD91-63AC-4E79-A4ED-224E2850FB61";
name = "Bold Condensed";
paths = (
{
closed = 1;
nodes = (
"362 1468 LINE",
"0 0 LINE",
"272 0 LINE",
"356 369 LINE",
"737 369 LINE",
"821 0 LINE",
"1094 0 LINE",
"731 1468 LINE"
);
},
{
closed = 1;
nodes = (
"550 1244 OFFCURVE",
"560 1188 OFFCURVE",
"576 1105 CURVE SMOOTH",
"593 1022 OFFCURVE",
"603 970.999 OFFCURVE",
"608 950 CURVE SMOOTH",
"686 610 LINE",
"410 610 LINE",
"466 856 OFFCURVE",
"501 1013 OFFCURVE",
"514 1082 CURVE SMOOTH",
"527 1151 OFFCURVE",
"538 1215 OFFCURVE",
"547 1272 CURVE"
);
},
{
closed = 1;
nodes = (
"763 1880 LINE",
"748 1805 OFFCURVE",
"732 1772 OFFCURVE",
"687 1772 CURVE SMOOTH",
"607 1772 OFFCURVE",
"544 1878 OFFCURVE",
"429 1878 CURVE SMOOTH",
"305 1878 OFFCURVE",
"225 1781 OFFCURVE",
"210 1577 CURVE",
"351 1577 LINE",
"364 1660 OFFCURVE",
"388 1686 OFFCURVE",
"429 1686 CURVE SMOOTH",
"508 1686 OFFCURVE",
"567 1579 OFFCURVE",
"685 1579 CURVE SMOOTH",
"806 1579 OFFCURVE",
"889 1677 OFFCURVE",
"904 1880 CURVE"
);
}
);
width = 1094;
}
);
unicode = 00C3;
},
{
glyphname = AE;
lastChange = "2013-03-07 05:35:11 +0200";
layers = (
{
layerId = "72C2BD91-63AC-4E79-A4ED-224E2850FB61";
name = "Bold Condensed";
paths = (
{
closed = 1;
nodes = (
"473 1462 LINE",
"0 0 LINE",
"272 0 LINE",
"385 369 LINE",
"684 369 LINE",
"684 0 LINE",
"1339 0 LINE",
"1339 238 LINE",
"956 238 LINE",
"956 643 LINE",
"1311 643 LINE",
"1311 879 LINE",
"956 879 LINE",
"956 1227 LINE",
"1339 1227 LINE",
"1339 1462 LINE"
);
},
{
closed = 1;
nodes = (
"684 610 LINE",
"461 610 LINE",
"631 1178 LINE",
"645 1227 LINE",
"684 1227 LINE"
);
}
);
width = 1425;
}
);
unicode = 00C6;
},
{
glyphname = B;
lastChange = "2013-03-07 05:35:11 +0200";
layers = (
{
layerId = "72C2BD91-63AC-4E79-A4ED-224E2850FB61";
name = "Bold Condensed";
paths = (
{
closed = 1;
nodes = (
"129 1462 LINE",
"129 0 LINE",
"569 0 LINE SMOOTH",
"692 0 OFFCURVE",
"789 37 OFFCURVE",
"860 112 CURVE SMOOTH",
"931 187 OFFCURVE",
"967 291 OFFCURVE",
"967 424 CURVE SMOOTH",
"967 612 OFFCURVE",
"898 725 OFFCURVE",
"733 766 CURVE",
"733 776 LINE",
"796 788 OFFCURVE",
"846 822 OFFCURVE",
"883 879 CURVE SMOOTH",
"920 936 OFFCURVE",
"938 1007 OFFCURVE",
"938 1092 CURVE SMOOTH",
"938 1349 OFFCURVE",
"806 1462 OFFCURVE",
"502 1462 CURVE SMOOTH"
);
},
{
closed = 1;
nodes = (
"633 647 OFFCURVE",
"690 582 OFFCURVE",
"690 451 CURVE SMOOTH",
"690 306 OFFCURVE",
"635 238 OFFCURVE",
"522 238 CURVE SMOOTH",
"385 238 LINE",
"385 647 LINE",
"518 647 LINE SMOOTH"
);
},
{
closed = 1;
nodes = (
"615 1227 OFFCURVE",
"666 1178 OFFCURVE",
"666 1057 CURVE SMOOTH",
"666 936 OFFCURVE",
"625 874 OFFCURVE",
"510 874 CURVE SMOOTH",
"385 874 LINE",
"385 1227 LINE",
"500 1227 LINE SMOOTH"
);
}
);
width = 1038;
}
);
unicode = 0042;
},
{
glyphname = C;
lastChange = "2013-03-07 05:35:10 +0200";
layers = (
{
layerId = "72C2BD91-63AC-4E79-A4ED-224E2850FB61";
name = "Bold Condensed";
paths = (
{
closed = 1;
nodes = (
"438 1483 OFFCURVE",
"311 1417 OFFCURVE",
"220 1284 CURVE SMOOTH",
"129 1151 OFFCURVE",
"84 966 OFFCURVE",
"84 729 CURVE SMOOTH",
"84 492 OFFCURVE",
"128 307 OFFCURVE",
"216 176 CURVE SMOOTH",
"305 45 OFFCURVE",
"431 -20 OFFCURVE",
"596 -20 CURVE SMOOTH",
"707 -20 OFFCURVE",
"799 4 OFFCURVE",
"870 51 CURVE",
"870 293 LINE",
"785 244 OFFCURVE",
"704 219 OFFCURVE",
"627 219 CURVE SMOOTH",
"450 219 OFFCURVE",
"362 388 OFFCURVE",
"362 727 CURVE SMOOTH",
"362 890 OFFCURVE",
"384 1017 OFFCURVE",
"429 1108 CURVE SMOOTH",
"474 1199 OFFCURVE",
"536 1245 OFFCURVE",
"614 1245 CURVE SMOOTH",
"694 1245 OFFCURVE",
"761 1204 OFFCURVE",
"821 1163 CURVE",
"911 1384 LINE",
"799 1457 OFFCURVE",
"707 1483 OFFCURVE",
"600 1483 CURVE SMOOTH"
);
}
);
width = 948;
}
);
unicode = 0043;
},
{
glyphname = Ccedilla;
lastChange = "2013-03-07 05:35:11 +0200";
layers = (
{
layerId = "72C2BD91-63AC-4E79-A4ED-224E2850FB61";
name = "Bold Condensed";
paths = (
{
closed = 1;
nodes = (
"438 1483 OFFCURVE",
"311 1417 OFFCURVE",
"220 1284 CURVE SMOOTH",
"129 1151 OFFCURVE",
"84 966 OFFCURVE",
"84 729 CURVE SMOOTH",
"84 492 OFFCURVE",
"128 307 OFFCURVE",
"216 176 CURVE SMOOTH",
"305 45 OFFCURVE",
"431 -20 OFFCURVE",
"596 -20 CURVE SMOOTH",
"707 -20 OFFCURVE",
"799 4 OFFCURVE",
"870 51 CURVE",
"870 293 LINE",
"785 244 OFFCURVE",
"704 219 OFFCURVE",
"627 219 CURVE SMOOTH",
"450 219 OFFCURVE",
"362 388 OFFCURVE",
"362 727 CURVE SMOOTH",
"362 890 OFFCURVE",
"384 1017 OFFCURVE",
"429 1108 CURVE SMOOTH",
"474 1199 OFFCURVE",
"536 1245 OFFCURVE",
"614 1245 CURVE SMOOTH",
"694 1245 OFFCURVE",
"761 1204 OFFCURVE",
"821 1163 CURVE",
"911 1384 LINE",
"799 1457 OFFCURVE",
"707 1483 OFFCURVE",
"600 1483 CURVE SMOOTH"
);
},
{
closed = 1;
nodes = (
"456 0 LINE",
"377 -158 LINE",
"482 -175 OFFCURVE",
"534 -212 OFFCURVE",
"534 -268 CURVE SMOOTH",
"534 -312 OFFCURVE",
"505 -334 OFFCURVE",
"446 -334 CURVE SMOOTH",
"406 -334 OFFCURVE",
"366 -328 OFFCURVE",
"325 -317 CURVE",
"325 -471 LINE",
"364 -485 OFFCURVE",
"407 -492 OFFCURVE",
"456 -492 CURVE SMOOTH",
"655 -492 OFFCURVE",
"747 -403 OFFCURVE",
"747 -260 CURVE SMOOTH",
"747 -160 OFFCURVE",
"683 -99 OFFCURVE",
"592 -76 CURVE",
"629 0 LINE"
);
}
);
width = 948;
}
);
unicode = 00C7;
},
{
glyphname = D;
lastChange = "2013-03-07 05:35:11 +0200";
layers = (
{
layerId = "72C2BD91-63AC-4E79-A4ED-224E2850FB61";
name = "Bold Condensed";
paths = (
{
closed = 1;
nodes = (
"129 1462 LINE",
"129 0 LINE",
"487 0 LINE SMOOTH",
"672 0 OFFCURVE",
"813 64 OFFCURVE",
"911 191 CURVE SMOOTH",
"1010 319 OFFCURVE",
"1059 504 OFFCURVE",
"1059 745 CURVE SMOOTH",
"1059 971.999 OFFCURVE",
"1012 1148 OFFCURVE",
"917 1273 CURVE SMOOTH",
"822 1399 OFFCURVE",
"690 1462 OFFCURVE",
"520 1462 CURVE SMOOTH"
);
},
{
closed = 1;
nodes = (
"690 1227 OFFCURVE",
"780 1064 OFFCURVE",
"780 737 CURVE SMOOTH",
"780 404 OFFCURVE",
"688 238 OFFCURVE",
"489 238 CURVE SMOOTH",
"401 238 LINE",
"401 1227 LINE",
"510 1227 LINE SMOOTH"
);
}
);
width = 1143;
}
);
unicode = 0044;
},
{
glyphname = Eth;
lastChange = "2013-03-07 05:35:11 +0200";
layers = (
{
layerId = "72C2BD91-63AC-4E79-A4ED-224E2850FB61";
name = "Bold Condensed";
paths = (
{
closed = 1;
nodes = (
"129 1462 LINE",
"129 842 LINE",
"0 842 LINE",
"0 604 LINE",
"129 604 LINE",
"129 0 LINE",
"487 0 LINE SMOOTH",
"672 0 OFFCURVE",
"813 64 OFFCURVE",
"911 191 CURVE SMOOTH",
"1010 319 OFFCURVE",
"1059 504 OFFCURVE",
"1059 745 CURVE SMOOTH",
"1059 971.999 OFFCURVE",
"1012 1148 OFFCURVE",
"917 1273 CURVE SMOOTH",
"822 1399 OFFCURVE",
"690 1462 OFFCURVE",
"520 1462 CURVE SMOOTH"
);
},
{
closed = 1;
nodes = (
"690 1227 OFFCURVE",
"780 1064 OFFCURVE",
"780 737 CURVE SMOOTH",
"780 404 OFFCURVE",
"688 238 OFFCURVE",
"489 238 CURVE SMOOTH",
"401 238 LINE",
"401 604 LINE",
"584 604 LINE",
"584 842 LINE",
"401 842 LINE",
"401 1227 LINE",
"510 1227 LINE SMOOTH"
);
}
);
width = 1143;
}
);
unicode = 00D0;
},
{
glyphname = E;
lastChange = "2013-03-07 05:35:10 +0200";
layers = (
{
layerId = "72C2BD91-63AC-4E79-A4ED-224E2850FB61";
name = "Bold Condensed";
paths = (
{
closed = 1;
nodes = (
"129 1462 LINE",
"129 0 LINE",
"788 0 LINE",
"788 238 LINE",
"401 238 LINE",
"401 643 LINE",
"760 643 LINE",
"760 879 LINE",
"401 879 LINE",
"401 1227 LINE",
"788 1227 LINE",
"788 1462 LINE"
);
}
);
width = 872;
}
);
unicode = 0045;
},
{
glyphname = Eacute;
lastChange = "2013-03-07 05:35:11 +0200";
layers = (
{
layerId = "72C2BD91-63AC-4E79-A4ED-224E2850FB61";
name = "Bold Condensed";
paths = (
{
closed = 1;
nodes = (
"129 1462 LINE",
"129 0 LINE",
"788 0 LINE",
"788 238 LINE",
"401 238 LINE",
"401 643 LINE",
"760 643 LINE",
"760 879 LINE",
"401 879 LINE",
"401 1227 LINE",
"788 1227 LINE",
"788 1462 LINE"
);
},
{
closed = 1;
nodes = (
"508 1907 LINE",
"493 1872 OFFCURVE",
"467 1822 OFFCURVE",
"431 1757 CURVE SMOOTH",
"395 1692 OFFCURVE",
"363 1641 OFFCURVE",
"336 1606 CURVE",
"336 1579 LINE",
"523 1579 LINE",
"582 1628 OFFCURVE",
"644 1684 OFFCURVE",
"707 1747 CURVE SMOOTH",
"770 1811 OFFCURVE",
"810 1857 OFFCURVE",
"826 1886 CURVE",
"826 1907 LINE"
);
}
);
width = 872;
}
);
unicode = 00C9;
},
{
glyphname = Ecircumflex;
lastChange = "2013-03-07 05:35:11 +0200";
layers = (
{
layerId = "72C2BD91-63AC-4E79-A4ED-224E2850FB61";
name = "Bold Condensed";
paths = (
{
closed = 1;
nodes = (
"129 1462 LINE",
"129 0 LINE",
"788 0 LINE",
"788 238 LINE",
"401 238 LINE",
"401 643 LINE",
"760 643 LINE",
"760 879 LINE",
"401 879 LINE",
"401 1227 LINE",
"788 1227 LINE",
"788 1462 LINE"
);
},
{
closed = 1;
nodes = (
"320 1907 LINE",
"293 1855 OFFCURVE",
"221 1755 OFFCURVE",
"103 1606 CURVE",
"103 1579 LINE",
"271 1579 LINE",
"336 1631 OFFCURVE",
"398 1690 OFFCURVE",
"457 1757 CURVE",
"519 1686 OFFCURVE",
"582 1627 OFFCURVE",
"646 1579 CURVE",
"814 1579 LINE",
"814 1606 LINE",
"701 1749 OFFCURVE",
"628 1849 OFFCURVE",
"597 1907 CURVE"
);
}
);
width = 872;
}
);
unicode = 00CA;
},
{
glyphname = Edieresis;
lastChange = "2013-03-07 05:35:11 +0200";
layers = (
{
layerId = "72C2BD91-63AC-4E79-A4ED-224E2850FB61";
name = "Bold Condensed";
paths = (
{
closed = 1;
nodes = (
"129 1462 LINE",
"129 0 LINE",
"788 0 LINE",
"788 238 LINE",
"401 238 LINE",
"401 643 LINE",
"760 643 LINE",
"760 879 LINE",
"401 879 LINE",
"401 1227 LINE",
"788 1227 LINE",
"788 1462 LINE"
);
},
{
closed = 1;
nodes = (
"179 1870 OFFCURVE",
"130 1822 OFFCURVE",
"130 1741 CURVE SMOOTH",
"130 1661 OFFCURVE",
"179 1614 OFFCURVE",
"262 1614 CURVE SMOOTH",
"345 1614 OFFCURVE",
"395 1665 OFFCURVE",
"395 1741 CURVE SMOOTH",
"395 1818 OFFCURVE",
"345 1870 OFFCURVE",
"262 1870 CURVE SMOOTH"
);
},
{
closed = 1;
nodes = (
"577 1870 OFFCURVE",
"528 1821 OFFCURVE",
"528 1741 CURVE SMOOTH",
"528 1664 OFFCURVE",
"578 1614 OFFCURVE",
"661 1614 CURVE SMOOTH",
"744 1614 OFFCURVE",
"794 1662 OFFCURVE",
"794 1741 CURVE SMOOTH",
"794 1822 OFFCURVE",
"742 1870 OFFCURVE",
"661 1870 CURVE SMOOTH"
);
}
);
width = 872;
}
);
unicode = 00CB;
},
{
glyphname = Egrave;
lastChange = "2013-03-07 05:35:11 +0200";
layers = (
{
layerId = "72C2BD91-63AC-4E79-A4ED-224E2850FB61";
name = "Bold Condensed";
paths = (
{
closed = 1;
nodes = (
"129 1462 LINE",
"129 0 LINE",
"788 0 LINE",
"788 238 LINE",
"401 238 LINE",
"401 643 LINE",
"760 643 LINE",
"760 879 LINE",
"401 879 LINE",
"401 1227 LINE",
"788 1227 LINE",
"788 1462 LINE"
);
},
{
closed = 1;
nodes = (
"89 1907 LINE",
"89 1886 LINE",
"106 1855 OFFCURVE",
"149 1806 OFFCURVE",
"216 1739 CURVE SMOOTH",
"283 1672 OFFCURVE",
"342 1619 OFFCURVE",
"392 1579 CURVE",
"579 1579 LINE",
"579 1606 LINE",
"554 1639 OFFCURVE",
"523 1688 OFFCURVE",
"487 1751 CURVE SMOOTH",
"452 1815 OFFCURVE",
"425 1867 OFFCURVE",
"407 1907 CURVE"
);
}
);
width = 872;
}
);
unicode = 00C8;
},
{
glyphname = F;
lastChange = "2013-03-07 05:35:10 +0200";
layers = (
{
layerId = "72C2BD91-63AC-4E79-A4ED-224E2850FB61";
name = "Bold Condensed";
paths = (
{
closed = 1;
nodes = (
"129 1462 LINE",
"129 0 LINE",
"399 0 LINE",
"399 586 LINE",
"758 586 LINE",
"758 821 LINE",
"399 821 LINE",
"399 1227 LINE",
"784 1227 LINE",
"784 1462 LINE"
);
}
);
width = 838;
}
);
unicode = 0046;
},
{
glyphname = G;
lastChange = "2013-03-07 05:35:10 +0200";
layers = (
{
layerId = "72C2BD91-63AC-4E79-A4ED-224E2850FB61";
name = "Bold Condensed";
paths = (
{
closed = 1;
nodes = (
"493 1483 OFFCURVE",
"346 1417 OFFCURVE",
"241 1284 CURVE SMOOTH",
"136 1151 OFFCURVE",
"84 967.999 OFFCURVE",
"84 733 CURVE SMOOTH",
"84 490 OFFCURVE",
"130 303 OFFCURVE",
"221 174 CURVE SMOOTH",
"313 45 OFFCURVE",
"444 -20 OFFCURVE",
"614 -20 CURVE SMOOTH",
"757 -20 OFFCURVE",
"891 7 OFFCURVE",
"1018 61 CURVE",
"1018 811 LINE",
"571 811 LINE",
"571 571 LINE",
"752 571 LINE",
"752 236 LINE",
"707 225 OFFCURVE",
"662 219 OFFCURVE",
"618 219 CURVE SMOOTH",
"451 219 OFFCURVE",
"362 399 OFFCURVE",
"362 727 CURVE SMOOTH",
"362 886 OFFCURVE",
"392 1012 OFFCURVE",
"452 1104 CURVE SMOOTH",
"513 1197 OFFCURVE",
"595 1243 OFFCURVE",
"698 1243 CURVE SMOOTH",
"770 1243 OFFCURVE",
"847 1219 OFFCURVE",
"930 1171 CURVE",
"1016 1393 LINE",
"910 1453 OFFCURVE",
"799 1483 OFFCURVE",
"682 1483 CURVE SMOOTH"
);
}
);
width = 1112;
}
);
unicode = 0047;
},
{
glyphname = H;
lastChange = "2013-03-07 05:35:10 +0200";
layers = (
{
layerId = "72C2BD91-63AC-4E79-A4ED-224E2850FB61";
name = "Bold Condensed";
paths = (
{
closed = 1;
nodes = (
"760 1462 LINE",
"760 881 LINE",
"401 881 LINE",
"401 1462 LINE",
"129 1462 LINE",
"129 0 LINE",
"401 0 LINE",
"401 641 LINE",
"760 641 LINE",
"760 0 LINE",
"1032 0 LINE",
"1032 1462 LINE"
);
}
);
width = 1161;
}
);
unicode = 0048;
},
{
glyphname = I;
lastChange = "2013-03-07 05:35:10 +0200";
layers = (
{
layerId = "72C2BD91-63AC-4E79-A4ED-224E2850FB61";
name = "Bold Condensed";
paths = (
{
closed = 1;
nodes = (
"178 1462 LINE",
"178 0 LINE",
"434 0 LINE",
"434 1462 LINE"
);
}
);
width = 614;
}
);
unicode = 0049;
},
{
glyphname = Iacute;
lastChange = "2013-03-07 05:35:11 +0200";
layers = (
{
layerId = "72C2BD91-63AC-4E79-A4ED-224E2850FB61";
name = "Bold Condensed";
paths = (
{
closed = 1;
nodes = (
"178 1462 LINE",
"178 0 LINE",
"434 0 LINE",
"434 1462 LINE"
);
},
{
closed = 1;
nodes = (
"339 1907 LINE",
"324 1872 OFFCURVE",
"298 1822 OFFCURVE",
"262 1757 CURVE SMOOTH",
"226 1692 OFFCURVE",
"194 1641 OFFCURVE",
"167 1606 CURVE",
"167 1579 LINE",
"354 1579 LINE",
"413 1628 OFFCURVE",
"475 1684 OFFCURVE",
"538 1747 CURVE SMOOTH",
"601 1811 OFFCURVE",
"641 1857 OFFCURVE",
"657 1886 CURVE",
"657 1907 LINE"
);
}
);
width = 614;
}
);
unicode = 00CD;
},
{
glyphname = Icircumflex;
lastChange = "2013-03-07 05:35:11 +0200";
layers = (
{
layerId = "72C2BD91-63AC-4E79-A4ED-224E2850FB61";
name = "Bold Condensed";
paths = (
{
closed = 1;
nodes = (
"178 1462 LINE",
"178 0 LINE",
"434 0 LINE",
"434 1462 LINE"
);
},
{
closed = 1;
nodes = (
"169 1907 LINE",
"142 1855 OFFCURVE",
"70 1755 OFFCURVE",
"-48 1606 CURVE",
"-48 1579 LINE",
"120 1579 LINE",
"185 1631 OFFCURVE",
"247 1690 OFFCURVE",
"306 1757 CURVE",
"368 1686 OFFCURVE",
"431 1627 OFFCURVE",
"495 1579 CURVE",
"663 1579 LINE",
"663 1606 LINE",
"550 1749 OFFCURVE",
"477 1849 OFFCURVE",
"446 1907 CURVE"
);
}
);
width = 614;
}
);
unicode = 00CE;
},
{
glyphname = Idieresis;
lastChange = "2013-03-07 05:35:11 +0200";
layers = (
{
layerId = "72C2BD91-63AC-4E79-A4ED-224E2850FB61";
name = "Bold Condensed";
paths = (
{
closed = 1;
nodes = (
"178 1462 LINE",
"178 0 LINE",
"434 0 LINE",
"434 1462 LINE"
);
},
{
closed = 1;
nodes = (
"25 1870 OFFCURVE",
"-24 1822 OFFCURVE",
"-24 1741 CURVE SMOOTH",
"-24 1661 OFFCURVE",
"25 1614 OFFCURVE",
"108 1614 CURVE SMOOTH",
"191 1614 OFFCURVE",
"241 1665 OFFCURVE",
"241 1741 CURVE SMOOTH",
"241 1818 OFFCURVE",
"191 1870 OFFCURVE",
"108 1870 CURVE SMOOTH"
);
},
{
closed = 1;
nodes = (
"423 1870 OFFCURVE",
"374 1821 OFFCURVE",
"374 1741 CURVE SMOOTH",
"374 1664 OFFCURVE",
"424 1614 OFFCURVE",
"507 1614 CURVE SMOOTH",
"590 1614 OFFCURVE",
"640 1662 OFFCURVE",
"640 1741 CURVE SMOOTH",
"640 1822 OFFCURVE",
"588 1870 OFFCURVE",
"507 1870 CURVE SMOOTH"
);
}
);
width = 614;
}
);
unicode = 00CF;
},
{
glyphname = Igrave;
lastChange = "2013-03-07 05:35:11 +0200";
layers = (
{
layerId = "72C2BD91-63AC-4E79-A4ED-224E2850FB61";
name = "Bold Condensed";
paths = (
{
closed = 1;
nodes = (
"178 1462 LINE",
"178 0 LINE",
"434 0 LINE",
"434 1462 LINE"
);
},
{
closed = 1;
nodes = (
"-50 1907 LINE",
"-50 1886 LINE",
"-33 1855 OFFCURVE",
"9.99999 1806 OFFCURVE",
"77 1739 CURVE SMOOTH",
"144 1672 OFFCURVE",
"203 1619 OFFCURVE",
"253 1579 CURVE",
"440 1579 LINE",
"440 1606 LINE",
"415 1639 OFFCURVE",
"384 1688 OFFCURVE",
"348 1751 CURVE SMOOTH",
"313 1815 OFFCURVE",
"286 1867 OFFCURVE",
"268 1907 CURVE"
);
}
);
width = 614;
}
);
unicode = 00CC;
},
{
glyphname = J;
lastChange = "2013-03-07 05:35:10 +0200";
layers = (
{
layerId = "72C2BD91-63AC-4E79-A4ED-224E2850FB61";
name = "Bold Condensed";
paths = (
{
closed = 1;
nodes = (
"129 1462 LINE",
"129 31 LINE SMOOTH",
"129 -109 OFFCURVE",
"80 -180 OFFCURVE",
"-31 -180 CURVE SMOOTH",
"-70 -180 OFFCURVE",
"-111 -173 OFFCURVE",
"-154 -160 CURVE",
"-154 -397 LINE",
"-113 -414 OFFCURVE",
"-57 -422 OFFCURVE",
"14 -422 CURVE SMOOTH",
"240 -425 OFFCURVE",
"405 -243 OFFCURVE",
"401 45 CURVE",
"401 1462 LINE"
);
}
);
width = 530;
}
);
unicode = 004A;
},
{
glyphname = K;
lastChange = "2013-03-07 05:35:10 +0200";
layers = (
{
layerId = "72C2BD91-63AC-4E79-A4ED-224E2850FB61";
name = "Bold Condensed";
paths = (
{
closed = 1;
nodes = (
"745 1462 LINE",
"496 956 LINE",
"401 737 LINE",
"401 1462 LINE",
"129 1462 LINE",
"129 0 LINE",
"401 0 LINE",
"401 516 LINE",
"510 625 LINE",
"750 0 LINE",
"1040 0 LINE",
"698 829 LINE",
"1036 1462 LINE"
);
}
);
width = 1040;
}
);
unicode = 004B;
},
{
glyphname = L;
lastChange = "2013-03-07 05:35:10 +0200";
layers = (
{
layerId = "72C2BD91-63AC-4E79-A4ED-224E2850FB61";
name = "Bold Condensed";
paths = (
{
closed = 1;
nodes = (
"129 1462 LINE",
"129 0 LINE",
"778 0 LINE",
"778 238 LINE",
"401 238 LINE",
"401 1462 LINE"
);
}
);
width = 823;
}
);
unicode = 004C;
},
{
glyphname = M;
lastChange = "2013-03-07 05:35:10 +0200";
layers = (
{
layerId = "72C2BD91-63AC-4E79-A4ED-224E2850FB61";
name = "Bold Condensed";
paths = (
{
closed = 1;
nodes = (
"1053 1462 LINE",
"805 313 LINE",
"797 313 LINE",
"547 1462 LINE",
"129 1462 LINE",
"129 0 LINE",
"381 0 LINE",
"381 980.999 LINE SMOOTH",
"381 1061 OFFCURVE",
"375 1149 OFFCURVE",
"362 1245 CURVE",
"373 1245 LINE",
"651 0 LINE",
"948 0 LINE",
"1225 1243 LINE",
"1233 1243 LINE",
"1224 1157 OFFCURVE",
"1219 1073 OFFCURVE",
"1219 990.999 CURVE SMOOTH",
"1219 0 LINE",
"1477 0 LINE",
"1477 1462 LINE"
);
}
);
width = 1606;
}
);
unicode = 004D;
},
{
glyphname = N;
lastChange = "2013-03-07 05:35:10 +0200";
layers = (
{
layerId = "72C2BD91-63AC-4E79-A4ED-224E2850FB61";
name = "Bold Condensed";
paths = (
{
closed = 1;
nodes = (
"903 1462 LINE",
"903 664 LINE SMOOTH",
"903 567 OFFCURVE",
"909 484 OFFCURVE",
"922 414 CURVE",
"911 414 LINE",
"463 1462 LINE",
"129 1462 LINE",
"129 0 LINE",
"381 0 LINE",
"381 799 LINE SMOOTH",
"381 892 OFFCURVE",
"373 977.999 OFFCURVE",
"356 1059 CURVE",
"369 1059 LINE",
"821 0 LINE",
"1153 0 LINE",
"1153 1462 LINE"
);
}
);
width = 1282;
}
);
unicode = 004E;
},
{
glyphname = Ntilde;
lastChange = "2013-03-07 05:35:11 +0200";
layers = (
{
layerId = "72C2BD91-63AC-4E79-A4ED-224E2850FB61";
name = "Bold Condensed";
paths = (
{
closed = 1;
nodes = (
"903 1462 LINE",
"903 664 LINE SMOOTH",
"903 567 OFFCURVE",
"909 484 OFFCURVE",
"922 414 CURVE",
"911 414 LINE",
"463 1462 LINE",
"129 1462 LINE",
"129 0 LINE",
"381 0 LINE",
"381 799 LINE SMOOTH",
"381 892 OFFCURVE",
"373 977.999 OFFCURVE",
"356 1059 CURVE",
"369 1059 LINE",
"821 0 LINE",
"1153 0 LINE",
"1153 1462 LINE"
);
},
{
closed = 1;
nodes = (
"856 1880 LINE",
"841 1805 OFFCURVE",
"825 1772 OFFCURVE",
"780 1772 CURVE SMOOTH",
"700 1772 OFFCURVE",
"637 1878 OFFCURVE",
"522 1878 CURVE SMOOTH",
"398 1878 OFFCURVE",
"318 1781 OFFCURVE",
"303 1577 CURVE",
"444 1577 LINE",
"457 1660 OFFCURVE",
"481 1686 OFFCURVE",
"522 1686 CURVE SMOOTH",
"601 1686 OFFCURVE",
"660 1579 OFFCURVE",
"778 1579 CURVE SMOOTH",
"899 1579 OFFCURVE",
"981.999 1677 OFFCURVE",
"996.999 1880 CURVE"
);
}
);
width = 1282;
}
);
unicode = 00D1;
},
{
glyphname = O;
lastChange = "2013-03-07 05:35:11 +0200";
layers = (
{
layerId = "72C2BD91-63AC-4E79-A4ED-224E2850FB61";
name = "Bold Condensed";
paths = (
{
closed = 1;
nodes = (
"441 1485 OFFCURVE",
"311 1420 OFFCURVE",
"220 1291 CURVE SMOOTH",
"129 1162 OFFCURVE",
"84 976.999 OFFCURVE",
"84 735 CURVE SMOOTH",
"84 491 OFFCURVE",
"129 304 OFFCURVE",
"220 174 CURVE SMOOTH",
"311 45 OFFCURVE",
"441 -20 OFFCURVE",
"610 -20 CURVE SMOOTH",
"779 -20 OFFCURVE",
"908 45 OFFCURVE",
"998.999 175 CURVE SMOOTH",
"1090 305 OFFCURVE",
"1135 491 OFFCURVE",
"1135 733 CURVE SMOOTH",
"1135 974.999 OFFCURVE",
"1090 1161 OFFCURVE",
"999.999 1290 CURVE SMOOTH",
"910 1420 OFFCURVE",
"781 1485 OFFCURVE",
"612 1485 CURVE SMOOTH"
);
},
{
closed = 1;
nodes = (
"775 1245 OFFCURVE",
"856 1074 OFFCURVE",
"856 733 CURVE SMOOTH",
"856 392 OFFCURVE",
"774 221 OFFCURVE",
"610 221 CURVE SMOOTH",
"447 221 OFFCURVE",
"362 400 OFFCURVE",
"362 733 CURVE SMOOTH",
"362 1068 OFFCURVE",
"447 1245 OFFCURVE",
"612 1245 CURVE SMOOTH"
);
}
);
width = 1219;
}
);
unicode = 004F;
},
{
glyphname = Oacute;
lastChange = "2013-03-07 05:35:11 +0200";
layers = (
{
layerId = "72C2BD91-63AC-4E79-A4ED-224E2850FB61";
name = "Bold Condensed";
paths = (
{
closed = 1;
nodes = (
"441 1485 OFFCURVE",
"311 1420 OFFCURVE",
"220 1291 CURVE SMOOTH",
"129 1162 OFFCURVE",
"84 976.999 OFFCURVE",
"84 735 CURVE SMOOTH",
"84 491 OFFCURVE",
"129 304 OFFCURVE",
"220 174 CURVE SMOOTH",
"311 45 OFFCURVE",
"441 -20 OFFCURVE",
"610 -20 CURVE SMOOTH",
"779 -20 OFFCURVE",
"908 45 OFFCURVE",
"998.999 175 CURVE SMOOTH",
"1090 305 OFFCURVE",
"1135 491 OFFCURVE",
"1135 733 CURVE SMOOTH",
"1135 974.999 OFFCURVE",
"1090 1161 OFFCURVE",
"999.999 1290 CURVE SMOOTH",
"910 1420 OFFCURVE",
"781 1485 OFFCURVE",
"612 1485 CURVE SMOOTH"
);
},
{
closed = 1;
nodes = (
"775 1245 OFFCURVE",
"856 1074 OFFCURVE",
"856 733 CURVE SMOOTH",
"856 392 OFFCURVE",
"774 221 OFFCURVE",
"610 221 CURVE SMOOTH",
"447 221 OFFCURVE",
"362 400 OFFCURVE",
"362 733 CURVE SMOOTH",
"362 1068 OFFCURVE",
"447 1245 OFFCURVE",
"612 1245 CURVE SMOOTH"
);
},
{
closed = 1;
nodes = (
"649 1907 LINE",
"634 1872 OFFCURVE",
"608 1822 OFFCURVE",
"572 1757 CURVE SMOOTH",
"536 1692 OFFCURVE",
"504 1641 OFFCURVE",
"477 1606 CURVE",
"477 1579 LINE",
"664 1579 LINE",
"723 1628 OFFCURVE",
"785 1684 OFFCURVE",
"848 1747 CURVE SMOOTH",
"911 1811 OFFCURVE",
"951 1857 OFFCURVE",
"967 1886 CURVE",
"967 1907 LINE"
);
}
);
width = 1219;
}
);
unicode = 00D3;
},
{
glyphname = Ocircumflex;
lastChange = "2013-03-07 05:35:11 +0200";
layers = (
{
layerId = "72C2BD91-63AC-4E79-A4ED-224E2850FB61";
name = "Bold Condensed";
paths = (
{
closed = 1;
nodes = (
"441 1485 OFFCURVE",
"311 1420 OFFCURVE",
"220 1291 CURVE SMOOTH",
"129 1162 OFFCURVE",
"84 976.999 OFFCURVE",
"84 735 CURVE SMOOTH",
"84 491 OFFCURVE",
"129 304 OFFCURVE",
"220 174 CURVE SMOOTH",
"311 45 OFFCURVE",
"441 -20 OFFCURVE",
"610 -20 CURVE SMOOTH",
"779 -20 OFFCURVE",
"908 45 OFFCURVE",
"998.999 175 CURVE SMOOTH",
"1090 305 OFFCURVE",
"1135 491 OFFCURVE",
"1135 733 CURVE SMOOTH",
"1135 974.999 OFFCURVE",
"1090 1161 OFFCURVE",
"999.999 1290 CURVE SMOOTH",
"910 1420 OFFCURVE",
"781 1485 OFFCURVE",
"612 1485 CURVE SMOOTH"
);
},
{
closed = 1;
nodes = (
"775 1245 OFFCURVE",
"856 1074 OFFCURVE",
"856 733 CURVE SMOOTH",
"856 392 OFFCURVE",
"774 221 OFFCURVE",
"610 221 CURVE SMOOTH",
"447 221 OFFCURVE",
"362 400 OFFCURVE",
"362 733 CURVE SMOOTH",
"362 1068 OFFCURVE",
"447 1245 OFFCURVE",
"612 1245 CURVE SMOOTH"
);
},
{
closed = 1;
nodes = (
"469 1907 LINE",
"442 1855 OFFCURVE",
"370 1755 OFFCURVE",
"252 1606 CURVE",
"252 1579 LINE",
"420 1579 LINE",
"485 1631 OFFCURVE",
"547 1690 OFFCURVE",
"606 1757 CURVE",
"668 1686 OFFCURVE",
"731 1627 OFFCURVE",
"795 1579 CURVE",
"963 1579 LINE",
"963 1606 LINE",
"850 1749 OFFCURVE",
"777 1849 OFFCURVE",
"746 1907 CURVE"
);
}
);
width = 1219;
}
);
unicode = 00D4;
},
{
glyphname = Odieresis;
lastChange = "2013-03-07 05:35:11 +0200";
layers = (
{
layerId = "72C2BD91-63AC-4E79-A4ED-224E2850FB61";
name = "Bold Condensed";
paths = (
{
closed = 1;
nodes = (
"441 1485 OFFCURVE",
"311 1420 OFFCURVE",
"220 1291 CURVE SMOOTH",
"129 1162 OFFCURVE",
"84 976.999 OFFCURVE",
"84 735 CURVE SMOOTH",
"84 491 OFFCURVE",
"129 304 OFFCURVE",
"220 174 CURVE SMOOTH",
"311 45 OFFCURVE",
"441 -20 OFFCURVE",
"610 -20 CURVE SMOOTH",
"779 -20 OFFCURVE",
"908 45 OFFCURVE",
"998.999 175 CURVE SMOOTH",
"1090 305 OFFCURVE",
"1135 491 OFFCURVE",
"1135 733 CURVE SMOOTH",
"1135 974.999 OFFCURVE",
"1090 1161 OFFCURVE",
"999.999 1290 CURVE SMOOTH",
"910 1420 OFFCURVE",
"781 1485 OFFCURVE",
"612 1485 CURVE SMOOTH"
);
},
{
closed = 1;
nodes = (
"775 1245 OFFCURVE",
"856 1074 OFFCURVE",
"856 733 CURVE SMOOTH",
"856 392 OFFCURVE",
"774 221 OFFCURVE",
"610 221 CURVE SMOOTH",
"447 221 OFFCURVE",
"362 400 OFFCURVE",
"362 733 CURVE SMOOTH",
"362 1068 OFFCURVE",
"447 1245 OFFCURVE",
"612 1245 CURVE SMOOTH"
);
},
{
closed = 1;
nodes = (
"325 1870 OFFCURVE",
"276 1822 OFFCURVE",
"276 1741 CURVE SMOOTH",
"276 1661 OFFCURVE",
"325 1614 OFFCURVE",
"408 1614 CURVE SMOOTH",
"491 1614 OFFCURVE",
"541 1665 OFFCURVE",
"541 1741 CURVE SMOOTH",
"541 1818 OFFCURVE",
"491 1870 OFFCURVE",
"408 1870 CURVE SMOOTH"
);
},
{
closed = 1;
nodes = (
"723 1870 OFFCURVE",
"674 1821 OFFCURVE",
"674 1741 CURVE SMOOTH",
"674 1664 OFFCURVE",
"724 1614 OFFCURVE",
"807 1614 CURVE SMOOTH",
"890 1614 OFFCURVE",
"940 1662 OFFCURVE",
"940 1741 CURVE SMOOTH",
"940 1822 OFFCURVE",
"888 1870 OFFCURVE",
"807 1870 CURVE SMOOTH"
);
}
);
width = 1219;
}
);
unicode = 00D6;
},
{
glyphname = Ograve;
lastChange = "2013-03-07 05:35:11 +0200";
layers = (
{
layerId = "72C2BD91-63AC-4E79-A4ED-224E2850FB61";
name = "Bold Condensed";
paths = (
{
closed = 1;
nodes = (
"441 1485 OFFCURVE",
"311 1420 OFFCURVE",
"220 1291 CURVE SMOOTH",
"129 1162 OFFCURVE",
"84 976.999 OFFCURVE",
"84 735 CURVE SMOOTH",
"84 491 OFFCURVE",
"129 304 OFFCURVE",
"220 174 CURVE SMOOTH",
"311 45 OFFCURVE",
"441 -20 OFFCURVE",
"610 -20 CURVE SMOOTH",
"779 -20 OFFCURVE",
"908 45 OFFCURVE",
"998.999 175 CURVE SMOOTH",
"1090 305 OFFCURVE",
"1135 491 OFFCURVE",
"1135 733 CURVE SMOOTH",
"1135 974.999 OFFCURVE",
"1090 1161 OFFCURVE",
"999.999 1290 CURVE SMOOTH",
"910 1420 OFFCURVE",
"781 1485 OFFCURVE",
"612 1485 CURVE SMOOTH"
);
},
{
closed = 1;
nodes = (
"775 1245 OFFCURVE",
"856 1074 OFFCURVE",
"856 733 CURVE SMOOTH",
"856 392 OFFCURVE",
"774 221 OFFCURVE",
"610 221 CURVE SMOOTH",
"447 221 OFFCURVE",
"362 400 OFFCURVE",
"362 733 CURVE SMOOTH",
"362 1068 OFFCURVE",
"447 1245 OFFCURVE",
"612 1245 CURVE SMOOTH"
);
},
{
closed = 1;
nodes = (
"244 1907 LINE",
"244 1886 LINE",
"261 1855 OFFCURVE",
"304 1806 OFFCURVE",
"371 1739 CURVE SMOOTH",
"438 1672 OFFCURVE",
"497 1619 OFFCURVE",
"547 1579 CURVE",
"734 1579 LINE",
"734 1606 LINE",
"709 1639 OFFCURVE",
"678 1688 OFFCURVE",
"642 1751 CURVE SMOOTH",
"607 1815 OFFCURVE",
"580 1867 OFFCURVE",
"562 1907 CURVE"
);
}
);
width = 1219;
}
);
unicode = 00D2;
},
{
glyphname = Oslash;
lastChange = "2013-03-07 05:35:11 +0200";
layers = (
{
layerId = "72C2BD91-63AC-4E79-A4ED-224E2850FB61";
name = "Bold Condensed";
paths = (
{
closed = 1;
nodes = (
"864 1417 LINE",
"787 1462 OFFCURVE",
"703 1485 OFFCURVE",
"612 1485 CURVE SMOOTH",
"441 1485 OFFCURVE",
"311 1420 OFFCURVE",
"220 1291 CURVE SMOOTH",
"129 1162 OFFCURVE",
"84 976.999 OFFCURVE",
"84 735 CURVE SMOOTH",
"84 482 OFFCURVE",
"132 291 OFFCURVE",
"229 162 CURVE",
"133 -25 LINE",
"299 -102 LINE",
"369 37 LINE",
"440 -1 OFFCURVE",
"520 -20 OFFCURVE",
"610 -20 CURVE SMOOTH",
"779 -20 OFFCURVE",
"908 45 OFFCURVE",
"998.999 175 CURVE SMOOTH",
"1090 305 OFFCURVE",
"1135 491 OFFCURVE",
"1135 733 CURVE SMOOTH",
"1135 973.999 OFFCURVE",
"1090 1158 OFFCURVE",
"1001 1286 CURVE",
"1102 1483 LINE",
"936 1559 LINE"
);
},
{
closed = 1;
nodes = (
"852 913 OFFCURVE",
"856 834 OFFCURVE",
"856 733 CURVE SMOOTH",
"856 392 OFFCURVE",
"774 221 OFFCURVE",
"610 221 CURVE SMOOTH",
"556 221 OFFCURVE",
"513 234 OFFCURVE",
"481 260 CURVE",
"844 968.999 LINE"
);
},
{
closed = 1;
nodes = (
"671 1245 OFFCURVE",
"719 1229 OFFCURVE",
"754 1196 CURVE",
"383 467 LINE",
"369 539 OFFCURVE",
"362 628 OFFCURVE",
"362 733 CURVE SMOOTH",
"362 1068 OFFCURVE",
"447 1245 OFFCURVE",
"612 1245 CURVE SMOOTH"
);
}
);
width = 1219;
}
);
unicode = 00D8;
},
{
glyphname = Otilde;
lastChange = "2013-03-07 05:35:11 +0200";
layers = (
{
layerId = "72C2BD91-63AC-4E79-A4ED-224E2850FB61";
name = "Bold Condensed";
paths = (
{
closed = 1;
nodes = (
"441 1485 OFFCURVE",
"311 1420 OFFCURVE",
"220 1291 CURVE SMOOTH",
"129 1162 OFFCURVE",
"84 976.999 OFFCURVE",
"84 735 CURVE SMOOTH",
"84 491 OFFCURVE",
"129 304 OFFCURVE",
"220 174 CURVE SMOOTH",
"311 45 OFFCURVE",
"441 -20 OFFCURVE",
"610 -20 CURVE SMOOTH",
"779 -20 OFFCURVE",
"908 45 OFFCURVE",
"998.999 175 CURVE SMOOTH",
"1090 305 OFFCURVE",
"1135 491 OFFCURVE",
"1135 733 CURVE SMOOTH",
"1135 974.999 OFFCURVE",
"1090 1161 OFFCURVE",
"999.999 1290 CURVE SMOOTH",
"910 1420 OFFCURVE",
"781 1485 OFFCURVE",
"612 1485 CURVE SMOOTH"
);
},
{
closed = 1;
nodes = (
"775 1245 OFFCURVE",
"856 1074 OFFCURVE",
"856 733 CURVE SMOOTH",
"856 392 OFFCURVE",
"774 221 OFFCURVE",
"610 221 CURVE SMOOTH",
"447 221 OFFCURVE",
"362 400 OFFCURVE",
"362 733 CURVE SMOOTH",
"362 1068 OFFCURVE",
"447 1245 OFFCURVE",
"612 1245 CURVE SMOOTH"
);
},
{
closed = 1;
nodes = (
"825 1880 LINE",
"810 1805 OFFCURVE",
"794 1772 OFFCURVE",
"749 1772 CURVE SMOOTH",
"669 1772 OFFCURVE",
"606 1878 OFFCURVE",
"491 1878 CURVE SMOOTH",
"367 1878 OFFCURVE",
"287 1781 OFFCURVE",
"272 1577 CURVE",
"413 1577 LINE",
"426 1660 OFFCURVE",
"450 1686 OFFCURVE",
"491 1686 CURVE SMOOTH",
"570 1686 OFFCURVE",
"629 1579 OFFCURVE",
"747 1579 CURVE SMOOTH",
"868 1579 OFFCURVE",
"951 1677 OFFCURVE",
"966 1880 CURVE"
);
}
);
width = 1219;
}
);
unicode = 00D5;
},
{
glyphname = OE;
lastChange = "2013-03-07 05:35:11 +0200";
layers = (
{
layerId = "72C2BD91-63AC-4E79-A4ED-224E2850FB61";
name = "Bold Condensed";
paths = (
{
closed = 1;
nodes = (
"441 1485 OFFCURVE",
"311 1420 OFFCURVE",
"220 1291 CURVE SMOOTH",
"129 1162 OFFCURVE",
"84 976.999 OFFCURVE",
"84 735 CURVE SMOOTH",
"84 491 OFFCURVE",
"129 304 OFFCURVE",
"220 174 CURVE SMOOTH",
"311 45 OFFCURVE",
"441 -20 OFFCURVE",
"610 -20 CURVE SMOOTH",
"659 -20 OFFCURVE",
"709 -13 OFFCURVE",
"760 0 CURVE",
"1360 0 LINE",
"1360 238 LINE",
"976.999 238 LINE",
"976.999 643 LINE",
"1331 643 LINE",
"1331 879 LINE",
"976.999 879 LINE",
"976.999 1227 LINE",
"1360 1227 LINE",
"1360 1462 LINE",
"770 1462 LINE",
"719 1477 OFFCURVE",
"666 1485 OFFCURVE",
"612 1485 CURVE SMOOTH"
);
},
{
closed = 1;
nodes = (
"643 1245 OFFCURVE",
"674 1240 OFFCURVE",
"705 1231 CURVE",
"705 236 LINE",
"678 226 OFFCURVE",
"646 221 OFFCURVE",
"610 221 CURVE SMOOTH",
"447 221 OFFCURVE",
"362 400 OFFCURVE",
"362 733 CURVE SMOOTH",
"362 1068 OFFCURVE",
"447 1245 OFFCURVE",
"612 1245 CURVE SMOOTH"
);
}
);
width = 1446;
}
);
unicode = 0152;
},
{
glyphname = P;
lastChange = "2013-03-07 05:35:11 +0200";
layers = (
{
layerId = "72C2BD91-63AC-4E79-A4ED-224E2850FB61";
name = "Bold Condensed";
paths = (
{
closed = 1;
nodes = (
"129 1462 LINE",
"129 0 LINE",
"401 0 LINE",
"401 530 LINE",
"469 530 LINE SMOOTH",
"765 530 OFFCURVE",
"926 701 OFFCURVE",
"926 1012 CURVE SMOOTH",
"926 1312 OFFCURVE",
"784 1462 OFFCURVE",
"500 1462 CURVE SMOOTH"
);
},
{
closed = 1;
nodes = (
"592 1227 OFFCURVE",
"651 1154 OFFCURVE",
"651 1001 CURVE SMOOTH",
"651 834 OFFCURVE",
"586 766 OFFCURVE",
"453 766 CURVE SMOOTH",
"401 766 LINE",
"401 1227 LINE",
"467 1227 LINE SMOOTH"
);
}
);
width = 980;
}
);
unicode = 0050;
},
{
glyphname = Thorn;
lastChange = "2013-03-07 05:35:11 +0200";
layers = (
{
layerId = "72C2BD91-63AC-4E79-A4ED-224E2850FB61";
name = "Bold Condensed";
paths = (
{
closed = 1;
nodes = (
"129 1462 LINE",
"129 0 LINE",
"401 0 LINE",
"401 295 LINE",
"469 295 LINE SMOOTH",
"766 295 OFFCURVE",
"926 467 OFFCURVE",
"926 778 CURVE SMOOTH",
"926 1079 OFFCURVE",
"783 1229 OFFCURVE",
"498 1229 CURVE SMOOTH",
"401 1229 LINE",
"401 1462 LINE"
);
},
{
closed = 1;
nodes = (
"590 994.999 OFFCURVE",
"651 919 OFFCURVE",
"651 768 CURVE SMOOTH",
"651 600 OFFCURVE",
"586 530 OFFCURVE",
"453 530 CURVE SMOOTH",
"401 530 LINE",
"401 994.999 LINE",
"469 994.999 LINE SMOOTH"
);
}
);
width = 980;
}
);
unicode = 00DE;
},
{
glyphname = Q;
lastChange = "2013-03-07 05:35:11 +0200";
layers = (
{
layerId = "72C2BD91-63AC-4E79-A4ED-224E2850FB61";
name = "Bold Condensed";
paths = (
{
closed = 1;
nodes = (
"441 1485 OFFCURVE",
"311 1420 OFFCURVE",
"220 1291 CURVE SMOOTH",
"129 1162 OFFCURVE",
"84 976.999 OFFCURVE",
"84 735 CURVE SMOOTH",
"84 491 OFFCURVE",
"129 304 OFFCURVE",
"220 174 CURVE SMOOTH",
"311 45 OFFCURVE",
"441 -20 OFFCURVE",
"610 -20 CURVE SMOOTH",
"625 -20 LINE",
"827 -348 LINE",
"1141 -348 LINE",
"872 51 LINE",
"1045 164 OFFCURVE",
"1135 398 OFFCURVE",
"1135 733 CURVE SMOOTH",
"1135 974.999 OFFCURVE",
"1090 1161 OFFCURVE",
"999.999 1290 CURVE SMOOTH",
"910 1420 OFFCURVE",
"781 1485 OFFCURVE",
"612 1485 CURVE SMOOTH"
);
},
{
closed = 1;
nodes = (
"775 1245 OFFCURVE",
"856 1074 OFFCURVE",
"856 733 CURVE SMOOTH",
"856 392 OFFCURVE",
"774 221 OFFCURVE",
"610 221 CURVE SMOOTH",
"447 221 OFFCURVE",
"362 400 OFFCURVE",
"362 733 CURVE SMOOTH",
"362 1068 OFFCURVE",
"447 1245 OFFCURVE",
"612 1245 CURVE SMOOTH"
);
}
);
width = 1219;
}
);
unicode = 0051;
},
{
glyphname = R;
lastChange = "2013-03-07 05:35:11 +0200";
layers = (
{
layerId = "72C2BD91-63AC-4E79-A4ED-224E2850FB61";
name = "Bold Condensed";
paths = (
{
closed = 1;
nodes = (
"129 1462 LINE",
"129 0 LINE",
"401 0 LINE",
"401 569 LINE",
"498 569 LINE",
"729 0 LINE",
"1020 0 LINE",
"739 641 LINE",
"864 714 OFFCURVE",
"926 843 OFFCURVE",
"926 1028 CURVE SMOOTH",
"926 1321 OFFCURVE",
"786 1462 OFFCURVE",
"485 1462 CURVE SMOOTH"
);
},
{
closed = 1;
nodes = (
"593 1227 OFFCURVE",
"651 1169 OFFCURVE",
"651 1020 CURVE SMOOTH",
"651 876 OFFCURVE",
"599 803 OFFCURVE",
"471 803 CURVE SMOOTH",
"401 803 LINE",
"401 1227 LINE",
"469 1227 LINE SMOOTH"
);
}
);
width = 1024;
}
);
unicode = 0052;
},
{
glyphname = S;
lastChange = "2013-03-07 05:35:10 +0200";
layers = (
{
layerId = "72C2BD91-63AC-4E79-A4ED-224E2850FB61";
name = "Bold Condensed";
paths = (
{
closed = 1;
nodes = (
"348 1483 OFFCURVE",
"254 1446 OFFCURVE",
"184 1373 CURVE SMOOTH",
"115 1300 OFFCURVE",
"80 1200 OFFCURVE",
"80 1075 CURVE SMOOTH",
"80 1010 OFFCURVE",
"89 952 OFFCURVE",
"106 903 CURVE SMOOTH",
"124 854 OFFCURVE",
"149 809 OFFCURVE",
"181 769 CURVE SMOOTH",
"214 730 OFFCURVE",
"261 688 OFFCURVE",
"324 645 CURVE SMOOTH",
"396 596 OFFCURVE",
"448 551 OFFCURVE",
"479 510 CURVE SMOOTH",
"510 470 OFFCURVE",
"526 426 OFFCURVE",
"526 377 CURVE SMOOTH",
"526 278 OFFCURVE",
"473 217 OFFCURVE",
"369 217 CURVE SMOOTH",
"278 217 OFFCURVE",
"177 253 OFFCURVE",
"68 324 CURVE",
"68 55 LINE",
"157 5 OFFCURVE",
"266 -20 OFFCURVE",
"393 -20 CURVE SMOOTH",
"653 -20 OFFCURVE",
"795 130 OFFCURVE",
"795 403 CURVE SMOOTH",
"795 488 OFFCURVE",
"776 564 OFFCURVE",
"738 631 CURVE SMOOTH",
"701 698 OFFCURVE",
"634 763 OFFCURVE",
"539 827 CURVE SMOOTH",
"468 874 OFFCURVE",
"419 915 OFFCURVE",
"390 952 CURVE SMOOTH",
"362 988.999 OFFCURVE",
"348 1032 OFFCURVE",
"348 1081 CURVE SMOOTH",
"348 1181 OFFCURVE",
"397 1243 OFFCURVE",
"485 1243 CURVE SMOOTH",
"565 1243 OFFCURVE",
"634 1208 OFFCURVE",
"698 1171 CURVE",
"788 1389 LINE",
"685 1452 OFFCURVE",
"577 1483 OFFCURVE",
"465 1483 CURVE SMOOTH"
);
}
);
width = 846;
}
);
unicode = 0053;
},
{
glyphname = Scaron;
lastChange = "2013-03-07 05:35:11 +0200";
layers = (
{
layerId = "72C2BD91-63AC-4E79-A4ED-224E2850FB61";
name = "Bold Condensed";
paths = (
{
closed = 1;
nodes = (
"348 1483 OFFCURVE",
"254 1446 OFFCURVE",
"184 1373 CURVE SMOOTH",
"115 1300 OFFCURVE",
"80 1200 OFFCURVE",
"80 1075 CURVE SMOOTH",
"80 1010 OFFCURVE",
"89 952 OFFCURVE",
"106 903 CURVE SMOOTH",
"124 854 OFFCURVE",
"149 809 OFFCURVE",
"181 769 CURVE SMOOTH",
"214 730 OFFCURVE",
"261 688 OFFCURVE",
"324 645 CURVE SMOOTH",
"396 596 OFFCURVE",
"448 551 OFFCURVE",
"479 510 CURVE SMOOTH",
"510 470 OFFCURVE",
"526 426 OFFCURVE",
"526 377 CURVE SMOOTH",
"526 278 OFFCURVE",
"473 217 OFFCURVE",
"369 217 CURVE SMOOTH",
"278 217 OFFCURVE",
"177 253 OFFCURVE",
"68 324 CURVE",
"68 55 LINE",
"157 5 OFFCURVE",
"266 -20 OFFCURVE",
"393 -20 CURVE SMOOTH",
"653 -20 OFFCURVE",
"795 130 OFFCURVE",
"795 403 CURVE SMOOTH",
"795 488 OFFCURVE",
"776 564 OFFCURVE",
"738 631 CURVE SMOOTH",
"701 698 OFFCURVE",
"634 763 OFFCURVE",
"539 827 CURVE SMOOTH",
"468 874 OFFCURVE",
"419 915 OFFCURVE",
"390 952 CURVE SMOOTH",
"362 988.999 OFFCURVE",
"348 1032 OFFCURVE",
"348 1081 CURVE SMOOTH",
"348 1181 OFFCURVE",
"397 1243 OFFCURVE",
"485 1243 CURVE SMOOTH",
"565 1243 OFFCURVE",
"634 1208 OFFCURVE",
"698 1171 CURVE",
"788 1389 LINE",
"685 1452 OFFCURVE",
"577 1483 OFFCURVE",
"465 1483 CURVE SMOOTH"
);
},
{
closed = 1;
nodes = (
"624 1907 LINE",
"563 1857 OFFCURVE",
"501 1798 OFFCURVE",
"439 1729 CURVE",
"376 1802 OFFCURVE",
"312 1861 OFFCURVE",
"249 1907 CURVE",
"81 1907 LINE",
"81 1880 LINE",
"196 1734 OFFCURVE",
"269 1634 OFFCURVE",
"298 1579 CURVE",
"575 1579 LINE",
"610 1641 OFFCURVE",
"682 1741 OFFCURVE",
"792 1880 CURVE",
"792 1907 LINE"
);
}
);
width = 846;
}
);
unicode = 0160;
},
{
glyphname = T;
lastChange = "2013-03-07 05:35:10 +0200";
layers = (
{
layerId = "72C2BD91-63AC-4E79-A4ED-224E2850FB61";
name = "Bold Condensed";
paths = (
{
closed = 1;
nodes = (
"27 1462 LINE",
"27 1223 LINE",
"307 1223 LINE",
"307 0 LINE",
"578 0 LINE",
"578 1223 LINE",
"858 1223 LINE",
"858 1462 LINE"
);
}
);
width = 885;
}
);
unicode = 0054;
},
{
glyphname = U;
lastChange = "2013-03-07 05:35:10 +0200";
layers = (
{
layerId = "72C2BD91-63AC-4E79-A4ED-224E2850FB61";
name = "Bold Condensed";
paths = (
{
closed = 1;
nodes = (
"758 1462 LINE",
"758 494 LINE SMOOTH",
"758 319 OFFCURVE",
"693 221 OFFCURVE",
"578 221 CURVE SMOOTH",
"455 221 OFFCURVE",
"393 314 OFFCURVE",
"393 500 CURVE SMOOTH",
"393 1462 LINE",
"123 1462 LINE",
"123 520 LINE SMOOTH",
"123 164 OFFCURVE",
"278 -20 OFFCURVE",
"569 -20 CURVE SMOOTH",
"866 -20 OFFCURVE",
"1028 168 OFFCURVE",
"1028 516 CURVE SMOOTH",
"1028 1462 LINE"
);
}
);
width = 1151;
}
);
unicode = 0055;
},
{
glyphname = Uacute;
lastChange = "2013-03-07 05:35:11 +0200";
layers = (
{
layerId = "72C2BD91-63AC-4E79-A4ED-224E2850FB61";
name = "Bold Condensed";
paths = (
{
closed = 1;
nodes = (
"758 1462 LINE",
"758 494 LINE SMOOTH",
"758 319 OFFCURVE",
"693 221 OFFCURVE",
"578 221 CURVE SMOOTH",
"455 221 OFFCURVE",
"393 314 OFFCURVE",
"393 500 CURVE SMOOTH",
"393 1462 LINE",
"123 1462 LINE",
"123 520 LINE SMOOTH",
"123 164 OFFCURVE",
"278 -20 OFFCURVE",
"569 -20 CURVE SMOOTH",
"866 -20 OFFCURVE",
"1028 168 OFFCURVE",
"1028 516 CURVE SMOOTH",
"1028 1462 LINE"
);
},
{
closed = 1;
nodes = (
"616 1907 LINE",
"601 1872 OFFCURVE",
"575 1822 OFFCURVE",
"539 1757 CURVE SMOOTH",
"503 1692 OFFCURVE",
"471 1641 OFFCURVE",
"444 1606 CURVE",
"444 1579 LINE",
"631 1579 LINE",
"690 1628 OFFCURVE",
"752 1684 OFFCURVE",
"815 1747 CURVE SMOOTH",
"878 1811 OFFCURVE",
"918 1857 OFFCURVE",
"934 1886 CURVE",
"934 1907 LINE"
);
}
);
width = 1151;
}
);
unicode = 00DA;
},
{
glyphname = Ucircumflex;
lastChange = "2013-03-07 05:35:11 +0200";
layers = (
{
layerId = "72C2BD91-63AC-4E79-A4ED-224E2850FB61";
name = "Bold Condensed";
paths = (
{
closed = 1;
nodes = (
"758 1462 LINE",
"758 494 LINE SMOOTH",
"758 319 OFFCURVE",
"693 221 OFFCURVE",
"578 221 CURVE SMOOTH",
"455 221 OFFCURVE",
"393 314 OFFCURVE",
"393 500 CURVE SMOOTH",
"393 1462 LINE",
"123 1462 LINE",
"123 520 LINE SMOOTH",
"123 164 OFFCURVE",
"278 -20 OFFCURVE",
"569 -20 CURVE SMOOTH",
"866 -20 OFFCURVE",
"1028 168 OFFCURVE",
"1028 516 CURVE SMOOTH",
"1028 1462 LINE"
);
},
{
closed = 1;
nodes = (
"436 1907 LINE",
"409 1855 OFFCURVE",
"337 1755 OFFCURVE",
"219 1606 CURVE",
"219 1579 LINE",
"387 1579 LINE",
"452 1631 OFFCURVE",
"514 1690 OFFCURVE",
"573 1757 CURVE",
"635 1686 OFFCURVE",
"698 1627 OFFCURVE",
"762 1579 CURVE",
"930 1579 LINE",
"930 1606 LINE",
"817 1749 OFFCURVE",
"744 1849 OFFCURVE",
"713 1907 CURVE"
);
}
);
width = 1151;
}
);
unicode = 00DB;
},
{
glyphname = Udieresis;
lastChange = "2013-03-07 05:35:11 +0200";
layers = (
{
layerId = "72C2BD91-63AC-4E79-A4ED-224E2850FB61";
name = "Bold Condensed";
paths = (
{
closed = 1;
nodes = (
"758 1462 LINE",
"758 494 LINE SMOOTH",
"758 319 OFFCURVE",
"693 221 OFFCURVE",
"578 221 CURVE SMOOTH",
"455 221 OFFCURVE",
"393 314 OFFCURVE",
"393 500 CURVE SMOOTH",
"393 1462 LINE",
"123 1462 LINE",
"123 520 LINE SMOOTH",
"123 164 OFFCURVE",
"278 -20 OFFCURVE",
"569 -20 CURVE SMOOTH",
"866 -20 OFFCURVE",
"1028 168 OFFCURVE",
"1028 516 CURVE SMOOTH",
"1028 1462 LINE"
);
},
{
closed = 1;
nodes = (
"292 1870 OFFCURVE",
"243 1822 OFFCURVE",
"243 1741 CURVE SMOOTH",
"243 1661 OFFCURVE",
"292 1614 OFFCURVE",
"375 1614 CURVE SMOOTH",
"458 1614 OFFCURVE",
"508 1665 OFFCURVE",
"508 1741 CURVE SMOOTH",
"508 1818 OFFCURVE",
"458 1870 OFFCURVE",
"375 1870 CURVE SMOOTH"
);
},
{
closed = 1;
nodes = (
"690 1870 OFFCURVE",
"641 1821 OFFCURVE",
"641 1741 CURVE SMOOTH",
"641 1664 OFFCURVE",
"691 1614 OFFCURVE",
"774 1614 CURVE SMOOTH",
"857 1614 OFFCURVE",
"907 1662 OFFCURVE",
"907 1741 CURVE SMOOTH",
"907 1822 OFFCURVE",
"855 1870 OFFCURVE",
"774 1870 CURVE SMOOTH"
);
}
);
width = 1151;
}
);
unicode = 00DC;
},
{
glyphname = Ugrave;
lastChange = "2013-03-07 05:35:11 +0200";
layers = (
{
layerId = "72C2BD91-63AC-4E79-A4ED-224E2850FB61";
name = "Bold Condensed";
paths = (
{
closed = 1;
nodes = (
"758 1462 LINE",
"758 494 LINE SMOOTH",
"758 319 OFFCURVE",
"693 221 OFFCURVE",
"578 221 CURVE SMOOTH",
"455 221 OFFCURVE",
"393 314 OFFCURVE",
"393 500 CURVE SMOOTH",
"393 1462 LINE",
"123 1462 LINE",
"123 520 LINE SMOOTH",
"123 164 OFFCURVE",
"278 -20 OFFCURVE",
"569 -20 CURVE SMOOTH",
"866 -20 OFFCURVE",
"1028 168 OFFCURVE",
"1028 516 CURVE SMOOTH",
"1028 1462 LINE"
);
},
{
closed = 1;
nodes = (
"210 1907 LINE",
"210 1886 LINE",
"227 1855 OFFCURVE",
"270 1806 OFFCURVE",
"337 1739 CURVE SMOOTH",
"404 1672 OFFCURVE",
"463 1619 OFFCURVE",
"513 1579 CURVE",
"700 1579 LINE",
"700 1606 LINE",
"675 1639 OFFCURVE",
"644 1688 OFFCURVE",
"608 1751 CURVE SMOOTH",
"573 1815 OFFCURVE",
"546 1867 OFFCURVE",
"528 1907 CURVE"
);
}
);
width = 1151;
}
);
unicode = 00D9;
},
{
glyphname = V;
lastChange = "2013-03-07 05:35:10 +0200";
layers = (
{
layerId = "72C2BD91-63AC-4E79-A4ED-224E2850FB61";
name = "Bold Condensed";
paths = (
{
closed = 1;
nodes = (
"758 1462 LINE",
"569 569 LINE SMOOTH",
"548 472 OFFCURVE",
"530 363 OFFCURVE",
"516 242 CURVE",
"499 384 OFFCURVE",
"482 493 OFFCURVE",
"465 569 CURVE SMOOTH",
"274 1462 LINE",
"0 1462 LINE",
"342 0 LINE",
"688 0 LINE",
"1032 1462 LINE"
);
}
);
width = 1032;
}
);
unicode = 0056;
},
{
glyphname = W;
lastChange = "2013-03-07 05:35:10 +0200";
layers = (
{
layerId = "72C2BD91-63AC-4E79-A4ED-224E2850FB61";
name = "Bold Condensed";
paths = (
{
closed = 1;
nodes = (
"1335 1462 LINE",
"1208 637 LINE SMOOTH",
"1197 574 OFFCURVE",
"1180 443 OFFCURVE",
"1157 246 CURVE",
"1145 379 OFFCURVE",
"1129 508 OFFCURVE",
"1108 631 CURVE SMOOTH",
"952 1462 LINE",
"670 1462 LINE",
"514 631 LINE SMOOTH",
"499 554 OFFCURVE",
"484 427 OFFCURVE",
"467 248 CURVE",
"446 425 OFFCURVE",
"429 554 OFFCURVE",
"416 637 CURVE SMOOTH",
"285 1462 LINE",
"18 1462 LINE",
"283 0 LINE",
"623 0 LINE",
"762 762 LINE",
"803 1063 LINE",
"811 1137 LINE",
"820 993.999 OFFCURVE",
"836 871 OFFCURVE",
"858 766 CURVE SMOOTH",
"1001 0 LINE",
"1341 0 LINE",
"1604 1462 LINE"
);
}
);
width = 1622;
}
);
unicode = 0057;
},
{
glyphname = X;
lastChange = "2013-03-07 05:35:10 +0200";
layers = (
{
layerId = "72C2BD91-63AC-4E79-A4ED-224E2850FB61";
name = "Bold Condensed";
paths = (
{
closed = 1;
nodes = (
"659 1462 LINE",
"492 980.999 LINE",
"299 1462 LINE",
"25 1462 LINE",
"334 760 LINE",
"0 0 LINE",
"283 0 LINE",
"477 524 LINE",
"686 0 LINE",
"968.999 0 LINE",
"635 748 LINE",
"944 1462 LINE"
);
}
);
width = 968;
}
);
unicode = 0058;
},
{
glyphname = Y;
lastChange = "2013-03-07 05:35:10 +0200";
layers = (
{
layerId = "72C2BD91-63AC-4E79-A4ED-224E2850FB61";
name = "Bold Condensed";
paths = (
{
closed = 1;
nodes = (
"676 1462 LINE",
"481 885 LINE",
"287 1462 LINE",
"0 1462 LINE",
"346 575 LINE",
"346 0 LINE",
"614 0 LINE",
"614 586 LINE",
"961 1462 LINE"
);
}
);
width = 961;
}
);
unicode = 0059;
},
{
glyphname = Yacute;
lastChange = "2013-03-07 05:35:11 +0200";
layers = (
{
layerId = "72C2BD91-63AC-4E79-A4ED-224E2850FB61";
name = "Bold Condensed";
paths = (
{
closed = 1;
nodes = (
"676 1462 LINE",
"481 885 LINE",
"287 1462 LINE",
"0 1462 LINE",
"346 575 LINE",
"346 0 LINE",
"614 0 LINE",
"614 586 LINE",
"961 1462 LINE"
);
},
{
closed = 1;
nodes = (
"518 1907 LINE",
"503 1872 OFFCURVE",
"477 1822 OFFCURVE",
"441 1757 CURVE SMOOTH",
"405 1692 OFFCURVE",
"373 1641 OFFCURVE",
"346 1606 CURVE",
"346 1579 LINE",
"533 1579 LINE",
"592 1628 OFFCURVE",
"654 1684 OFFCURVE",
"717 1747 CURVE SMOOTH",
"780 1811 OFFCURVE",
"820 1857 OFFCURVE",
"836 1886 CURVE",
"836 1907 LINE"
);
}
);
width = 961;
}
);
unicode = 00DD;
},
{
glyphname = Ydieresis;
lastChange = "2013-03-07 05:35:11 +0200";
layers = (
{
layerId = "72C2BD91-63AC-4E79-A4ED-224E2850FB61";
name = "Bold Condensed";
paths = (
{
closed = 1;
nodes = (
"676 1462 LINE",
"481 885 LINE",
"287 1462 LINE",
"0 1462 LINE",
"346 575 LINE",
"346 0 LINE",
"614 0 LINE",
"614 586 LINE",
"961 1462 LINE"
);
},
{
closed = 1;
nodes = (
"199 1870 OFFCURVE",
"150 1822 OFFCURVE",
"150 1741 CURVE SMOOTH",
"150 1661 OFFCURVE",
"199 1614 OFFCURVE",
"282 1614 CURVE SMOOTH",
"365 1614 OFFCURVE",
"415 1665 OFFCURVE",
"415 1741 CURVE SMOOTH",
"415 1818 OFFCURVE",
"365 1870 OFFCURVE",
"282 1870 CURVE SMOOTH"
);
},
{
closed = 1;
nodes = (
"597 1870 OFFCURVE",
"548 1821 OFFCURVE",
"548 1741 CURVE SMOOTH",
"548 1664 OFFCURVE",
"598 1614 OFFCURVE",
"681 1614 CURVE SMOOTH",
"764 1614 OFFCURVE",
"814 1662 OFFCURVE",
"814 1741 CURVE SMOOTH",
"814 1822 OFFCURVE",
"762 1870 OFFCURVE",
"681 1870 CURVE SMOOTH"
);
}
);
width = 961;
}
);
unicode = 0178;
},
{
glyphname = Z;
lastChange = "2013-03-07 05:35:10 +0200";
layers = (
{
layerId = "72C2BD91-63AC-4E79-A4ED-224E2850FB61";
name = "Bold Condensed";
paths = (
{
closed = 1;
nodes = (
"57 1462 LINE",
"57 1225 LINE",
"510 1225 LINE",
"43 190 LINE",
"43 0 LINE",
"834 0 LINE",
"834 238 LINE",
"352 238 LINE",
"819 1272 LINE",
"819 1462 LINE"
);
}
);
width = 877;
}
);
unicode = 005A;
},
{
glyphname = Zcaron;
lastChange = "2013-03-07 05:35:11 +0200";
layers = (
{
layerId = "72C2BD91-63AC-4E79-A4ED-224E2850FB61";
name = "Bold Condensed";
paths = (
{
closed = 1;
nodes = (
"57 1462 LINE",
"57 1225 LINE",
"510 1225 LINE",
"43 190 LINE",
"43 0 LINE",
"834 0 LINE",
"834 238 LINE",
"352 238 LINE",
"819 1272 LINE",
"819 1462 LINE"
);
},
{
closed = 1;
nodes = (
"624 1907 LINE",
"563 1857 OFFCURVE",
"501 1798 OFFCURVE",
"439 1729 CURVE",
"376 1802 OFFCURVE",
"312 1861 OFFCURVE",
"249 1907 CURVE",
"81 1907 LINE",
"81 1880 LINE",
"196 1734 OFFCURVE",
"269 1634 OFFCURVE",
"298 1579 CURVE",
"575 1579 LINE",
"610 1641 OFFCURVE",
"682 1741 OFFCURVE",
"792 1880 CURVE",
"792 1907 LINE"
);
}
);
width = 877;
}
);
unicode = 017D;
},
{
glyphname = a;
lastChange = "2013-03-07 05:35:11 +0200";
layers = (
{
layerId = "72C2BD91-63AC-4E79-A4ED-224E2850FB61";
name = "Bold Condensed";
paths = (
{
closed = 1;
nodes = (
"362 1137 OFFCURVE",
"242 1102 OFFCURVE",
"131 1032 CURVE",
"223 848 LINE",
"310 900 OFFCURVE",
"386 926 OFFCURVE",
"453 926 CURVE SMOOTH",
"543 926 OFFCURVE",
"588 874 OFFCURVE",
"588 770 CURVE SMOOTH",
"588 690 LINE",
"440 684 LINE SMOOTH",
"184 672 OFFCURVE",
"55 563 OFFCURVE",
"55 328 CURVE SMOOTH",
"55 219 OFFCURVE",
"78 133 OFFCURVE",
"125 72 CURVE SMOOTH",
"172 11 OFFCURVE",
"237 -20 OFFCURVE",
"319 -20 CURVE SMOOTH",
"383 -20 OFFCURVE",
"436 -8 OFFCURVE",
"478 17 CURVE SMOOTH",
"520 42 OFFCURVE",
"561 87 OFFCURVE",
"600 152 CURVE",
"606 152 LINE",
"659 0 LINE",
"854 0 LINE",
"854 748 LINE SMOOTH",
"854 995.999 OFFCURVE",
"728 1137 OFFCURVE",
"492 1137 CURVE SMOOTH"
);
},
{
closed = 1;
nodes = (
"588 428 LINE SMOOTH",
"588 283 OFFCURVE",
"525 188 OFFCURVE",
"428 188 CURVE SMOOTH",
"363 188 OFFCURVE",
"330 234 OFFCURVE",
"330 326 CURVE SMOOTH",
"330 450 OFFCURVE",
"385 511 OFFCURVE",
"506 518 CURVE SMOOTH",
"588 522 LINE"
);
}
);
width = 956;
}
);
unicode = 0061;
},
{
glyphname = aacute;
lastChange = "2013-03-07 05:35:11 +0200";
layers = (
{
layerId = "72C2BD91-63AC-4E79-A4ED-224E2850FB61";
name = "Bold Condensed";
paths = (
{
closed = 1;
nodes = (
"362 1137 OFFCURVE",
"242 1102 OFFCURVE",
"131 1032 CURVE",
"223 848 LINE",
"310 900 OFFCURVE",
"386 926 OFFCURVE",
"453 926 CURVE SMOOTH",
"543 926 OFFCURVE",
"588 874 OFFCURVE",
"588 770 CURVE SMOOTH",
"588 690 LINE",
"440 684 LINE SMOOTH",
"184 672 OFFCURVE",
"55 563 OFFCURVE",
"55 328 CURVE SMOOTH",
"55 219 OFFCURVE",
"78 133 OFFCURVE",
"125 72 CURVE SMOOTH",
"172 11 OFFCURVE",
"237 -20 OFFCURVE",
"319 -20 CURVE SMOOTH",
"383 -20 OFFCURVE",
"436 -8 OFFCURVE",
"478 17 CURVE SMOOTH",
"520 42 OFFCURVE",
"561 87 OFFCURVE",
"600 152 CURVE",
"606 152 LINE",
"659 0 LINE",
"854 0 LINE",
"854 748 LINE SMOOTH",
"854 995.999 OFFCURVE",
"728 1137 OFFCURVE",
"492 1137 CURVE SMOOTH"
);
},
{
closed = 1;
nodes = (
"588 428 LINE SMOOTH",
"588 283 OFFCURVE",
"525 188 OFFCURVE",
"428 188 CURVE SMOOTH",
"363 188 OFFCURVE",
"330 234 OFFCURVE",
"330 326 CURVE SMOOTH",
"330 450 OFFCURVE",
"385 511 OFFCURVE",
"506 518 CURVE SMOOTH",
"588 522 LINE"
);
},
{
closed = 1;
nodes = (
"534 1569 LINE",
"519 1534 OFFCURVE",
"493 1484 OFFCURVE",
"457 1419 CURVE SMOOTH",
"421 1354 OFFCURVE",
"389 1303 OFFCURVE",
"362 1268 CURVE",
"362 1241 LINE",
"549 1241 LINE",
"608 1290 OFFCURVE",
"670 1346 OFFCURVE",
"733 1409 CURVE SMOOTH",
"796 1473 OFFCURVE",
"836 1519 OFFCURVE",
"852 1548 CURVE",
"852 1569 LINE"
);
}
);
width = 956;
}
);
unicode = 00E1;
},
{
glyphname = acircumflex;
lastChange = "2013-03-07 05:35:11 +0200";
layers = (
{
layerId = "72C2BD91-63AC-4E79-A4ED-224E2850FB61";
name = "Bold Condensed";
paths = (
{
closed = 1;
nodes = (
"362 1137 OFFCURVE",
"242 1102 OFFCURVE",
"131 1032 CURVE",
"223 848 LINE",
"310 900 OFFCURVE",
"386 926 OFFCURVE",
"453 926 CURVE SMOOTH",
"543 926 OFFCURVE",
"588 874 OFFCURVE",
"588 770 CURVE SMOOTH",
"588 690 LINE",
"440 684 LINE SMOOTH",
"184 672 OFFCURVE",
"55 563 OFFCURVE",
"55 328 CURVE SMOOTH",
"55 219 OFFCURVE",
"78 133 OFFCURVE",
"125 72 CURVE SMOOTH",
"172 11 OFFCURVE",
"237 -20 OFFCURVE",
"319 -20 CURVE SMOOTH",
"383 -20 OFFCURVE",
"436 -8 OFFCURVE",
"478 17 CURVE SMOOTH",
"520 42 OFFCURVE",
"561 87 OFFCURVE",
"600 152 CURVE",
"606 152 LINE",
"659 0 LINE",
"854 0 LINE",
"854 748 LINE SMOOTH",
"854 995.999 OFFCURVE",
"728 1137 OFFCURVE",
"492 1137 CURVE SMOOTH"
);
},
{
closed = 1;
nodes = (
"588 428 LINE SMOOTH",
"588 283 OFFCURVE",
"525 188 OFFCURVE",
"428 188 CURVE SMOOTH",
"363 188 OFFCURVE",
"330 234 OFFCURVE",
"330 326 CURVE SMOOTH",
"330 450 OFFCURVE",
"385 511 OFFCURVE",
"506 518 CURVE SMOOTH",
"588 522 LINE"
);
},
{
closed = 1;
nodes = (
"357 1568 LINE",
"330 1516 OFFCURVE",
"258 1416 OFFCURVE",
"140 1267 CURVE",
"140 1240 LINE",
"308 1240 LINE",
"373 1292 OFFCURVE",
"435 1351 OFFCURVE",
"494 1418 CURVE",
"556 1347 OFFCURVE",
"619 1288 OFFCURVE",
"683 1240 CURVE",
"851 1240 LINE",
"851 1267 LINE",
"738 1410 OFFCURVE",
"665 1510 OFFCURVE",
"634 1568 CURVE"
);
}
);
width = 956;
}
);
unicode = 00E2;
},
{
glyphname = adieresis;
lastChange = "2013-03-07 05:35:11 +0200";
layers = (
{
layerId = "72C2BD91-63AC-4E79-A4ED-224E2850FB61";
name = "Bold Condensed";
paths = (
{
closed = 1;
nodes = (
"362 1137 OFFCURVE",
"242 1102 OFFCURVE",
"131 1032 CURVE",
"223 848 LINE",
"310 900 OFFCURVE",
"386 926 OFFCURVE",
"453 926 CURVE SMOOTH",
"543 926 OFFCURVE",
"588 874 OFFCURVE",
"588 770 CURVE SMOOTH",
"588 690 LINE",
"440 684 LINE SMOOTH",
"184 672 OFFCURVE",
"55 563 OFFCURVE",
"55 328 CURVE SMOOTH",
"55 219 OFFCURVE",
"78 133 OFFCURVE",
"125 72 CURVE SMOOTH",
"172 11 OFFCURVE",
"237 -20 OFFCURVE",
"319 -20 CURVE SMOOTH",
"383 -20 OFFCURVE",
"436 -8 OFFCURVE",
"478 17 CURVE SMOOTH",
"520 42 OFFCURVE",
"561 87 OFFCURVE",
"600 152 CURVE",
"606 152 LINE",
"659 0 LINE",
"854 0 LINE",
"854 748 LINE SMOOTH",
"854 995.999 OFFCURVE",
"728 1137 OFFCURVE",
"492 1137 CURVE SMOOTH"
);
},
{
closed = 1;
nodes = (
"588 428 LINE SMOOTH",
"588 283 OFFCURVE",
"525 188 OFFCURVE",
"428 188 CURVE SMOOTH",
"363 188 OFFCURVE",
"330 234 OFFCURVE",
"330 326 CURVE SMOOTH",
"330 450 OFFCURVE",
"385 511 OFFCURVE",
"506 518 CURVE SMOOTH",
"588 522 LINE"
);
},
{
closed = 1;
nodes = (
"213 1532 OFFCURVE",
"164 1484 OFFCURVE",
"164 1403 CURVE SMOOTH",
"164 1323 OFFCURVE",
"213 1276 OFFCURVE",
"296 1276 CURVE SMOOTH",
"379 1276 OFFCURVE",
"429 1327 OFFCURVE",
"429 1403 CURVE SMOOTH",
"429 1480 OFFCURVE",
"379 1532 OFFCURVE",
"296 1532 CURVE SMOOTH"
);
},
{
closed = 1;
nodes = (
"611 1532 OFFCURVE",
"562 1483 OFFCURVE",
"562 1403 CURVE SMOOTH",
"562 1326 OFFCURVE",
"612 1276 OFFCURVE",
"695 1276 CURVE SMOOTH",
"778 1276 OFFCURVE",
"828 1324 OFFCURVE",
"828 1403 CURVE SMOOTH",
"828 1484 OFFCURVE",
"776 1532 OFFCURVE",
"695 1532 CURVE SMOOTH"
);
}
);
width = 956;
}
);
unicode = 00E4;
},
{
glyphname = agrave;
lastChange = "2013-03-07 05:35:11 +0200";
layers = (
{
layerId = "72C2BD91-63AC-4E79-A4ED-224E2850FB61";
name = "Bold Condensed";
paths = (
{
closed = 1;
nodes = (
"362 1137 OFFCURVE",
"242 1102 OFFCURVE",
"131 1032 CURVE",
"223 848 LINE",
"310 900 OFFCURVE",
"386 926 OFFCURVE",
"453 926 CURVE SMOOTH",
"543 926 OFFCURVE",
"588 874 OFFCURVE",
"588 770 CURVE SMOOTH",
"588 690 LINE",
"440 684 LINE SMOOTH",
"184 672 OFFCURVE",
"55 563 OFFCURVE",
"55 328 CURVE SMOOTH",
"55 219 OFFCURVE",
"78 133 OFFCURVE",
"125 72 CURVE SMOOTH",
"172 11 OFFCURVE",
"237 -20 OFFCURVE",
"319 -20 CURVE SMOOTH",
"383 -20 OFFCURVE",
"436 -8 OFFCURVE",
"478 17 CURVE SMOOTH",
"520 42 OFFCURVE",
"561 87 OFFCURVE",
"600 152 CURVE",
"606 152 LINE",
"659 0 LINE",
"854 0 LINE",
"854 748 LINE SMOOTH",
"854 995.999 OFFCURVE",
"728 1137 OFFCURVE",
"492 1137 CURVE SMOOTH"
);
},
{
closed = 1;
nodes = (
"588 428 LINE SMOOTH",
"588 283 OFFCURVE",
"525 188 OFFCURVE",
"428 188 CURVE SMOOTH",
"363 188 OFFCURVE",
"330 234 OFFCURVE",
"330 326 CURVE SMOOTH",
"330 450 OFFCURVE",
"385 511 OFFCURVE",
"506 518 CURVE SMOOTH",
"588 522 LINE"
);
},
{
closed = 1;
nodes = (
"146 1569 LINE",
"146 1548 LINE",
"163 1517 OFFCURVE",
"206 1468 OFFCURVE",
"273 1401 CURVE SMOOTH",
"340 1334 OFFCURVE",
"399 1281 OFFCURVE",
"449 1241 CURVE",
"636 1241 LINE",
"636 1268 LINE",
"611 1301 OFFCURVE",
"580 1350 OFFCURVE",
"544 1413 CURVE SMOOTH",
"509 1477 OFFCURVE",
"482 1529 OFFCURVE",
"464 1569 CURVE"
);
}
);
width = 956;
}
);
unicode = 00E0;
},
{
glyphname = aring;
lastChange = "2013-03-07 05:35:11 +0200";
layers = (
{
layerId = "72C2BD91-63AC-4E79-A4ED-224E2850FB61";
name = "Bold Condensed";
paths = (
{
closed = 1;
nodes = (
"362 1137 OFFCURVE",
"242 1102 OFFCURVE",
"131 1032 CURVE",
"223 848 LINE",
"310 900 OFFCURVE",
"386 926 OFFCURVE",
"453 926 CURVE SMOOTH",
"543 926 OFFCURVE",
"588 874 OFFCURVE",
"588 770 CURVE SMOOTH",
"588 690 LINE",
"440 684 LINE SMOOTH",
"184 672 OFFCURVE",
"55 563 OFFCURVE",
"55 328 CURVE SMOOTH",
"55 219 OFFCURVE",
"78 133 OFFCURVE",
"125 72 CURVE SMOOTH",
"172 11 OFFCURVE",
"237 -20 OFFCURVE",
"319 -20 CURVE SMOOTH",
"383 -20 OFFCURVE",
"436 -8 OFFCURVE",
"478 17 CURVE SMOOTH",
"520 42 OFFCURVE",
"561 87 OFFCURVE",
"600 152 CURVE",
"606 152 LINE",
"659 0 LINE",
"854 0 LINE",
"854 748 LINE SMOOTH",
"854 995.999 OFFCURVE",
"728 1137 OFFCURVE",
"492 1137 CURVE SMOOTH"
);
},
{
closed = 1;
nodes = (
"588 428 LINE SMOOTH",
"588 283 OFFCURVE",
"525 188 OFFCURVE",
"428 188 CURVE SMOOTH",
"363 188 OFFCURVE",
"330 234 OFFCURVE",
"330 326 CURVE SMOOTH",
"330 450 OFFCURVE",
"385 511 OFFCURVE",
"506 518 CURVE SMOOTH",
"588 522 LINE"
);
},
{
closed = 1;
nodes = (
"550 1573 OFFCURVE",
"593 1534 OFFCURVE",
"593 1473 CURVE SMOOTH",
"593 1410 OFFCURVE",
"550 1372 OFFCURVE",
"493 1372 CURVE SMOOTH",
"426 1372 OFFCURVE",
"393 1410 OFFCURVE",
"393 1473 CURVE SMOOTH",
"393 1534 OFFCURVE",
"436 1573 OFFCURVE",
"493 1573 CURVE SMOOTH"
);
},
{
closed = 1;
nodes = (
"420 1706 OFFCURVE",
"361 1685 OFFCURVE",
"316 1643 CURVE SMOOTH",
"271 1602 OFFCURVE",
"249 1545 OFFCURVE",
"249 1473 CURVE SMOOTH",
"249 1400 OFFCURVE",
"271 1343 OFFCURVE",
"316 1301 CURVE SMOOTH",
"361 1260 OFFCURVE",
"420 1239 OFFCURVE",
"493 1239 CURVE SMOOTH",
"567 1239 OFFCURVE",
"627 1260 OFFCURVE",
"673 1303 CURVE SMOOTH",
"720 1346 OFFCURVE",
"743 1404 OFFCURVE",
"743 1475 CURVE SMOOTH",
"743 1544 OFFCURVE",
"719 1599 OFFCURVE",
"672 1642 CURVE SMOOTH",
"625 1685 OFFCURVE",
"566 1706 OFFCURVE",
"493 1706 CURVE SMOOTH"
);
}
);
width = 956;
}
);
unicode = 00E5;
},
{
glyphname = atilde;
lastChange = "2013-03-07 05:35:11 +0200";
layers = (
{
layerId = "72C2BD91-63AC-4E79-A4ED-224E2850FB61";
name = "Bold Condensed";
paths = (
{
closed = 1;
nodes = (
"362 1137 OFFCURVE",
"242 1102 OFFCURVE",
"131 1032 CURVE",
"223 848 LINE",
"310 900 OFFCURVE",
"386 926 OFFCURVE",
"453 926 CURVE SMOOTH",
"543 926 OFFCURVE",
"588 874 OFFCURVE",
"588 770 CURVE SMOOTH",
"588 690 LINE",
"440 684 LINE SMOOTH",
"184 672 OFFCURVE",
"55 563 OFFCURVE",
"55 328 CURVE SMOOTH",
"55 219 OFFCURVE",
"78 133 OFFCURVE",
"125 72 CURVE SMOOTH",
"172 11 OFFCURVE",
"237 -20 OFFCURVE",
"319 -20 CURVE SMOOTH",
"383 -20 OFFCURVE",
"436 -8 OFFCURVE",
"478 17 CURVE SMOOTH",
"520 42 OFFCURVE",
"561 87 OFFCURVE",
"600 152 CURVE",
"606 152 LINE",
"659 0 LINE",
"854 0 LINE",
"854 748 LINE SMOOTH",
"854 995.999 OFFCURVE",
"728 1137 OFFCURVE",
"492 1137 CURVE SMOOTH"
);
},
{
closed = 1;
nodes = (
"588 428 LINE SMOOTH",
"588 283 OFFCURVE",
"525 188 OFFCURVE",
"428 188 CURVE SMOOTH",
"363 188 OFFCURVE",
"330 234 OFFCURVE",
"330 326 CURVE SMOOTH",
"330 450 OFFCURVE",
"385 511 OFFCURVE",
"506 518 CURVE SMOOTH",
"588 522 LINE"
);
},
{
closed = 1;
nodes = (
"714 1542 LINE",
"699 1467 OFFCURVE",
"683 1434 OFFCURVE",
"638 1434 CURVE SMOOTH",
"558 1434 OFFCURVE",
"495 1540 OFFCURVE",
"380 1540 CURVE SMOOTH",
"256 1540 OFFCURVE",
"176 1443 OFFCURVE",
"161 1239 CURVE",
"302 1239 LINE",
"315 1322 OFFCURVE",
"339 1348 OFFCURVE",
"380 1348 CURVE SMOOTH",
"459 1348 OFFCURVE",
"518 1241 OFFCURVE",
"636 1241 CURVE SMOOTH",
"757 1241 OFFCURVE",
"840 1339 OFFCURVE",
"855 1542 CURVE"
);
}
);
width = 956;
}
);
unicode = 00E3;
},
{
glyphname = ae;
lastChange = "2013-03-07 05:35:11 +0200";
layers = (
{
layerId = "72C2BD91-63AC-4E79-A4ED-224E2850FB61";
name = "Bold Condensed";
paths = (
{
closed = 1;
nodes = (
"362 1137 OFFCURVE",
"242 1102 OFFCURVE",
"131 1032 CURVE",
"223 848 LINE",
"310 900 OFFCURVE",
"386 926 OFFCURVE",
"453 926 CURVE SMOOTH",
"543 926 OFFCURVE",
"588 873 OFFCURVE",
"588 768 CURVE SMOOTH",
"588 690 LINE",
"440 684 LINE SMOOTH",
"184 672 OFFCURVE",
"55 563 OFFCURVE",
"55 328 CURVE SMOOTH",
"55 99.9999 OFFCURVE",
"166 -20 OFFCURVE",
"371 -20 CURVE SMOOTH",
"511 -20 OFFCURVE",
"608 36 OFFCURVE",
"684 160 CURVE",
"759 40 OFFCURVE",
"874 -20 OFFCURVE",
"1028 -20 CURVE SMOOTH",
"1148 -20 OFFCURVE",
"1250 6 OFFCURVE",
"1335 57 CURVE",
"1335 276 LINE",
"1248 222 OFFCURVE",
"1159 195 OFFCURVE",
"1069 195 CURVE SMOOTH",
"933 195 OFFCURVE",
"852 290 OFFCURVE",
"848 489 CURVE",
"1382 489 LINE",
"1382 631 LINE SMOOTH",
"1382 788 OFFCURVE",
"1347 912 OFFCURVE",
"1278 1001 CURVE SMOOTH",
"1209 1090 OFFCURVE",
"1114 1135 OFFCURVE",
"990.999 1135 CURVE SMOOTH",
"896 1135 OFFCURVE",
"816 1105 OFFCURVE",
"750 1044 CURVE",
"688 1106 OFFCURVE",
"602 1137 OFFCURVE",
"492 1137 CURVE SMOOTH"
);
},
{
closed = 1;
nodes = (
"588 428 LINE SMOOTH",
"588 283 OFFCURVE",
"525 188 OFFCURVE",
"428 188 CURVE SMOOTH",
"363 188 OFFCURVE",
"330 234 OFFCURVE",
"330 326 CURVE SMOOTH",
"330 450 OFFCURVE",
"385 511 OFFCURVE",
"506 518 CURVE SMOOTH",
"588 522 LINE"
);
},
{
closed = 1;
nodes = (
"1072 930 OFFCURVE",
"1121 845 OFFCURVE",
"1124 682 CURVE",
"854 682 LINE",
"862 847 OFFCURVE",
"908 930 OFFCURVE",
"990.999 930 CURVE SMOOTH"
);
}
);
width = 1446;
}
);
unicode = 00E6;
},
{
glyphname = b;
lastChange = "2013-03-07 05:35:11 +0200";
layers = (
{
layerId = "72C2BD91-63AC-4E79-A4ED-224E2850FB61";
name = "Bold Condensed";
paths = (
{
closed = 1;
nodes = (
"113 1556 LINE",
"113 0 LINE",
"309 0 LINE",
"354 127 LINE",
"371 127 LINE",
"439 18 OFFCURVE",
"512 -20 OFFCURVE",
"612 -20 CURVE SMOOTH",
"715 -20 OFFCURVE",
"796 30 OFFCURVE",
"854 131 CURVE SMOOTH",
"913 232 OFFCURVE",
"942 374 OFFCURVE",
"942 559 CURVE SMOOTH",
"942 742 OFFCURVE",
"913 883 OFFCURVE",
"855 983.999 CURVE SMOOTH",
"797 1085 OFFCURVE",
"717 1135 OFFCURVE",
"616 1135 CURVE SMOOTH",
"517 1135 OFFCURVE",
"444 1092 OFFCURVE",
"379 968.999 CURVE",
"365 968.999 LINE",
"373 1069 OFFCURVE",
"377 1127 OFFCURVE",
"378 1144 CURVE SMOOTH",
"379 1161 OFFCURVE",
"379 1177 OFFCURVE",
"379 1192 CURVE SMOOTH",
"379 1556 LINE"
);
},
{
closed = 1;
nodes = (
"621 909 OFFCURVE",
"670 794 OFFCURVE",
"670 563 CURVE SMOOTH",
"670 327 OFFCURVE",
"622 209 OFFCURVE",
"526 209 CURVE SMOOTH",
"474 209 OFFCURVE",
"436 235 OFFCURVE",
"413 288 CURVE SMOOTH",
"390 341 OFFCURVE",
"379 432 OFFCURVE",
"379 561 CURVE SMOOTH",
"379 588 LINE SMOOTH",
"380 707 OFFCURVE",
"392 791 OFFCURVE",
"414 838 CURVE SMOOTH",
"437 885 OFFCURVE",
"473 909 OFFCURVE",
"524 909 CURVE SMOOTH"
);
}
);
width = 1016;
}
);
unicode = 0062;
},
{
glyphname = c;
lastChange = "2013-03-07 05:35:10 +0200";
layers = (
{
layerId = "72C2BD91-63AC-4E79-A4ED-224E2850FB61";
name = "Bold Condensed";
paths = (
{
closed = 1;
nodes = (
"202 1135 OFFCURVE",
"74 943 OFFCURVE",
"74 551 CURVE SMOOTH",
"74 176 OFFCURVE",
"216 -20 OFFCURVE",
"481 -20 CURVE SMOOTH",
"566 -20 OFFCURVE",
"643 2 OFFCURVE",
"713 45 CURVE",
"713 279 LINE",
"640 232 OFFCURVE",
"571 209 OFFCURVE",
"504 209 CURVE SMOOTH",
"392 209 OFFCURVE",
"346 322 OFFCURVE",
"346 553 CURVE SMOOTH",
"346 789 OFFCURVE",
"393 907 OFFCURVE",
"506 907 CURVE SMOOTH",
"549 907 OFFCURVE",
"598 891 OFFCURVE",
"653 858 CURVE",
"729 1065 LINE",
"657 1110 OFFCURVE",
"560 1135 OFFCURVE",
"477 1135 CURVE SMOOTH"
);
}
);
width = 760;
}
);
unicode = 0063;
},
{
glyphname = ccedilla;
lastChange = "2013-03-07 05:35:11 +0200";
layers = (
{
layerId = "72C2BD91-63AC-4E79-A4ED-224E2850FB61";
name = "Bold Condensed";
paths = (
{
closed = 1;
nodes = (
"202 1135 OFFCURVE",
"74 943 OFFCURVE",
"74 551 CURVE SMOOTH",
"74 176 OFFCURVE",
"216 -20 OFFCURVE",
"481 -20 CURVE SMOOTH",
"566 -20 OFFCURVE",
"643 2 OFFCURVE",
"713 45 CURVE",
"713 279 LINE",
"640 232 OFFCURVE",
"571 209 OFFCURVE",
"504 209 CURVE SMOOTH",
"392 209 OFFCURVE",
"346 322 OFFCURVE",
"346 553 CURVE SMOOTH",
"346 789 OFFCURVE",
"393 907 OFFCURVE",
"506 907 CURVE SMOOTH",
"549 907 OFFCURVE",
"598 891 OFFCURVE",
"653 858 CURVE",
"729 1065 LINE",
"657 1110 OFFCURVE",
"560 1135 OFFCURVE",
"477 1135 CURVE SMOOTH"
);
},
{
closed = 1;
nodes = (
"352 0 LINE",
"273 -158 LINE",
"378 -175 OFFCURVE",
"430 -212 OFFCURVE",
"430 -268 CURVE SMOOTH",
"430 -312 OFFCURVE",
"401 -334 OFFCURVE",
"342 -334 CURVE SMOOTH",
"302 -334 OFFCURVE",
"262 -328 OFFCURVE",
"221 -317 CURVE",
"221 -471 LINE",
"260 -485 OFFCURVE",
"303 -492 OFFCURVE",
"352 -492 CURVE SMOOTH",
"551 -492 OFFCURVE",
"643 -403 OFFCURVE",
"643 -260 CURVE SMOOTH",
"643 -160 OFFCURVE",
"579 -99 OFFCURVE",
"488 -76 CURVE",
"525 0 LINE"
);
}
);
width = 760;
}
);
unicode = 00E7;
},
{
glyphname = d;
lastChange = "2013-03-07 05:35:11 +0200";
layers = (
{
layerId = "72C2BD91-63AC-4E79-A4ED-224E2850FB61";
name = "Bold Condensed";
paths = (
{
closed = 1;
nodes = (
"639 1556 LINE",
"639 1184 LINE SMOOTH",
"639 1143 OFFCURVE",
"643 1072 OFFCURVE",
"651 970.999 CURVE",
"635 970.999 LINE",
"572 1090 OFFCURVE",
"502 1135 OFFCURVE",
"401 1135 CURVE SMOOTH",
"299 1135 OFFCURVE",
"219 1084 OFFCURVE",
"161 980.999 CURVE SMOOTH",
"103 878 OFFCURVE",
"74 736 OFFCURVE",
"74 555 CURVE SMOOTH",
"74 374 OFFCURVE",
"104 233 OFFCURVE",
"163 132 CURVE SMOOTH",
"222 31 OFFCURVE",
"303 -20 OFFCURVE",
"406 -20 CURVE SMOOTH",
"514 -20 OFFCURVE",
"596 35 OFFCURVE",
"653 145 CURVE",
"662 145 LINE",
"707 0 LINE",
"905 0 LINE",
"905 1556 LINE"
);
},
{
closed = 1;
nodes = (
"542 905 OFFCURVE",
"579 879 OFFCURVE",
"602 826 CURVE SMOOTH",
"625 773 OFFCURVE",
"637 682 OFFCURVE",
"637 553 CURVE SMOOTH",
"637 518 LINE SMOOTH",
"635 399 OFFCURVE",
"623 317 OFFCURVE",
"600 272 CURVE SMOOTH",
"577 227 OFFCURVE",
"541 205 OFFCURVE",
"492 205 CURVE SMOOTH",
"391 205 OFFCURVE",
"348 320 OFFCURVE",
"348 551 CURVE SMOOTH",
"348 782 OFFCURVE",
"390 905 OFFCURVE",
"489 905 CURVE SMOOTH"
);
}
);
width = 1016;
}
);
unicode = 0064;
},
{
glyphname = eth;
lastChange = "2013-03-07 05:35:11 +0200";
layers = (
{
layerId = "72C2BD91-63AC-4E79-A4ED-224E2850FB61";
name = "Bold Condensed";
paths = (
{
closed = 1;
nodes = (
"217 1413 LINE",
"287 1374 OFFCURVE",
"338 1342 OFFCURVE",
"371 1317 CURVE",
"178 1194 LINE",
"274 1049 LINE",
"494 1194 LINE",
"583 1101 OFFCURVE",
"644 995.999 OFFCURVE",
"676 877 CURVE",
"664 874 LINE",
"608 952 OFFCURVE",
"540 990.999 OFFCURVE",
"459 990.999 CURVE SMOOTH",
"336 990.999 OFFCURVE",
"241 946 OFFCURVE",
"174 857 CURVE SMOOTH",
"107 768 OFFCURVE",
"74 643 OFFCURVE",
"74 483 CURVE SMOOTH",
"74 328 OFFCURVE",
"112 206 OFFCURVE",
"189 115 CURVE SMOOTH",
"266 25 OFFCURVE",
"370 -20 OFFCURVE",
"502 -20 CURVE SMOOTH",
"640 -20 OFFCURVE",
"747 32 OFFCURVE",
"823 137 CURVE SMOOTH",
"900 242 OFFCURVE",
"938 386 OFFCURVE",
"938 569 CURVE SMOOTH",
"938 881 OFFCURVE",
"856 1125 OFFCURVE",
"676 1313 CURVE",
"846 1423 LINE",
"752 1567 LINE",
"545 1427 LINE",
"488 1472 OFFCURVE",
"410 1520 OFFCURVE",
"311 1571 CURVE"
);
},
{
closed = 1;
nodes = (
"605 780 OFFCURVE",
"666 685 OFFCURVE",
"666 530 CURVE SMOOTH",
"666 315 OFFCURVE",
"621 207 OFFCURVE",
"508 207 CURVE SMOOTH",
"403 207 OFFCURVE",
"346 306 OFFCURVE",
"346 483 CURVE SMOOTH",
"346 682 OFFCURVE",
"393 780 OFFCURVE",
"510 780 CURVE SMOOTH"
);
}
);
width = 1012;
}
);
unicode = 00F0;
},
{
glyphname = e;
lastChange = "2013-03-07 05:35:11 +0200";
layers = (
{
layerId = "72C2BD91-63AC-4E79-A4ED-224E2850FB61";
name = "Bold Condensed";
paths = (
{
closed = 1;
nodes = (
"357 1135 OFFCURVE",
"256 1083 OFFCURVE",
"183 979.999 CURVE SMOOTH",
"110 877 OFFCURVE",
"74 733 OFFCURVE",
"74 549 CURVE SMOOTH",
"74 368 OFFCURVE",
"114 227 OFFCURVE",
"194 128 CURVE SMOOTH",
"275 29 OFFCURVE",
"385 -20 OFFCURVE",
"524 -20 CURVE SMOOTH",
"643 -20 OFFCURVE",
"746 6 OFFCURVE",
"831 57 CURVE",
"831 276 LINE",
"740 222 OFFCURVE",
"652 195 OFFCURVE",
"565 195 CURVE SMOOTH",
"429 195 OFFCURVE",
"348 290 OFFCURVE",
"344 489 CURVE",
"879 489 LINE",
"879 631 LINE SMOOTH",
"879 790 OFFCURVE",
"844 914 OFFCURVE",
"774 1002 CURVE SMOOTH",
"704 1091 OFFCURVE",
"608 1135 OFFCURVE",
"487 1135 CURVE SMOOTH"
);
},
{
closed = 1;
nodes = (
"566 930 OFFCURVE",
"615 845 OFFCURVE",
"618 682 CURVE",
"348 682 LINE",
"356 851 OFFCURVE",
"409 930 OFFCURVE",
"485 930 CURVE SMOOTH"
);
}
);
width = 942;
}
);
unicode = 0065;
},
{
glyphname = eacute;
lastChange = "2013-03-07 05:35:11 +0200";
layers = (
{
layerId = "72C2BD91-63AC-4E79-A4ED-224E2850FB61";
name = "Bold Condensed";
paths = (
{
closed = 1;
nodes = (
"357 1135 OFFCURVE",
"256 1083 OFFCURVE",
"183 979.999 CURVE SMOOTH",
"110 877 OFFCURVE",
"74 733 OFFCURVE",
"74 549 CURVE SMOOTH",
"74 368 OFFCURVE",
"114 227 OFFCURVE",
"194 128 CURVE SMOOTH",
"275 29 OFFCURVE",
"385 -20 OFFCURVE",
"524 -20 CURVE SMOOTH",
"643 -20 OFFCURVE",
"746 6 OFFCURVE",
"831 57 CURVE",
"831 276 LINE",
"740 222 OFFCURVE",
"652 195 OFFCURVE",
"565 195 CURVE SMOOTH",
"429 195 OFFCURVE",
"348 290 OFFCURVE",
"344 489 CURVE",
"879 489 LINE",
"879 631 LINE SMOOTH",
"879 790 OFFCURVE",
"844 914 OFFCURVE",
"774 1002 CURVE SMOOTH",
"704 1091 OFFCURVE",
"608 1135 OFFCURVE",
"487 1135 CURVE SMOOTH"
);
},
{
closed = 1;
nodes = (
"566 930 OFFCURVE",
"615 845 OFFCURVE",
"618 682 CURVE",
"348 682 LINE",
"356 851 OFFCURVE",
"409 930 OFFCURVE",
"485 930 CURVE SMOOTH"
);
},
{
closed = 1;
nodes = (
"520 1569 LINE",
"505 1534 OFFCURVE",
"479 1484 OFFCURVE",
"443 1419 CURVE SMOOTH",
"407 1354 OFFCURVE",
"375 1303 OFFCURVE",
"348 1268 CURVE",
"348 1241 LINE",
"535 1241 LINE",
"594 1290 OFFCURVE",
"656 1346 OFFCURVE",
"719 1409 CURVE SMOOTH",
"782 1473 OFFCURVE",
"822 1519 OFFCURVE",
"838 1548 CURVE",
"838 1569 LINE"
);
}
);
width = 942;
}
);
unicode = 00E9;
},
{
glyphname = ecircumflex;
lastChange = "2013-03-07 05:35:11 +0200";
layers = (
{
layerId = "72C2BD91-63AC-4E79-A4ED-224E2850FB61";
name = "Bold Condensed";
paths = (
{
closed = 1;
nodes = (
"357 1135 OFFCURVE",
"256 1083 OFFCURVE",
"183 979.999 CURVE SMOOTH",
"110 877 OFFCURVE",
"74 733 OFFCURVE",
"74 549 CURVE SMOOTH",
"74 368 OFFCURVE",
"114 227 OFFCURVE",
"194 128 CURVE SMOOTH",
"275 29 OFFCURVE",
"385 -20 OFFCURVE",
"524 -20 CURVE SMOOTH",
"643 -20 OFFCURVE",
"746 6 OFFCURVE",
"831 57 CURVE",
"831 276 LINE",
"740 222 OFFCURVE",
"652 195 OFFCURVE",
"565 195 CURVE SMOOTH",
"429 195 OFFCURVE",
"348 290 OFFCURVE",
"344 489 CURVE",
"879 489 LINE",
"879 631 LINE SMOOTH",
"879 790 OFFCURVE",
"844 914 OFFCURVE",
"774 1002 CURVE SMOOTH",
"704 1091 OFFCURVE",
"608 1135 OFFCURVE",
"487 1135 CURVE SMOOTH"
);
},
{
closed = 1;
nodes = (
"566 930 OFFCURVE",
"615 845 OFFCURVE",
"618 682 CURVE",
"348 682 LINE",
"356 851 OFFCURVE",
"409 930 OFFCURVE",
"485 930 CURVE SMOOTH"
);
},
{
closed = 1;
nodes = (
"349 1569 LINE",
"322 1517 OFFCURVE",
"250 1417 OFFCURVE",
"132 1268 CURVE",
"132 1241 LINE",
"300 1241 LINE",
"365 1293 OFFCURVE",
"427 1352 OFFCURVE",
"486 1419 CURVE",
"548 1348 OFFCURVE",
"611 1289 OFFCURVE",
"675 1241 CURVE",
"843 1241 LINE",
"843 1268 LINE",
"730 1411 OFFCURVE",
"657 1511 OFFCURVE",
"626 1569 CURVE"
);
}
);
width = 942;
}
);
unicode = 00EA;
},
{
glyphname = edieresis;
lastChange = "2013-03-07 05:35:11 +0200";
layers = (
{
layerId = "72C2BD91-63AC-4E79-A4ED-224E2850FB61";
name = "Bold Condensed";
paths = (
{
closed = 1;
nodes = (
"357 1135 OFFCURVE",
"256 1083 OFFCURVE",
"183 979.999 CURVE SMOOTH",
"110 877 OFFCURVE",
"74 733 OFFCURVE",
"74 549 CURVE SMOOTH",
"74 368 OFFCURVE",
"114 227 OFFCURVE",
"194 128 CURVE SMOOTH",
"275 29 OFFCURVE",
"385 -20 OFFCURVE",
"524 -20 CURVE SMOOTH",
"643 -20 OFFCURVE",
"746 6 OFFCURVE",
"831 57 CURVE",
"831 276 LINE",
"740 222 OFFCURVE",
"652 195 OFFCURVE",
"565 195 CURVE SMOOTH",
"429 195 OFFCURVE",
"348 290 OFFCURVE",
"344 489 CURVE",
"879 489 LINE",
"879 631 LINE SMOOTH",
"879 790 OFFCURVE",
"844 914 OFFCURVE",
"774 1002 CURVE SMOOTH",
"704 1091 OFFCURVE",
"608 1135 OFFCURVE",
"487 1135 CURVE SMOOTH"
);
},
{
closed = 1;
nodes = (
"566 930 OFFCURVE",
"615 845 OFFCURVE",
"618 682 CURVE",
"348 682 LINE",
"356 851 OFFCURVE",
"409 930 OFFCURVE",
"485 930 CURVE SMOOTH"
);
},
{
closed = 1;
nodes = (
"205 1532 OFFCURVE",
"156 1484 OFFCURVE",
"156 1403 CURVE SMOOTH",
"156 1323 OFFCURVE",
"205 1276 OFFCURVE",
"288 1276 CURVE SMOOTH",
"371 1276 OFFCURVE",
"421 1327 OFFCURVE",
"421 1403 CURVE SMOOTH",
"421 1480 OFFCURVE",
"371 1532 OFFCURVE",
"288 1532 CURVE SMOOTH"
);
},
{
closed = 1;
nodes = (
"603 1532 OFFCURVE",
"554 1483 OFFCURVE",
"554 1403 CURVE SMOOTH",
"554 1326 OFFCURVE",
"604 1276 OFFCURVE",
"687 1276 CURVE SMOOTH",
"770 1276 OFFCURVE",
"820 1324 OFFCURVE",
"820 1403 CURVE SMOOTH",
"820 1484 OFFCURVE",
"768 1532 OFFCURVE",
"687 1532 CURVE SMOOTH"
);
}
);
width = 942;
}
);
unicode = 00EB;
},
{
glyphname = egrave;
lastChange = "2013-03-07 05:35:11 +0200";
layers = (
{
layerId = "72C2BD91-63AC-4E79-A4ED-224E2850FB61";
name = "Bold Condensed";
paths = (
{
closed = 1;
nodes = (
"357 1135 OFFCURVE",
"256 1083 OFFCURVE",
"183 979.999 CURVE SMOOTH",
"110 877 OFFCURVE",
"74 733 OFFCURVE",
"74 549 CURVE SMOOTH",
"74 368 OFFCURVE",
"114 227 OFFCURVE",
"194 128 CURVE SMOOTH",
"275 29 OFFCURVE",
"385 -20 OFFCURVE",
"524 -20 CURVE SMOOTH",
"643 -20 OFFCURVE",
"746 6 OFFCURVE",
"831 57 CURVE",
"831 276 LINE",
"740 222 OFFCURVE",
"652 195 OFFCURVE",
"565 195 CURVE SMOOTH",
"429 195 OFFCURVE",
"348 290 OFFCURVE",
"344 489 CURVE",
"879 489 LINE",
"879 631 LINE SMOOTH",
"879 790 OFFCURVE",
"844 914 OFFCURVE",
"774 1002 CURVE SMOOTH",
"704 1091 OFFCURVE",
"608 1135 OFFCURVE",
"487 1135 CURVE SMOOTH"
);
},
{
closed = 1;
nodes = (
"566 930 OFFCURVE",
"615 845 OFFCURVE",
"618 682 CURVE",
"348 682 LINE",
"356 851 OFFCURVE",
"409 930 OFFCURVE",
"485 930 CURVE SMOOTH"
);
},
{
closed = 1;
nodes = (
"144 1569 LINE",
"144 1548 LINE",
"161 1517 OFFCURVE",
"204 1468 OFFCURVE",
"271 1401 CURVE SMOOTH",
"338 1334 OFFCURVE",
"397 1281 OFFCURVE",
"447 1241 CURVE",
"634 1241 LINE",
"634 1268 LINE",
"609 1301 OFFCURVE",
"578 1350 OFFCURVE",
"542 1413 CURVE SMOOTH",
"507 1477 OFFCURVE",
"480 1529 OFFCURVE",
"462 1569 CURVE"
);
}
);
width = 942;
}
);
unicode = 00E8;
},
{
glyphname = f;
lastChange = "2013-03-07 05:35:10 +0200";
layers = (
{
layerId = "72C2BD91-63AC-4E79-A4ED-224E2850FB61";
name = "Bold Condensed";
paths = (
{
closed = 1;
nodes = (
"255 1567 OFFCURVE",
"158 1448 OFFCURVE",
"158 1200 CURVE SMOOTH",
"158 1116 LINE",
"29 1036 LINE",
"29 903 LINE",
"158 903 LINE",
"158 0 LINE",
"424 0 LINE",
"424 903 LINE",
"608 903 LINE",
"608 1114 LINE",
"424 1114 LINE",
"424 1196 LINE SMOOTH",
"424 1296 OFFCURVE",
"451 1343 OFFCURVE",
"512 1343 CURVE SMOOTH",
"547 1343 OFFCURVE",
"581 1335 OFFCURVE",
"614 1319 CURVE",
"684 1522 LINE",
"622 1552 OFFCURVE",
"555 1567 OFFCURVE",
"483 1567 CURVE SMOOTH"
);
}
);
width = 612;
}
);
unicode = 0066;
},
{
glyphname = g;
lastChange = "2013-03-07 05:35:11 +0200";
layers = (
{
layerId = "72C2BD91-63AC-4E79-A4ED-224E2850FB61";
name = "Bold Condensed";
paths = (
{
closed = 1;
nodes = (
"214 1135 OFFCURVE",
"82 995.999 OFFCURVE",
"82 752 CURVE SMOOTH",
"82 681 OFFCURVE",
"94.9999 617 OFFCURVE",
"122 559 CURVE SMOOTH",
"149 501 OFFCURVE",
"185 458 OFFCURVE",
"231 430 CURVE",
"193 398 OFFCURVE",
"168 374 OFFCURVE",
"155 357 CURVE SMOOTH",
"131 325 OFFCURVE",
"117 289 OFFCURVE",
"117 244 CURVE SMOOTH",
"117 169 OFFCURVE",
"165 111 OFFCURVE",
"233 84 CURVE",
"97.9999 41 OFFCURVE",
"18 -58 OFFCURVE",
"18 -182 CURVE SMOOTH",
"18 -381 OFFCURVE",
"156 -492 OFFCURVE",
"403 -492 CURVE SMOOTH",
"728 -492 OFFCURVE",
"907 -345 OFFCURVE",
"907 -86 CURVE SMOOTH",
"907 119 OFFCURVE",
"801 221 OFFCURVE",
"612 221 CURVE SMOOTH",
"451 221 LINE SMOOTH",
"370 221 OFFCURVE",
"330 244 OFFCURVE",
"330 291 CURVE SMOOTH",
"330 332 OFFCURVE",
"358 358 OFFCURVE",
"383 381 CURVE",
"399 376 OFFCURVE",
"424 373 OFFCURVE",
"457 373 CURVE SMOOTH",
"572 373 OFFCURVE",
"661 406 OFFCURVE",
"725 473 CURVE SMOOTH",
"789 540 OFFCURVE",
"821 632 OFFCURVE",
"821 750 CURVE SMOOTH",
"821 821 OFFCURVE",
"808 879 OFFCURVE",
"782 926 CURVE",
"915 956 LINE",
"915 1112 LINE",
"598 1112 LINE",
"583 1117 OFFCURVE",
"560 1122 OFFCURVE",
"531 1127 CURVE SMOOTH",
"502 1132 OFFCURVE",
"476 1135 OFFCURVE",
"453 1135 CURVE SMOOTH"
);
},
{
closed = 1;
nodes = (
"567 -12 OFFCURVE",
"608 -21 OFFCURVE",
"629 -38 CURVE SMOOTH",
"651 -55 OFFCURVE",
"662 -85 OFFCURVE",
"662 -127 CURVE SMOOTH",
"662 -234 OFFCURVE",
"581 -299 OFFCURVE",
"420 -299 CURVE SMOOTH",
"317 -299 OFFCURVE",
"260 -250 OFFCURVE",
"260 -162 CURVE SMOOTH",
"260 -70 OFFCURVE",
"307 -12 OFFCURVE",
"379 -12 CURVE SMOOTH",
"508 -12 LINE SMOOTH"
);
},
{
closed = 1;
nodes = (
"525 956 OFFCURVE",
"561 888 OFFCURVE",
"561 752 CURVE SMOOTH",
"561 619 OFFCURVE",
"525 553 OFFCURVE",
"453 553 CURVE SMOOTH",
"379 553 OFFCURVE",
"342 619 OFFCURVE",
"342 750 CURVE SMOOTH",
"342 887 OFFCURVE",
"379 956 OFFCURVE",
"453 956 CURVE SMOOTH"
);
}
);
width = 936;
}
);
unicode = 0067;
},
{
glyphname = h;
lastChange = "2013-03-07 05:35:10 +0200";
layers = (
{
layerId = "72C2BD91-63AC-4E79-A4ED-224E2850FB61";
name = "Bold Condensed";
paths = (
{
closed = 1;
nodes = (
"113 1556 LINE",
"113 0 LINE",
"379 0 LINE",
"379 535 LINE SMOOTH",
"379 776 OFFCURVE",
"422 909 OFFCURVE",
"545 909 CURVE SMOOTH",
"627 909 OFFCURVE",
"668 827 OFFCURVE",
"668 664 CURVE SMOOTH",
"668 0 LINE",
"936 0 LINE",
"936 727 LINE SMOOTH",
"936 994.999 OFFCURVE",
"831 1135 OFFCURVE",
"627 1135 CURVE SMOOTH",
"516 1135 OFFCURVE",
"434 1080 OFFCURVE",
"381 970.999 CURVE",
"367 970.999 LINE",
"375 1086 OFFCURVE",
"379 1165 OFFCURVE",
"379 1210 CURVE SMOOTH",
"379 1556 LINE"
);
}
);
width = 1038;
}
);
unicode = 0068;
},
{
glyphname = i;
lastChange = "2013-03-07 05:35:11 +0200";
layers = (
{
layerId = "72C2BD91-63AC-4E79-A4ED-224E2850FB61";
name = "Bold Condensed";
paths = (
{
closed = 1;
nodes = (
"115 1114 LINE",
"115 0 LINE",
"381 0 LINE",
"381 1114 LINE"
);
},
{
closed = 1;
nodes = (
"158 1548 OFFCURVE",
"104 1493 OFFCURVE",
"104 1405 CURVE SMOOTH",
"104 1314 OFFCURVE",
"162 1262 OFFCURVE",
"250 1262 CURVE SMOOTH",
"334 1262 OFFCURVE",
"393 1314 OFFCURVE",
"393 1405 CURVE SMOOTH",
"393 1493 OFFCURVE",
"337 1548 OFFCURVE",
"250 1548 CURVE SMOOTH"
);
}
);
width = 496;
}
);
unicode = 0069;
},
{
glyphname = dotlessi;
lastChange = "2013-03-07 05:35:11 +0200";
layers = (
{
layerId = "72C2BD91-63AC-4E79-A4ED-224E2850FB61";
name = "Bold Condensed";
paths = (
{
closed = 1;
nodes = (
"115 1114 LINE",
"115 0 LINE",
"381 0 LINE",
"381 1114 LINE"
);
}
);
width = 496;
}
);
unicode = 0131;
},
{
glyphname = iacute;
lastChange = "2013-03-07 05:35:11 +0200";
layers = (
{
layerId = "72C2BD91-63AC-4E79-A4ED-224E2850FB61";
name = "Bold Condensed";
paths = (
{
closed = 1;
nodes = (
"115 1114 LINE",
"115 0 LINE",
"381 0 LINE",
"381 1114 LINE"
);
},
{
closed = 1;
nodes = (
"285 1569 LINE",
"270 1534 OFFCURVE",
"244 1484 OFFCURVE",
"208 1419 CURVE SMOOTH",
"172 1354 OFFCURVE",
"140 1303 OFFCURVE",
"113 1268 CURVE",
"113 1241 LINE",
"300 1241 LINE",
"359 1290 OFFCURVE",
"421 1346 OFFCURVE",
"484 1409 CURVE SMOOTH",
"547 1473 OFFCURVE",
"587 1519 OFFCURVE",
"603 1548 CURVE",
"603 1569 LINE"
);
}
);
width = 496;
}
);
unicode = 00ED;
},
{
glyphname = icircumflex;
lastChange = "2013-03-07 05:35:11 +0200";
layers = (
{
layerId = "72C2BD91-63AC-4E79-A4ED-224E2850FB61";
name = "Bold Condensed";
paths = (
{
closed = 1;
nodes = (
"115 1114 LINE",
"115 0 LINE",
"381 0 LINE",
"381 1114 LINE"
);
},
{
closed = 1;
nodes = (
"107 1569 LINE",
"80 1517 OFFCURVE",
"8 1417 OFFCURVE",
"-110 1268 CURVE",
"-110 1241 LINE",
"58 1241 LINE",
"123 1293 OFFCURVE",
"185 1352 OFFCURVE",
"244 1419 CURVE",
"306 1348 OFFCURVE",
"369 1289 OFFCURVE",
"433 1241 CURVE",
"601 1241 LINE",
"601 1268 LINE",
"488 1411 OFFCURVE",
"415 1511 OFFCURVE",
"384 1569 CURVE"
);
}
);
width = 496;
}
);
unicode = 00EE;
},
{
glyphname = idieresis;
lastChange = "2013-03-07 05:35:11 +0200";
layers = (
{
layerId = "72C2BD91-63AC-4E79-A4ED-224E2850FB61";
name = "Bold Condensed";
paths = (
{
closed = 1;
nodes = (
"115 1114 LINE",
"115 0 LINE",
"381 0 LINE",
"381 1114 LINE"
);
},
{
closed = 1;
nodes = (
"-36 1532 OFFCURVE",
"-85 1484 OFFCURVE",
"-85 1403 CURVE SMOOTH",
"-85 1323 OFFCURVE",
"-36 1276 OFFCURVE",
"47 1276 CURVE SMOOTH",
"130 1276 OFFCURVE",
"180 1327 OFFCURVE",
"180 1403 CURVE SMOOTH",
"180 1480 OFFCURVE",
"130 1532 OFFCURVE",
"47 1532 CURVE SMOOTH"
);
},
{
closed = 1;
nodes = (
"362 1532 OFFCURVE",
"313 1483 OFFCURVE",
"313 1403 CURVE SMOOTH",
"313 1326 OFFCURVE",
"363 1276 OFFCURVE",
"446 1276 CURVE SMOOTH",
"529 1276 OFFCURVE",
"579 1324 OFFCURVE",
"579 1403 CURVE SMOOTH",
"579 1484 OFFCURVE",
"527 1532 OFFCURVE",
"446 1532 CURVE SMOOTH"
);
}
);
width = 496;
}
);
unicode = 00EF;
},
{
glyphname = igrave;
lastChange = "2013-03-07 05:35:11 +0200";
layers = (
{
layerId = "72C2BD91-63AC-4E79-A4ED-224E2850FB61";
name = "Bold Condensed";
paths = (
{
closed = 1;
nodes = (
"115 1114 LINE",
"115 0 LINE",
"381 0 LINE",
"381 1114 LINE"
);
},
{
closed = 1;
nodes = (
"-110 1569 LINE",
"-110 1548 LINE",
"-93 1517 OFFCURVE",
"-50 1468 OFFCURVE",
"17 1401 CURVE SMOOTH",
"84 1334 OFFCURVE",
"143 1281 OFFCURVE",
"193 1241 CURVE",
"380 1241 LINE",
"380 1268 LINE",
"355 1301 OFFCURVE",
"324 1350 OFFCURVE",
"288 1413 CURVE SMOOTH",
"253 1477 OFFCURVE",
"226 1529 OFFCURVE",
"208 1569 CURVE"
);
}
);
width = 496;
}
);
unicode = 00EC;
},
{
glyphname = j;
lastChange = "2013-03-07 05:35:11 +0200";
layers = (
{
layerId = "72C2BD91-63AC-4E79-A4ED-224E2850FB61";
name = "Bold Condensed";
paths = (
{
closed = 1;
nodes = (
"121 1114 LINE",
"121 -94 LINE SMOOTH",
"121 -207 OFFCURVE",
"90 -264 OFFCURVE",
"27 -264 CURVE SMOOTH",
"0 -264 OFFCURVE",
"-28 -258 OFFCURVE",
"-59 -246 CURVE",
"-59 -467 LINE",
"-22 -484 OFFCURVE",
"24 -492 OFFCURVE",
"80 -492 CURVE SMOOTH",
"275 -492 OFFCURVE",
"387 -361 OFFCURVE",
"387 -129 CURVE SMOOTH",
"387 1114 LINE"
);
},
{
closed = 1;
nodes = (
"165 1548 OFFCURVE",
"111 1493 OFFCURVE",
"111 1405 CURVE SMOOTH",
"111 1313 OFFCURVE",
"169 1262 OFFCURVE",
"256 1262 CURVE SMOOTH",
"343 1262 OFFCURVE",
"399 1316 OFFCURVE",
"399 1405 CURVE SMOOTH",
"399 1492 OFFCURVE",
"345 1548 OFFCURVE",
"256 1548 CURVE SMOOTH"
);
}
);
width = 500;
}
);
unicode = 006A;
},
{
glyphname = k;
lastChange = "2013-03-07 05:35:10 +0200";
layers = (
{
layerId = "72C2BD91-63AC-4E79-A4ED-224E2850FB61";
name = "Bold Condensed";
paths = (
{
closed = 1;
nodes = (
"113 1556 LINE",
"113 0 LINE",
"379 0 LINE",
"379 377 LINE",
"483 471 LINE",
"684 0 LINE",
"963 0 LINE",
"662 657 LINE",
"944 1114 LINE",
"662 1114 LINE",
"442 733 LINE",
"375 600 LINE",
"367 600 LINE",
"379 823 LINE",
"379 1556 LINE"
);
}
);
width = 965;
}
);
unicode = 006B;
},
{
glyphname = l;
lastChange = "2013-03-07 05:35:10 +0200";
layers = (
{
layerId = "72C2BD91-63AC-4E79-A4ED-224E2850FB61";
name = "Bold Condensed";
paths = (
{
closed = 1;
nodes = (
"113 1556 LINE",
"113 0 LINE",
"379 0 LINE",
"379 1556 LINE"
);
}
);
width = 489;
}
);
unicode = 006C;
},
{
glyphname = m;
lastChange = "2013-03-07 05:35:10 +0200";
layers = (
{
layerId = "72C2BD91-63AC-4E79-A4ED-224E2850FB61";
name = "Bold Condensed";
paths = (
{
closed = 1;
nodes = (
"1061 1135 OFFCURVE",
"969.999 1071 OFFCURVE",
"913 942 CURVE",
"903 942 LINE",
"858 1071 OFFCURVE",
"767 1135 OFFCURVE",
"631 1135 CURVE SMOOTH",
"526 1135 OFFCURVE",
"426 1084 OFFCURVE",
"373 970.999 CURVE",
"356 970.999 LINE",
"324 1114 LINE",
"113 1114 LINE",
"113 0 LINE",
"379 0 LINE",
"379 535 LINE SMOOTH",
"379 668 OFFCURVE",
"392 764 OFFCURVE",
"418 822 CURVE SMOOTH",
"444 880 OFFCURVE",
"486 909 OFFCURVE",
"543 909 CURVE SMOOTH",
"625 909 OFFCURVE",
"666 827 OFFCURVE",
"666 664 CURVE SMOOTH",
"666 0 LINE",
"934 0 LINE",
"934 541 LINE SMOOTH",
"934 798 OFFCURVE",
"980.999 909 OFFCURVE",
"1098 909 CURVE SMOOTH",
"1179 909 OFFCURVE",
"1219 827 OFFCURVE",
"1219 664 CURVE SMOOTH",
"1219 0 LINE",
"1487 0 LINE",
"1487 727 LINE SMOOTH",
"1487 993.999 OFFCURVE",
"1383 1135 OFFCURVE",
"1186 1135 CURVE SMOOTH"
);
}
);
width = 1589;
}
);
unicode = 006D;
},
{
glyphname = n;
lastChange = "2013-03-07 05:35:10 +0200";
layers = (
{
layerId = "72C2BD91-63AC-4E79-A4ED-224E2850FB61";
name = "Bold Condensed";
paths = (
{
closed = 1;
nodes = (
"513 1135 OFFCURVE",
"421 1074 OFFCURVE",
"373 970.999 CURVE",
"356 970.999 LINE",
"324 1114 LINE",
"113 1114 LINE",
"113 0 LINE",
"379 0 LINE",
"379 535 LINE SMOOTH",
"379 670 OFFCURVE",
"392 766 OFFCURVE",
"419 823 CURVE SMOOTH",
"446 880 OFFCURVE",
"488 909 OFFCURVE",
"545 909 CURVE SMOOTH",
"632 909 OFFCURVE",
"668 825 OFFCURVE",
"668 664 CURVE SMOOTH",
"668 0 LINE",
"936 0 LINE",
"936 727 LINE SMOOTH",
"936 993.999 OFFCURVE",
"836 1135 OFFCURVE",
"633 1135 CURVE SMOOTH"
);
}
);
width = 1038;
}
);
unicode = 006E;
},
{
glyphname = ntilde;
lastChange = "2013-03-07 05:35:11 +0200";
layers = (
{
layerId = "72C2BD91-63AC-4E79-A4ED-224E2850FB61";
name = "Bold Condensed";
paths = (
{
closed = 1;
nodes = (
"513 1135 OFFCURVE",
"421 1074 OFFCURVE",
"373 970.999 CURVE",
"356 970.999 LINE",
"324 1114 LINE",
"113 1114 LINE",
"113 0 LINE",
"379 0 LINE",
"379 535 LINE SMOOTH",
"379 670 OFFCURVE",
"392 766 OFFCURVE",
"419 823 CURVE SMOOTH",
"446 880 OFFCURVE",
"488 909 OFFCURVE",
"545 909 CURVE SMOOTH",
"632 909 OFFCURVE",
"668 825 OFFCURVE",
"668 664 CURVE SMOOTH",
"668 0 LINE",
"936 0 LINE",
"936 727 LINE SMOOTH",
"936 993.999 OFFCURVE",
"836 1135 OFFCURVE",
"633 1135 CURVE SMOOTH"
);
},
{
closed = 1;
nodes = (
"736 1542 LINE",
"721 1467 OFFCURVE",
"705 1434 OFFCURVE",
"660 1434 CURVE SMOOTH",
"580 1434 OFFCURVE",
"517 1540 OFFCURVE",
"402 1540 CURVE SMOOTH",
"278 1540 OFFCURVE",
"198 1443 OFFCURVE",
"183 1239 CURVE",
"324 1239 LINE",
"337 1322 OFFCURVE",
"361 1348 OFFCURVE",
"402 1348 CURVE SMOOTH",
"481 1348 OFFCURVE",
"540 1241 OFFCURVE",
"658 1241 CURVE SMOOTH",
"779 1241 OFFCURVE",
"862 1339 OFFCURVE",
"877 1542 CURVE"
);
}
);
width = 1038;
}
);
unicode = 00F1;
},
{
glyphname = o;
lastChange = "2013-03-07 05:35:11 +0200";
layers = (
{
layerId = "72C2BD91-63AC-4E79-A4ED-224E2850FB61";
name = "Bold Condensed";
paths = (
{
closed = 1;
nodes = (
"372 1135 OFFCURVE",
"266 1084 OFFCURVE",
"189 981.999 CURVE SMOOTH",
"112 881 OFFCURVE",
"74 740 OFFCURVE",
"74 559 CURVE SMOOTH",
"70 207 OFFCURVE",
"248 -24 OFFCURVE",
"504 -20 CURVE SMOOTH",
"639 -20 OFFCURVE",
"745 31 OFFCURVE",
"822 132 CURVE SMOOTH",
"899 234 OFFCURVE",
"938 376 OFFCURVE",
"938 559 CURVE SMOOTH",
"938 736 OFFCURVE",
"899 876 OFFCURVE",
"821 978.999 CURVE SMOOTH",
"744 1083 OFFCURVE",
"639 1135 OFFCURVE",
"508 1135 CURVE SMOOTH"
);
},
{
closed = 1;
nodes = (
"617 907 OFFCURVE",
"666 792 OFFCURVE",
"666 559 CURVE SMOOTH",
"666 324 OFFCURVE",
"613 207 OFFCURVE",
"506 207 CURVE SMOOTH",
"394 207 OFFCURVE",
"346 327 OFFCURVE",
"346 559 CURVE SMOOTH",
"346 792 OFFCURVE",
"394 907 OFFCURVE",
"506 907 CURVE SMOOTH"
);
}
);
width = 1012;
}
);
unicode = 006F;
},
{
glyphname = oacute;
lastChange = "2013-03-07 05:35:11 +0200";
layers = (
{
layerId = "72C2BD91-63AC-4E79-A4ED-224E2850FB61";
name = "Bold Condensed";
paths = (
{
closed = 1;
nodes = (
"372 1135 OFFCURVE",
"266 1084 OFFCURVE",
"189 981.999 CURVE SMOOTH",
"112 881 OFFCURVE",
"74 740 OFFCURVE",
"74 559 CURVE SMOOTH",
"70 207 OFFCURVE",
"248 -24 OFFCURVE",
"504 -20 CURVE SMOOTH",
"639 -20 OFFCURVE",
"745 31 OFFCURVE",
"822 132 CURVE SMOOTH",
"899 234 OFFCURVE",
"938 376 OFFCURVE",
"938 559 CURVE SMOOTH",
"938 736 OFFCURVE",
"899 876 OFFCURVE",
"821 978.999 CURVE SMOOTH",
"744 1083 OFFCURVE",
"639 1135 OFFCURVE",
"508 1135 CURVE SMOOTH"
);
},
{
closed = 1;
nodes = (
"617 907 OFFCURVE",
"666 792 OFFCURVE",
"666 559 CURVE SMOOTH",
"666 324 OFFCURVE",
"613 207 OFFCURVE",
"506 207 CURVE SMOOTH",
"394 207 OFFCURVE",
"346 327 OFFCURVE",
"346 559 CURVE SMOOTH",
"346 792 OFFCURVE",
"394 907 OFFCURVE",
"506 907 CURVE SMOOTH"
);
},
{
closed = 1;
nodes = (
"538 1569 LINE",
"523 1534 OFFCURVE",
"497 1484 OFFCURVE",
"461 1419 CURVE SMOOTH",
"425 1354 OFFCURVE",
"393 1303 OFFCURVE",
"366 1268 CURVE",
"366 1241 LINE",
"553 1241 LINE",
"612 1290 OFFCURVE",
"674 1346 OFFCURVE",
"737 1409 CURVE SMOOTH",
"800 1473 OFFCURVE",
"840 1519 OFFCURVE",
"856 1548 CURVE",
"856 1569 LINE"
);
}
);
width = 1012;
}
);
unicode = 00F3;
},
{
glyphname = ocircumflex;
lastChange = "2013-03-07 05:35:11 +0200";
layers = (
{
layerId = "72C2BD91-63AC-4E79-A4ED-224E2850FB61";
name = "Bold Condensed";
paths = (
{
closed = 1;
nodes = (
"372 1135 OFFCURVE",
"266 1084 OFFCURVE",
"189 981.999 CURVE SMOOTH",
"112 881 OFFCURVE",
"74 740 OFFCURVE",
"74 559 CURVE SMOOTH",
"70 207 OFFCURVE",
"248 -24 OFFCURVE",
"504 -20 CURVE SMOOTH",
"639 -20 OFFCURVE",
"745 31 OFFCURVE",
"822 132 CURVE SMOOTH",
"899 234 OFFCURVE",
"938 376 OFFCURVE",
"938 559 CURVE SMOOTH",
"938 736 OFFCURVE",
"899 876 OFFCURVE",
"821 978.999 CURVE SMOOTH",
"744 1083 OFFCURVE",
"639 1135 OFFCURVE",
"508 1135 CURVE SMOOTH"
);
},
{
closed = 1;
nodes = (
"617 907 OFFCURVE",
"666 792 OFFCURVE",
"666 559 CURVE SMOOTH",
"666 324 OFFCURVE",
"613 207 OFFCURVE",
"506 207 CURVE SMOOTH",
"394 207 OFFCURVE",
"346 327 OFFCURVE",
"346 559 CURVE SMOOTH",
"346 792 OFFCURVE",
"394 907 OFFCURVE",
"506 907 CURVE SMOOTH"
);
},
{
closed = 1;
nodes = (
"368 1569 LINE",
"341 1517 OFFCURVE",
"269 1417 OFFCURVE",
"151 1268 CURVE",
"151 1241 LINE",
"319 1241 LINE",
"384 1293 OFFCURVE",
"446 1352 OFFCURVE",
"505 1419 CURVE",
"567 1348 OFFCURVE",
"630 1289 OFFCURVE",
"694 1241 CURVE",
"862 1241 LINE",
"862 1268 LINE",
"749 1411 OFFCURVE",
"676 1511 OFFCURVE",
"645 1569 CURVE"
);
}
);
width = 1012;
}
);
unicode = 00F4;
},
{
glyphname = odieresis;
lastChange = "2013-03-07 05:35:11 +0200";
layers = (
{
layerId = "72C2BD91-63AC-4E79-A4ED-224E2850FB61";
name = "Bold Condensed";
paths = (
{
closed = 1;
nodes = (
"372 1135 OFFCURVE",
"266 1084 OFFCURVE",
"189 981.999 CURVE SMOOTH",
"112 881 OFFCURVE",
"74 740 OFFCURVE",
"74 559 CURVE SMOOTH",
"70 207 OFFCURVE",
"248 -24 OFFCURVE",
"504 -20 CURVE SMOOTH",
"639 -20 OFFCURVE",
"745 31 OFFCURVE",
"822 132 CURVE SMOOTH",
"899 234 OFFCURVE",
"938 376 OFFCURVE",
"938 559 CURVE SMOOTH",
"938 736 OFFCURVE",
"899 876 OFFCURVE",
"821 978.999 CURVE SMOOTH",
"744 1083 OFFCURVE",
"639 1135 OFFCURVE",
"508 1135 CURVE SMOOTH"
);
},
{
closed = 1;
nodes = (
"617 907 OFFCURVE",
"666 792 OFFCURVE",
"666 559 CURVE SMOOTH",
"666 324 OFFCURVE",
"613 207 OFFCURVE",
"506 207 CURVE SMOOTH",
"394 207 OFFCURVE",
"346 327 OFFCURVE",
"346 559 CURVE SMOOTH",
"346 792 OFFCURVE",
"394 907 OFFCURVE",
"506 907 CURVE SMOOTH"
);
},
{
closed = 1;
nodes = (
"224 1532 OFFCURVE",
"175 1484 OFFCURVE",
"175 1403 CURVE SMOOTH",
"175 1323 OFFCURVE",
"224 1276 OFFCURVE",
"307 1276 CURVE SMOOTH",
"390 1276 OFFCURVE",
"440 1327 OFFCURVE",
"440 1403 CURVE SMOOTH",
"440 1480 OFFCURVE",
"390 1532 OFFCURVE",
"307 1532 CURVE SMOOTH"
);
},
{
closed = 1;
nodes = (
"622 1532 OFFCURVE",
"573 1483 OFFCURVE",
"573 1403 CURVE SMOOTH",
"573 1326 OFFCURVE",
"623 1276 OFFCURVE",
"706 1276 CURVE SMOOTH",
"789 1276 OFFCURVE",
"839 1324 OFFCURVE",
"839 1403 CURVE SMOOTH",
"839 1484 OFFCURVE",
"787 1532 OFFCURVE",
"706 1532 CURVE SMOOTH"
);
}
);
width = 1012;
}
);
unicode = 00F6;
},
{
glyphname = ograve;
lastChange = "2013-03-07 05:35:11 +0200";
layers = (
{
layerId = "72C2BD91-63AC-4E79-A4ED-224E2850FB61";
name = "Bold Condensed";
paths = (
{
closed = 1;
nodes = (
"372 1135 OFFCURVE",
"266 1084 OFFCURVE",
"189 981.999 CURVE SMOOTH",
"112 881 OFFCURVE",
"74 740 OFFCURVE",
"74 559 CURVE SMOOTH",
"70 207 OFFCURVE",
"248 -24 OFFCURVE",
"504 -20 CURVE SMOOTH",
"639 -20 OFFCURVE",
"745 31 OFFCURVE",
"822 132 CURVE SMOOTH",
"899 234 OFFCURVE",
"938 376 OFFCURVE",
"938 559 CURVE SMOOTH",
"938 736 OFFCURVE",
"899 876 OFFCURVE",
"821 978.999 CURVE SMOOTH",
"744 1083 OFFCURVE",
"639 1135 OFFCURVE",
"508 1135 CURVE SMOOTH"
);
},
{
closed = 1;
nodes = (
"617 907 OFFCURVE",
"666 792 OFFCURVE",
"666 559 CURVE SMOOTH",
"666 324 OFFCURVE",
"613 207 OFFCURVE",
"506 207 CURVE SMOOTH",
"394 207 OFFCURVE",
"346 327 OFFCURVE",
"346 559 CURVE SMOOTH",
"346 792 OFFCURVE",
"394 907 OFFCURVE",
"506 907 CURVE SMOOTH"
);
},
{
closed = 1;
nodes = (
"156 1569 LINE",
"156 1548 LINE",
"173 1517 OFFCURVE",
"216 1468 OFFCURVE",
"283 1401 CURVE SMOOTH",
"350 1334 OFFCURVE",
"409 1281 OFFCURVE",
"459 1241 CURVE",
"646 1241 LINE",
"646 1268 LINE",
"621 1301 OFFCURVE",
"590 1350 OFFCURVE",
"554 1413 CURVE SMOOTH",
"519 1477 OFFCURVE",
"492 1529 OFFCURVE",
"474 1569 CURVE"
);
}
);
width = 1012;
}
);
unicode = 00F2;
},
{
glyphname = oslash;
lastChange = "2013-03-07 05:35:11 +0200";
layers = (
{
layerId = "72C2BD91-63AC-4E79-A4ED-224E2850FB61";
name = "Bold Condensed";
paths = (
{
closed = 1;
nodes = (
"684 1094 LINE",
"632 1121 OFFCURVE",
"573 1135 OFFCURVE",
"508 1135 CURVE SMOOTH",
"372 1135 OFFCURVE",
"266 1084 OFFCURVE",
"189 981.999 CURVE SMOOTH",
"112 881 OFFCURVE",
"74 740 OFFCURVE",
"74 559 CURVE SMOOTH",
"74 372 OFFCURVE",
"121 226 OFFCURVE",
"197 131 CURVE",
"119 -20 LINE",
"281 -96 LINE",
"338 16 LINE",
"387 -8 OFFCURVE",
"443 -20 OFFCURVE",
"504 -20 CURVE SMOOTH",
"639 -20 OFFCURVE",
"745 31 OFFCURVE",
"822 132 CURVE SMOOTH",
"899 234 OFFCURVE",
"938 376 OFFCURVE",
"938 559 CURVE SMOOTH",
"938 738 OFFCURVE",
"900 876 OFFCURVE",
"823 974.999 CURVE",
"895 1116 LINE",
"735 1190 LINE"
);
},
{
closed = 1;
nodes = (
"676 559 LINE SMOOTH",
"676 327 OFFCURVE",
"617 207 OFFCURVE",
"506 207 CURVE SMOOTH",
"477 207 OFFCURVE",
"455 211 OFFCURVE",
"438 219 CURVE",
"672 676 LINE"
);
},
{
closed = 1;
nodes = (
"535 907 OFFCURVE",
"561 902 OFFCURVE",
"584 891 CURVE",
"340 416 LINE",
"338 486 LINE",
"338 559 LINE SMOOTH",
"338 791 OFFCURVE",
"394 907 OFFCURVE",
"506 907 CURVE SMOOTH"
);
}
);
width = 1012;
}
);
unicode = 00F8;
},
{
glyphname = otilde;
lastChange = "2013-03-07 05:35:11 +0200";
layers = (
{
layerId = "72C2BD91-63AC-4E79-A4ED-224E2850FB61";
name = "Bold Condensed";
paths = (
{
closed = 1;
nodes = (
"372 1135 OFFCURVE",
"266 1084 OFFCURVE",
"189 981.999 CURVE SMOOTH",
"112 881 OFFCURVE",
"74 740 OFFCURVE",
"74 559 CURVE SMOOTH",
"70 207 OFFCURVE",
"248 -24 OFFCURVE",
"504 -20 CURVE SMOOTH",
"639 -20 OFFCURVE",
"745 31 OFFCURVE",
"822 132 CURVE SMOOTH",
"899 234 OFFCURVE",
"938 376 OFFCURVE",
"938 559 CURVE SMOOTH",
"938 736 OFFCURVE",
"899 876 OFFCURVE",
"821 978.999 CURVE SMOOTH",
"744 1083 OFFCURVE",
"639 1135 OFFCURVE",
"508 1135 CURVE SMOOTH"
);
},
{
closed = 1;
nodes = (
"617 907 OFFCURVE",
"666 792 OFFCURVE",
"666 559 CURVE SMOOTH",
"666 324 OFFCURVE",
"613 207 OFFCURVE",
"506 207 CURVE SMOOTH",
"394 207 OFFCURVE",
"346 327 OFFCURVE",
"346 559 CURVE SMOOTH",
"346 792 OFFCURVE",
"394 907 OFFCURVE",
"506 907 CURVE SMOOTH"
);
},
{
closed = 1;
nodes = (
"722 1542 LINE",
"707 1467 OFFCURVE",
"691 1434 OFFCURVE",
"646 1434 CURVE SMOOTH",
"566 1434 OFFCURVE",
"503 1540 OFFCURVE",
"388 1540 CURVE SMOOTH",
"264 1540 OFFCURVE",
"184 1443 OFFCURVE",
"169 1239 CURVE",
"310 1239 LINE",
"323 1322 OFFCURVE",
"347 1348 OFFCURVE",
"388 1348 CURVE SMOOTH",
"467 1348 OFFCURVE",
"526 1241 OFFCURVE",
"644 1241 CURVE SMOOTH",
"765 1241 OFFCURVE",
"848 1339 OFFCURVE",
"863 1542 CURVE"
);
}
);
width = 1012;
}
);
unicode = 00F5;
},
{
glyphname = oe;
lastChange = "2013-03-07 05:35:11 +0200";
layers = (
{
layerId = "72C2BD91-63AC-4E79-A4ED-224E2850FB61";
name = "Bold Condensed";
paths = (
{
closed = 1;
nodes = (
"962 1135 OFFCURVE",
"868 1088 OFFCURVE",
"797 994.999 CURVE",
"720 1088 OFFCURVE",
"624 1135 OFFCURVE",
"508 1135 CURVE SMOOTH",
"372 1135 OFFCURVE",
"266 1084 OFFCURVE",
"189 981.999 CURVE SMOOTH",
"112 881 OFFCURVE",
"74 740 OFFCURVE",
"74 559 CURVE SMOOTH",
"70 207 OFFCURVE",
"248 -24 OFFCURVE",
"504 -20 CURVE SMOOTH",
"626 -20 OFFCURVE",
"726 27 OFFCURVE",
"803 121 CURVE",
"880 27 OFFCURVE",
"984.999 -20 OFFCURVE",
"1116 -20 CURVE SMOOTH",
"1234 -20 OFFCURVE",
"1336 6 OFFCURVE",
"1423 57 CURVE",
"1423 276 LINE",
"1332 222 OFFCURVE",
"1243 195 OFFCURVE",
"1155 195 CURVE SMOOTH",
"1022 195 OFFCURVE",
"940 290 OFFCURVE",
"936 489 CURVE",
"1468 489 LINE",
"1468 631 LINE SMOOTH",
"1468 789 OFFCURVE",
"1433 912 OFFCURVE",
"1364 1001 CURVE SMOOTH",
"1295 1090 OFFCURVE",
"1200 1135 OFFCURVE",
"1079 1135 CURVE SMOOTH"
);
},
{
closed = 1;
nodes = (
"617 907 OFFCURVE",
"666 792 OFFCURVE",
"666 559 CURVE SMOOTH",
"666 324 OFFCURVE",
"613 207 OFFCURVE",
"506 207 CURVE SMOOTH",
"394 207 OFFCURVE",
"346 327 OFFCURVE",
"346 559 CURVE SMOOTH",
"346 792 OFFCURVE",
"394 907 OFFCURVE",
"506 907 CURVE SMOOTH"
);
},
{
closed = 1;
nodes = (
"1158 930 OFFCURVE",
"1207 845 OFFCURVE",
"1210 682 CURVE",
"940 682 LINE",
"948 851 OFFCURVE",
"1001 930 OFFCURVE",
"1077 930 CURVE SMOOTH"
);
}
);
width = 1532;
}
);
unicode = 0153;
},
{
glyphname = p;
lastChange = "2013-03-07 05:35:11 +0200";
layers = (
{
layerId = "72C2BD91-63AC-4E79-A4ED-224E2850FB61";
name = "Bold Condensed";
paths = (
{
closed = 1;
nodes = (
"513 1135 OFFCURVE",
"432 1080 OFFCURVE",
"377 968.999 CURVE",
"365 968.999 LINE",
"319 1114 LINE",
"113 1114 LINE",
"113 -492 LINE",
"381 -492 LINE",
"381 -37 LINE SMOOTH",
"381 -18 OFFCURVE",
"376 36 OFFCURVE",
"365 127 CURVE",
"379 127 LINE",
"443 18 OFFCURVE",
"514 -20 OFFCURVE",
"610 -20 CURVE SMOOTH",
"713 -20 OFFCURVE",
"794 31 OFFCURVE",
"853 134 CURVE SMOOTH",
"912 237 OFFCURVE",
"942 378 OFFCURVE",
"942 559 CURVE SMOOTH",
"942 742 OFFCURVE",
"913 884 OFFCURVE",
"856 983.999 CURVE SMOOTH",
"799 1085 OFFCURVE",
"719 1135 OFFCURVE",
"618 1135 CURVE SMOOTH"
);
},
{
closed = 1;
nodes = (
"625 909 OFFCURVE",
"670 795 OFFCURVE",
"670 563 CURVE SMOOTH",
"670 327 OFFCURVE",
"623 209 OFFCURVE",
"530 209 CURVE SMOOTH",
"422 209 OFFCURVE",
"379 316 OFFCURVE",
"379 561 CURVE SMOOTH",
"379 596 LINE SMOOTH",
"382 820 OFFCURVE",
"424 909 OFFCURVE",
"528 909 CURVE SMOOTH"
);
}
);
width = 1016;
}
);
unicode = 0070;
},
{
glyphname = thorn;
lastChange = "2013-03-07 05:35:11 +0200";
layers = (
{
layerId = "72C2BD91-63AC-4E79-A4ED-224E2850FB61";
name = "Bold Condensed";
paths = (
{
closed = 1;
nodes = (
"113 1556 LINE",
"113 -492 LINE",
"381 -492 LINE",
"381 -37 LINE SMOOTH",
"381 -18 OFFCURVE",
"376 36 OFFCURVE",
"365 127 CURVE",
"379 127 LINE",
"442 19 OFFCURVE",
"515 -20 OFFCURVE",
"608 -20 CURVE SMOOTH",
"712 -20 OFFCURVE",
"794 31 OFFCURVE",
"853 134 CURVE SMOOTH",
"912 237 OFFCURVE",
"942 378 OFFCURVE",
"942 559 CURVE SMOOTH",
"942 742 OFFCURVE",
"913 884 OFFCURVE",
"856 983.999 CURVE SMOOTH",
"799 1085 OFFCURVE",
"719 1135 OFFCURVE",
"618 1135 CURVE SMOOTH",
"517 1135 OFFCURVE",
"444 1093 OFFCURVE",
"379 968.999 CURVE",
"365 968.999 LINE",
"373 1069 OFFCURVE",
"377 1127 OFFCURVE",
"378 1144 CURVE SMOOTH",
"379 1161 OFFCURVE",
"379 1177 OFFCURVE",
"379 1192 CURVE SMOOTH",
"379 1556 LINE"
);
},
{
closed = 1;
nodes = (
"625 909 OFFCURVE",
"670 795 OFFCURVE",
"670 563 CURVE SMOOTH",
"670 327 OFFCURVE",
"623 209 OFFCURVE",
"530 209 CURVE SMOOTH",
"422 209 OFFCURVE",
"379 316 OFFCURVE",
"379 561 CURVE SMOOTH",
"379 596 LINE SMOOTH",
"382 820 OFFCURVE",
"424 909 OFFCURVE",
"528 909 CURVE SMOOTH"
);
}
);
width = 1016;
}
);
unicode = 00FE;
},
{
glyphname = q;
lastChange = "2013-03-07 05:35:11 +0200";
layers = (
{
layerId = "72C2BD91-63AC-4E79-A4ED-224E2850FB61";
name = "Bold Condensed";
paths = (
{
closed = 1;
nodes = (
"298 1135 OFFCURVE",
"218 1084 OFFCURVE",
"160 980.999 CURVE SMOOTH",
"103 879 OFFCURVE",
"74 737 OFFCURVE",
"74 555 CURVE SMOOTH",
"74 374 OFFCURVE",
"103 233 OFFCURVE",
"162 132 CURVE SMOOTH",
"221 31 OFFCURVE",
"302 -20 OFFCURVE",
"406 -20 CURVE SMOOTH",
"509 -20 OFFCURVE",
"585 30 OFFCURVE",
"641 145 CURVE",
"651 145 LINE",
"643 57 OFFCURVE",
"639 0.999999 OFFCURVE",
"639 -23 CURVE SMOOTH",
"639 -492 LINE",
"905 -492 LINE",
"905 1114 LINE",
"680 1114 LINE",
"651 970.999 LINE",
"637 970.999 LINE",
"576 1088 OFFCURVE",
"503 1135 OFFCURVE",
"399 1135 CURVE SMOOTH"
);
},
{
closed = 1;
nodes = (
"594 905 OFFCURVE",
"637 798 OFFCURVE",
"637 553 CURVE SMOOTH",
"637 516 LINE SMOOTH",
"636 404 OFFCURVE",
"623 324 OFFCURVE",
"600 275 CURVE SMOOTH",
"577 227 OFFCURVE",
"540 203 OFFCURVE",
"487 203 CURVE SMOOTH",
"391 203 OFFCURVE",
"348 315 OFFCURVE",
"348 551 CURVE SMOOTH",
"348 787 OFFCURVE",
"394 905 OFFCURVE",
"487 905 CURVE SMOOTH"
);
}
);
width = 1016;
}
);
unicode = 0071;
},
{
glyphname = r;
lastChange = "2013-03-07 05:35:10 +0200";
layers = (
{
layerId = "72C2BD91-63AC-4E79-A4ED-224E2850FB61";
name = "Bold Condensed";
paths = (
{
closed = 1;
nodes = (
"496 1135 OFFCURVE",
"430 1080 OFFCURVE",
"371 940 CURVE",
"362 940 LINE",
"332 1114 LINE",
"113 1114 LINE",
"113 0 LINE",
"379 0 LINE",
"379 573 LINE SMOOTH",
"379 768 OFFCURVE",
"451 872 OFFCURVE",
"580 872 CURVE SMOOTH",
"610 872 OFFCURVE",
"634 869 OFFCURVE",
"653 862 CURVE",
"684 1120 LINE",
"653 1130 OFFCURVE",
"621 1135 OFFCURVE",
"588 1135 CURVE SMOOTH"
);
}
);
width = 690;
}
);
unicode = 0072;
},
{
glyphname = s;
lastChange = "2013-03-07 05:35:10 +0200";
layers = (
{
layerId = "72C2BD91-63AC-4E79-A4ED-224E2850FB61";
name = "Bold Condensed";
paths = (
{
closed = 1;
nodes = (
"313 1135 OFFCURVE",
"223 1107 OFFCURVE",
"158 1052 CURVE SMOOTH",
"92.9999 996.999 OFFCURVE",
"61 922 OFFCURVE",
"61 827 CURVE SMOOTH",
"61 679 OFFCURVE",
"126 577 OFFCURVE",
"287 481 CURVE SMOOTH",
"348 444 OFFCURVE",
"389 413 OFFCURVE",
"412 388 CURVE SMOOTH",
"435 363 OFFCURVE",
"446 333 OFFCURVE",
"446 299 CURVE SMOOTH",
"446 232 OFFCURVE",
"402 188 OFFCURVE",
"319 188 CURVE SMOOTH",
"282 188 OFFCURVE",
"238 196 OFFCURVE",
"189 213 CURVE SMOOTH",
"140 230 OFFCURVE",
"97.9999 251 OFFCURVE",
"61 276 CURVE",
"61 45 LINE",
"133 2 OFFCURVE",
"224 -20 OFFCURVE",
"334 -20 CURVE SMOOTH",
"582 -20 OFFCURVE",
"711 109 OFFCURVE",
"711 326 CURVE SMOOTH",
"711 376 OFFCURVE",
"703 420 OFFCURVE",
"688 457 CURVE SMOOTH",
"673 494 OFFCURVE",
"651 528 OFFCURVE",
"623 557 CURVE SMOOTH",
"595 586 OFFCURVE",
"546 622 OFFCURVE",
"477 664 CURVE SMOOTH",
"420 699 OFFCURVE",
"380 728 OFFCURVE",
"359 751 CURVE SMOOTH",
"338 774 OFFCURVE",
"328 801 OFFCURVE",
"328 831 CURVE SMOOTH",
"328 883 OFFCURVE",
"362 924 OFFCURVE",
"430 924 CURVE SMOOTH",
"484 924 OFFCURVE",
"547 905 OFFCURVE",
"618 866 CURVE",
"705 1057 LINE",
"618 1109 OFFCURVE",
"525 1135 OFFCURVE",
"426 1135 CURVE SMOOTH"
);
}
);
width = 766;
}
);
unicode = 0073;
},
{
glyphname = scaron;
lastChange = "2013-03-07 05:35:11 +0200";
layers = (
{
layerId = "72C2BD91-63AC-4E79-A4ED-224E2850FB61";
name = "Bold Condensed";
paths = (
{
closed = 1;
nodes = (
"313 1135 OFFCURVE",
"223 1107 OFFCURVE",
"158 1052 CURVE SMOOTH",
"92.9999 996.999 OFFCURVE",
"61 922 OFFCURVE",
"61 827 CURVE SMOOTH",
"61 679 OFFCURVE",
"126 577 OFFCURVE",
"287 481 CURVE SMOOTH",
"348 444 OFFCURVE",
"389 413 OFFCURVE",
"412 388 CURVE SMOOTH",
"435 363 OFFCURVE",
"446 333 OFFCURVE",
"446 299 CURVE SMOOTH",
"446 232 OFFCURVE",
"402 188 OFFCURVE",
"319 188 CURVE SMOOTH",
"282 188 OFFCURVE",
"238 196 OFFCURVE",
"189 213 CURVE SMOOTH",
"140 230 OFFCURVE",
"97.9999 251 OFFCURVE",
"61 276 CURVE",
"61 45 LINE",
"133 2 OFFCURVE",
"224 -20 OFFCURVE",
"334 -20 CURVE SMOOTH",
"582 -20 OFFCURVE",
"711 109 OFFCURVE",
"711 326 CURVE SMOOTH",
"711 376 OFFCURVE",
"703 420 OFFCURVE",
"688 457 CURVE SMOOTH",
"673 494 OFFCURVE",
"651 528 OFFCURVE",
"623 557 CURVE SMOOTH",
"595 586 OFFCURVE",
"546 622 OFFCURVE",
"477 664 CURVE SMOOTH",
"420 699 OFFCURVE",
"380 728 OFFCURVE",
"359 751 CURVE SMOOTH",
"338 774 OFFCURVE",
"328 801 OFFCURVE",
"328 831 CURVE SMOOTH",
"328 883 OFFCURVE",
"362 924 OFFCURVE",
"430 924 CURVE SMOOTH",
"484 924 OFFCURVE",
"547 905 OFFCURVE",
"618 866 CURVE",
"705 1057 LINE",
"618 1109 OFFCURVE",
"525 1135 OFFCURVE",
"426 1135 CURVE SMOOTH"
);
},
{
closed = 1;
nodes = (
"571 1569 LINE",
"510 1519 OFFCURVE",
"448 1460 OFFCURVE",
"386 1391 CURVE",
"323 1464 OFFCURVE",
"259 1523 OFFCURVE",
"196 1569 CURVE",
"28 1569 LINE",
"28 1542 LINE",
"143 1396 OFFCURVE",
"216 1296 OFFCURVE",
"245 1241 CURVE",
"522 1241 LINE",
"557 1303 OFFCURVE",
"629 1403 OFFCURVE",
"739 1542 CURVE",
"739 1569 LINE"
);
}
);
width = 766;
}
);
unicode = 0161;
},
{
glyphname = germandbls;
lastChange = "2013-03-07 05:35:10 +0200";
layers = (
{
layerId = "72C2BD91-63AC-4E79-A4ED-224E2850FB61";
name = "Bold Condensed";
paths = (
{
closed = 1;
nodes = (
"269 1567 OFFCURVE",
"113 1420 OFFCURVE",
"113 1151 CURVE SMOOTH",
"113 0 LINE",
"379 0 LINE",
"379 1143 LINE SMOOTH",
"379 1278 OFFCURVE",
"433 1346 OFFCURVE",
"541 1346 CURVE SMOOTH",
"640 1346 OFFCURVE",
"692 1291 OFFCURVE",
"692 1200 CURVE SMOOTH",
"692 1169 OFFCURVE",
"684 1140 OFFCURVE",
"669 1113 CURVE SMOOTH",
"654 1087 OFFCURVE",
"628 1055 OFFCURVE",
"589 1017 CURVE SMOOTH",
"517 946 OFFCURVE",
"485 882 OFFCURVE",
"485 799 CURVE SMOOTH",
"485 742 OFFCURVE",
"498 693 OFFCURVE",
"523 651 CURVE SMOOTH",
"549 609 OFFCURVE",
"592 566 OFFCURVE",
"651 522 CURVE SMOOTH",
"710 476 OFFCURVE",
"748 439 OFFCURVE",
"766 412 CURVE SMOOTH",
"784 385 OFFCURVE",
"793 354 OFFCURVE",
"793 317 CURVE SMOOTH",
"793 231 OFFCURVE",
"748 188 OFFCURVE",
"659 188 CURVE SMOOTH",
"590 188 OFFCURVE",
"521 211 OFFCURVE",
"451 258 CURVE",
"451 33 LINE",
"512 -2 OFFCURVE",
"589 -20 OFFCURVE",
"682 -20 CURVE SMOOTH",
"926 -20 OFFCURVE",
"1065 113 OFFCURVE",
"1065 338 CURVE SMOOTH",
"1065 403 OFFCURVE",
"1054 459 OFFCURVE",
"1031 506 CURVE SMOOTH",
"1009 553 OFFCURVE",
"966 602 OFFCURVE",
"903 653 CURVE SMOOTH",
"836 707 OFFCURVE",
"794 745 OFFCURVE",
"776 767 CURVE SMOOTH",
"759 789 OFFCURVE",
"750 812 OFFCURVE",
"750 836 CURVE SMOOTH",
"750 859 OFFCURVE",
"769 890 OFFCURVE",
"806 929 CURVE SMOOTH",
"857 981.999 LINE SMOOTH",
"928 1057 OFFCURVE",
"963 1144 OFFCURVE",
"963 1245 CURVE SMOOTH",
"963 1346 OFFCURVE",
"926 1425 OFFCURVE",
"852 1482 CURVE SMOOTH",
"778 1539 OFFCURVE",
"676 1567 OFFCURVE",
"545 1567 CURVE SMOOTH"
);
}
);
width = 1108;
}
);
unicode = 00DF;
},
{
glyphname = t;
lastChange = "2013-03-07 05:35:10 +0200";
layers = (
{
layerId = "72C2BD91-63AC-4E79-A4ED-224E2850FB61";
name = "Bold Condensed";
paths = (
{
closed = 1;
nodes = (
"240 1354 LINE",
"172 1118 LINE",
"33 1022 LINE",
"33 903 LINE",
"141 903 LINE",
"141 326 LINE SMOOTH",
"141 94.9999 OFFCURVE",
"233 -20 OFFCURVE",
"426 -20 CURVE SMOOTH",
"513 -20 OFFCURVE",
"578 -5 OFFCURVE",
"621 25 CURVE",
"621 233 LINE",
"578 214 OFFCURVE",
"537 205 OFFCURVE",
"500 205 CURVE SMOOTH",
"440 205 OFFCURVE",
"410 242 OFFCURVE",
"410 317 CURVE SMOOTH",
"410 903 LINE",
"612 903 LINE",
"612 1114 LINE",
"410 1114 LINE",
"410 1354 LINE"
);
}
);
width = 664;
}
);
unicode = 0074;
},
{
glyphname = u;
lastChange = "2013-03-07 05:35:10 +0200";
layers = (
{
layerId = "72C2BD91-63AC-4E79-A4ED-224E2850FB61";
name = "Bold Condensed";
paths = (
{
closed = 1;
nodes = (
"659 1114 LINE",
"659 580 LINE SMOOTH",
"659 445 OFFCURVE",
"646 348 OFFCURVE",
"619 291 CURVE SMOOTH",
"593 234 OFFCURVE",
"551 205 OFFCURVE",
"494 205 CURVE SMOOTH",
"407 205 OFFCURVE",
"371 288 OFFCURVE",
"371 451 CURVE SMOOTH",
"371 1114 LINE",
"102 1114 LINE",
"102 387 LINE SMOOTH",
"102 116 OFFCURVE",
"206 -20 OFFCURVE",
"406 -20 CURVE SMOOTH",
"523 -20 OFFCURVE",
"619 42 OFFCURVE",
"668 143 CURVE",
"682 143 LINE",
"715 0 LINE",
"928 0 LINE",
"928 1114 LINE"
);
}
);
width = 1038;
}
);
unicode = 0075;
},
{
glyphname = uacute;
lastChange = "2013-03-07 05:35:11 +0200";
layers = (
{
layerId = "72C2BD91-63AC-4E79-A4ED-224E2850FB61";
name = "Bold Condensed";
paths = (
{
closed = 1;
nodes = (
"659 1114 LINE",
"659 580 LINE SMOOTH",
"659 445 OFFCURVE",
"646 348 OFFCURVE",
"619 291 CURVE SMOOTH",
"593 234 OFFCURVE",
"551 205 OFFCURVE",
"494 205 CURVE SMOOTH",
"407 205 OFFCURVE",
"371 288 OFFCURVE",
"371 451 CURVE SMOOTH",
"371 1114 LINE",
"102 1114 LINE",
"102 387 LINE SMOOTH",
"102 116 OFFCURVE",
"206 -20 OFFCURVE",
"406 -20 CURVE SMOOTH",
"523 -20 OFFCURVE",
"619 42 OFFCURVE",
"668 143 CURVE",
"682 143 LINE",
"715 0 LINE",
"928 0 LINE",
"928 1114 LINE"
);
},
{
closed = 1;
nodes = (
"553 1569 LINE",
"538 1534 OFFCURVE",
"512 1484 OFFCURVE",
"476 1419 CURVE SMOOTH",
"440 1354 OFFCURVE",
"408 1303 OFFCURVE",
"381 1268 CURVE",
"381 1241 LINE",
"568 1241 LINE",
"627 1290 OFFCURVE",
"689 1346 OFFCURVE",
"752 1409 CURVE SMOOTH",
"815 1473 OFFCURVE",
"855 1519 OFFCURVE",
"871 1548 CURVE",
"871 1569 LINE"
);
}
);
width = 1038;
}
);
unicode = 00FA;
},
{
glyphname = ucircumflex;
lastChange = "2013-03-07 05:35:11 +0200";
layers = (
{
layerId = "72C2BD91-63AC-4E79-A4ED-224E2850FB61";
name = "Bold Condensed";
paths = (
{
closed = 1;
nodes = (
"659 1114 LINE",
"659 580 LINE SMOOTH",
"659 445 OFFCURVE",
"646 348 OFFCURVE",
"619 291 CURVE SMOOTH",
"593 234 OFFCURVE",
"551 205 OFFCURVE",
"494 205 CURVE SMOOTH",
"407 205 OFFCURVE",
"371 288 OFFCURVE",
"371 451 CURVE SMOOTH",
"371 1114 LINE",
"102 1114 LINE",
"102 387 LINE SMOOTH",
"102 116 OFFCURVE",
"206 -20 OFFCURVE",
"406 -20 CURVE SMOOTH",
"523 -20 OFFCURVE",
"619 42 OFFCURVE",
"668 143 CURVE",
"682 143 LINE",
"715 0 LINE",
"928 0 LINE",
"928 1114 LINE"
);
},
{
closed = 1;
nodes = (
"380 1569 LINE",
"353 1517 OFFCURVE",
"281 1417 OFFCURVE",
"163 1268 CURVE",
"163 1241 LINE",
"331 1241 LINE",
"396 1293 OFFCURVE",
"458 1352 OFFCURVE",
"517 1419 CURVE",
"579 1348 OFFCURVE",
"642 1289 OFFCURVE",
"706 1241 CURVE",
"874 1241 LINE",
"874 1268 LINE",
"761 1411 OFFCURVE",
"688 1511 OFFCURVE",
"657 1569 CURVE"
);
}
);
width = 1038;
}
);
unicode = 00FB;
},
{
glyphname = udieresis;
lastChange = "2013-03-07 05:35:11 +0200";
layers = (
{
layerId = "72C2BD91-63AC-4E79-A4ED-224E2850FB61";
name = "Bold Condensed";
paths = (
{
closed = 1;
nodes = (
"659 1114 LINE",
"659 580 LINE SMOOTH",
"659 445 OFFCURVE",
"646 348 OFFCURVE",
"619 291 CURVE SMOOTH",
"593 234 OFFCURVE",
"551 205 OFFCURVE",
"494 205 CURVE SMOOTH",
"407 205 OFFCURVE",
"371 288 OFFCURVE",
"371 451 CURVE SMOOTH",
"371 1114 LINE",
"102 1114 LINE",
"102 387 LINE SMOOTH",
"102 116 OFFCURVE",
"206 -20 OFFCURVE",
"406 -20 CURVE SMOOTH",
"523 -20 OFFCURVE",
"619 42 OFFCURVE",
"668 143 CURVE",
"682 143 LINE",
"715 0 LINE",
"928 0 LINE",
"928 1114 LINE"
);
},
{
closed = 1;
nodes = (
"234 1532 OFFCURVE",
"185 1484 OFFCURVE",
"185 1403 CURVE SMOOTH",
"185 1323 OFFCURVE",
"234 1276 OFFCURVE",
"317 1276 CURVE SMOOTH",
"400 1276 OFFCURVE",
"450 1327 OFFCURVE",
"450 1403 CURVE SMOOTH",
"450 1480 OFFCURVE",
"400 1532 OFFCURVE",
"317 1532 CURVE SMOOTH"
);
},
{
closed = 1;
nodes = (
"632 1532 OFFCURVE",
"583 1483 OFFCURVE",
"583 1403 CURVE SMOOTH",
"583 1326 OFFCURVE",
"633 1276 OFFCURVE",
"716 1276 CURVE SMOOTH",
"799 1276 OFFCURVE",
"849 1324 OFFCURVE",
"849 1403 CURVE SMOOTH",
"849 1484 OFFCURVE",
"797 1532 OFFCURVE",
"716 1532 CURVE SMOOTH"
);
}
);
width = 1038;
}
);
unicode = 00FC;
},
{
glyphname = ugrave;
lastChange = "2013-03-07 05:35:11 +0200";
layers = (
{
layerId = "72C2BD91-63AC-4E79-A4ED-224E2850FB61";
name = "Bold Condensed";
paths = (
{
closed = 1;
nodes = (
"659 1114 LINE",
"659 580 LINE SMOOTH",
"659 445 OFFCURVE",
"646 348 OFFCURVE",
"619 291 CURVE SMOOTH",
"593 234 OFFCURVE",
"551 205 OFFCURVE",
"494 205 CURVE SMOOTH",
"407 205 OFFCURVE",
"371 288 OFFCURVE",
"371 451 CURVE SMOOTH",
"371 1114 LINE",
"102 1114 LINE",
"102 387 LINE SMOOTH",
"102 116 OFFCURVE",
"206 -20 OFFCURVE",
"406 -20 CURVE SMOOTH",
"523 -20 OFFCURVE",
"619 42 OFFCURVE",
"668 143 CURVE",
"682 143 LINE",
"715 0 LINE",
"928 0 LINE",
"928 1114 LINE"
);
},
{
closed = 1;
nodes = (
"160 1569 LINE",
"160 1548 LINE",
"177 1517 OFFCURVE",
"220 1468 OFFCURVE",
"287 1401 CURVE SMOOTH",
"354 1334 OFFCURVE",
"413 1281 OFFCURVE",
"463 1241 CURVE",
"650 1241 LINE",
"650 1268 LINE",
"625 1301 OFFCURVE",
"594 1350 OFFCURVE",
"558 1413 CURVE SMOOTH",
"523 1477 OFFCURVE",
"496 1529 OFFCURVE",
"478 1569 CURVE"
);
}
);
width = 1038;
}
);
unicode = 00F9;
},
{
glyphname = v;
lastChange = "2013-03-07 05:35:10 +0200";
layers = (
{
layerId = "72C2BD91-63AC-4E79-A4ED-224E2850FB61";
name = "Bold Condensed";
paths = (
{
closed = 1;
nodes = (
"637 1114 LINE",
"540 671 OFFCURVE",
"488 433 OFFCURVE",
"483 402 CURVE SMOOTH",
"478 371 OFFCURVE",
"472 336 OFFCURVE",
"467 299 CURVE SMOOTH",
"462 262 OFFCURVE",
"460 233 OFFCURVE",
"459 213 CURVE",
"455 213 LINE",
"453 238 OFFCURVE",
"448 280 OFFCURVE",
"439 337 CURVE SMOOTH",
"431 395 OFFCURVE",
"424 439 OFFCURVE",
"418 469 CURVE SMOOTH",
"276 1114 LINE",
"0 1114 LINE",
"291 0 LINE",
"621 0 LINE",
"913 1114 LINE"
);
}
);
width = 913;
}
);
unicode = 0076;
},
{
glyphname = w;
lastChange = "2013-03-07 05:35:10 +0200";
layers = (
{
layerId = "72C2BD91-63AC-4E79-A4ED-224E2850FB61";
name = "Bold Condensed";
paths = (
{
closed = 1;
nodes = (
"1198 1114 LINE",
"1092 500 LINE SMOOTH",
"1078 420 OFFCURVE",
"1066 320 OFFCURVE",
"1057 201 CURVE",
"1053 201 LINE",
"1044 335 OFFCURVE",
"1033 435 OFFCURVE",
"1020 500 CURVE SMOOTH",
"911 1114 LINE",
"569 1114 LINE",
"459 502 LINE",
"456 481 OFFCURVE",
"450 435 OFFCURVE",
"442 362 CURVE SMOOTH",
"434 290 OFFCURVE",
"429 236 OFFCURVE",
"428 201 CURVE",
"422 201 LINE",
"412 332 OFFCURVE",
"401 432 OFFCURVE",
"389 500 CURVE SMOOTH",
"287 1114 LINE",
"20 1114 LINE",
"242 0 LINE",
"584 0 LINE",
"663 445 OFFCURVE",
"705 688 OFFCURVE",
"711 727 CURVE SMOOTH",
"717 767 OFFCURVE",
"725 831 OFFCURVE",
"735 920 CURVE",
"739 920 LINE",
"778 647 LINE",
"889 0 LINE",
"1235 0 LINE",
"1458 1114 LINE"
);
}
);
width = 1479;
}
);
unicode = 0077;
},
{
glyphname = x;
lastChange = "2013-03-07 05:35:10 +0200";
layers = (
{
layerId = "72C2BD91-63AC-4E79-A4ED-224E2850FB61";
name = "Bold Condensed";
paths = (
{
closed = 1;
nodes = (
"588 1114 LINE",
"451 774 LINE",
"303 1114 LINE",
"27 1114 LINE",
"305 569 LINE",
"14 0 LINE",
"291 0 LINE",
"438 356 LINE",
"596 0 LINE",
"874 0 LINE",
"582 569 LINE",
"862 1114 LINE"
);
}
);
width = 889;
}
);
unicode = 0078;
},
{
glyphname = y;
lastChange = "2013-03-07 05:35:10 +0200";
layers = (
{
layerId = "72C2BD91-63AC-4E79-A4ED-224E2850FB61";
name = "Bold Condensed";
paths = (
{
closed = 1;
nodes = (
"633 1114 LINE",
"544 683 OFFCURVE",
"498 455 OFFCURVE",
"495 432 CURVE SMOOTH",
"482 335 LINE SMOOTH",
"477 294 OFFCURVE",
"474 266 OFFCURVE",
"473 250 CURVE",
"467 250 LINE",
"458 351 OFFCURVE",
"445 429 OFFCURVE",
"430 485 CURVE SMOOTH",
"276 1114 LINE",
"0 1114 LINE",
"330 -18 LINE",
"311 -88 LINE SMOOTH",
"283 -205 OFFCURVE",
"224 -264 OFFCURVE",
"135 -264 CURVE SMOOTH",
"101 -264 OFFCURVE",
"70 -260 OFFCURVE",
"43 -252 CURVE",
"43 -475 LINE",
"84 -486 OFFCURVE",
"131 -492 OFFCURVE",
"184 -492 CURVE SMOOTH",
"291 -492 OFFCURVE",
"376 -460 OFFCURVE",
"440 -396 CURVE SMOOTH",
"504 -332 OFFCURVE",
"555 -227 OFFCURVE",
"594 -80 CURVE SMOOTH",
"913 1114 LINE"
);
}
);
width = 913;
}
);
unicode = 0079;
},
{
glyphname = yacute;
lastChange = "2013-03-07 05:35:11 +0200";
layers = (
{
layerId = "72C2BD91-63AC-4E79-A4ED-224E2850FB61";
name = "Bold Condensed";
paths = (
{
closed = 1;
nodes = (
"633 1114 LINE",
"544 683 OFFCURVE",
"498 455 OFFCURVE",
"495 432 CURVE SMOOTH",
"482 335 LINE SMOOTH",
"477 294 OFFCURVE",
"474 266 OFFCURVE",
"473 250 CURVE",
"467 250 LINE",
"458 351 OFFCURVE",
"445 429 OFFCURVE",
"430 485 CURVE SMOOTH",
"276 1114 LINE",
"0 1114 LINE",
"330 -18 LINE",
"311 -88 LINE SMOOTH",
"283 -205 OFFCURVE",
"224 -264 OFFCURVE",
"135 -264 CURVE SMOOTH",
"101 -264 OFFCURVE",
"70 -260 OFFCURVE",
"43 -252 CURVE",
"43 -475 LINE",
"84 -486 OFFCURVE",
"131 -492 OFFCURVE",
"184 -492 CURVE SMOOTH",
"291 -492 OFFCURVE",
"376 -460 OFFCURVE",
"440 -396 CURVE SMOOTH",
"504 -332 OFFCURVE",
"555 -227 OFFCURVE",
"594 -80 CURVE SMOOTH",
"913 1114 LINE"
);
},
{
closed = 1;
nodes = (
"482 1569 LINE",
"467 1534 OFFCURVE",
"441 1484 OFFCURVE",
"405 1419 CURVE SMOOTH",
"369 1354 OFFCURVE",
"337 1303 OFFCURVE",
"310 1268 CURVE",
"310 1241 LINE",
"497 1241 LINE",
"556 1290 OFFCURVE",
"618 1346 OFFCURVE",
"681 1409 CURVE SMOOTH",
"744 1473 OFFCURVE",
"784 1519 OFFCURVE",
"800 1548 CURVE",
"800 1569 LINE"
);
}
);
width = 913;
}
);
unicode = 00FD;
},
{
glyphname = ydieresis;
lastChange = "2013-03-07 05:35:11 +0200";
layers = (
{
layerId = "72C2BD91-63AC-4E79-A4ED-224E2850FB61";
name = "Bold Condensed";
paths = (
{
closed = 1;
nodes = (
"633 1114 LINE",
"544 683 OFFCURVE",
"498 455 OFFCURVE",
"495 432 CURVE SMOOTH",
"482 335 LINE SMOOTH",
"477 294 OFFCURVE",
"474 266 OFFCURVE",
"473 250 CURVE",
"467 250 LINE",
"458 351 OFFCURVE",
"445 429 OFFCURVE",
"430 485 CURVE SMOOTH",
"276 1114 LINE",
"0 1114 LINE",
"330 -18 LINE",
"311 -88 LINE SMOOTH",
"283 -205 OFFCURVE",
"224 -264 OFFCURVE",
"135 -264 CURVE SMOOTH",
"101 -264 OFFCURVE",
"70 -260 OFFCURVE",
"43 -252 CURVE",
"43 -475 LINE",
"84 -486 OFFCURVE",
"131 -492 OFFCURVE",
"184 -492 CURVE SMOOTH",
"291 -492 OFFCURVE",
"376 -460 OFFCURVE",
"440 -396 CURVE SMOOTH",
"504 -332 OFFCURVE",
"555 -227 OFFCURVE",
"594 -80 CURVE SMOOTH",
"913 1114 LINE"
);
},
{
closed = 1;
nodes = (
"174 1532 OFFCURVE",
"125 1484 OFFCURVE",
"125 1403 CURVE SMOOTH",
"125 1323 OFFCURVE",
"174 1276 OFFCURVE",
"257 1276 CURVE SMOOTH",
"340 1276 OFFCURVE",
"390 1327 OFFCURVE",
"390 1403 CURVE SMOOTH",
"390 1480 OFFCURVE",
"340 1532 OFFCURVE",
"257 1532 CURVE SMOOTH"
);
},
{
closed = 1;
nodes = (
"572 1532 OFFCURVE",
"523 1483 OFFCURVE",
"523 1403 CURVE SMOOTH",
"523 1326 OFFCURVE",
"573 1276 OFFCURVE",
"656 1276 CURVE SMOOTH",
"739 1276 OFFCURVE",
"789 1324 OFFCURVE",
"789 1403 CURVE SMOOTH",
"789 1484 OFFCURVE",
"737 1532 OFFCURVE",
"656 1532 CURVE SMOOTH"
);
}
);
width = 913;
}
);
unicode = 00FF;
},
{
glyphname = z;
lastChange = "2013-03-07 05:35:10 +0200";
layers = (
{
layerId = "72C2BD91-63AC-4E79-A4ED-224E2850FB61";
name = "Bold Condensed";
paths = (
{
closed = 1;
nodes = (
"63 1114 LINE",
"63 899 LINE",
"383 899 LINE",
"41 170 LINE",
"41 0 LINE",
"690 0 LINE",
"690 215 LINE",
"344 215 LINE",
"676 926 LINE",
"676 1114 LINE"
);
}
);
width = 731;
}
);
unicode = 007A;
},
{
glyphname = zcaron;
lastChange = "2013-03-07 05:35:11 +0200";
layers = (
{
layerId = "72C2BD91-63AC-4E79-A4ED-224E2850FB61";
name = "Bold Condensed";
paths = (
{
closed = 1;
nodes = (
"63 1114 LINE",
"63 899 LINE",
"383 899 LINE",
"41 170 LINE",
"41 0 LINE",
"690 0 LINE",
"690 215 LINE",
"344 215 LINE",
"676 926 LINE",
"676 1114 LINE"
);
},
{
closed = 1;
nodes = (
"556 1569 LINE",
"495 1519 OFFCURVE",
"433 1460 OFFCURVE",
"371 1391 CURVE",
"308 1464 OFFCURVE",
"244 1523 OFFCURVE",
"181 1569 CURVE",
"13 1569 LINE",
"13 1542 LINE",
"128 1396 OFFCURVE",
"201 1296 OFFCURVE",
"230 1241 CURVE",
"507 1241 LINE",
"542 1303 OFFCURVE",
"614 1403 OFFCURVE",
"724 1542 CURVE",
"724 1569 LINE"
);
}
);
width = 731;
}
);
unicode = 017E;
},
{
glyphname = uniFB01;
lastChange = "2013-03-07 05:35:11 +0200";
layers = (
{
layerId = "72C2BD91-63AC-4E79-A4ED-224E2850FB61";
name = "Bold Condensed";
paths = (
{
closed = 1;
nodes = (
"255 1567 OFFCURVE",
"158 1448 OFFCURVE",
"158 1200 CURVE SMOOTH",
"158 1116 LINE",
"29 1036 LINE",
"29 903 LINE",
"158 903 LINE",
"158 0 LINE",
"424 0 LINE",
"424 903 LINE",
"608 903 LINE",
"608 1114 LINE",
"424 1114 LINE",
"424 1196 LINE SMOOTH",
"424 1296 OFFCURVE",
"451 1343 OFFCURVE",
"512 1343 CURVE SMOOTH",
"547 1343 OFFCURVE",
"581 1335 OFFCURVE",
"614 1319 CURVE",
"684 1522 LINE",
"622 1552 OFFCURVE",
"555 1567 OFFCURVE",
"483 1567 CURVE SMOOTH"
);
},
{
closed = 1;
nodes = (
"727 1114 LINE",
"727 0 LINE",
"992.999 0 LINE",
"992.999 1114 LINE"
);
},
{
closed = 1;
nodes = (
"770 1548 OFFCURVE",
"716 1493 OFFCURVE",
"716 1405 CURVE SMOOTH",
"716 1314 OFFCURVE",
"774 1262 OFFCURVE",
"862 1262 CURVE SMOOTH",
"946 1262 OFFCURVE",
"1005 1314 OFFCURVE",
"1005 1405 CURVE SMOOTH",
"1005 1493 OFFCURVE",
"949 1548 OFFCURVE",
"862 1548 CURVE SMOOTH"
);
}
);
width = 1108;
}
);
unicode = FB01;
},
{
glyphname = uniFB02;
lastChange = "2013-03-07 05:35:11 +0200";
layers = (
{
layerId = "72C2BD91-63AC-4E79-A4ED-224E2850FB61";
name = "Bold Condensed";
paths = (
{
closed = 1;
nodes = (
"255 1567 OFFCURVE",
"158 1448 OFFCURVE",
"158 1200 CURVE SMOOTH",
"158 1116 LINE",
"29 1036 LINE",
"29 903 LINE",
"158 903 LINE",
"158 0 LINE",
"424 0 LINE",
"424 903 LINE",
"608 903 LINE",
"608 1114 LINE",
"424 1114 LINE",
"424 1196 LINE SMOOTH",
"424 1296 OFFCURVE",
"451 1343 OFFCURVE",
"512 1343 CURVE SMOOTH",
"547 1343 OFFCURVE",
"581 1335 OFFCURVE",
"614 1319 CURVE",
"684 1522 LINE",
"622 1552 OFFCURVE",
"555 1567 OFFCURVE",
"483 1567 CURVE SMOOTH"
);
},
{
closed = 1;
nodes = (
"725 1556 LINE",
"725 0 LINE",
"990.999 0 LINE",
"990.999 1556 LINE"
);
}
);
width = 1102;
}
);
unicode = FB02;
},
{
glyphname = ordfeminine;
lastChange = "2013-03-07 05:35:11 +0200";
layers = (
{
layerId = "72C2BD91-63AC-4E79-A4ED-224E2850FB61";
name = "Bold Condensed";
paths = (
{
closed = 1;
nodes = (
"267 1479 OFFCURVE",
"181 1453 OFFCURVE",
"95.9999 1401 CURVE",
"152 1274 LINE",
"215 1312 OFFCURVE",
"269 1331 OFFCURVE",
"315 1331 CURVE SMOOTH",
"384 1331 OFFCURVE",
"418 1291 OFFCURVE",
"418 1212 CURVE SMOOTH",
"418 1204 LINE",
"336 1200 LINE SMOOTH",
"141 1189 OFFCURVE",
"57 1121 OFFCURVE",
"57 976.999 CURVE SMOOTH",
"57 826 OFFCURVE",
"133 758 OFFCURVE",
"252 758 CURVE SMOOTH",
"332 758 OFFCURVE",
"399 801 OFFCURVE",
"442 874 CURVE",
"469 770 LINE",
"586 770 LINE",
"586 1217 LINE SMOOTH",
"586 1384 OFFCURVE",
"507 1479 OFFCURVE",
"352 1479 CURVE SMOOTH"
);
},
{
closed = 1;
nodes = (
"418 1053 LINE SMOOTH",
"418 957 OFFCURVE",
"369 901 OFFCURVE",
"293 901 CURVE SMOOTH",
"250 901 OFFCURVE",
"229 927 OFFCURVE",
"229 978.999 CURVE SMOOTH",
"229 1047 OFFCURVE",
"269 1078 OFFCURVE",
"346 1085 CURVE SMOOTH",
"418 1092 LINE"
);
}
);
width = 682;
}
);
unicode = 00AA;
},
{
glyphname = ordmasculine;
lastChange = "2013-03-07 05:35:11 +0200";
layers = (
{
layerId = "72C2BD91-63AC-4E79-A4ED-224E2850FB61";
name = "Bold Condensed";
paths = (
{
closed = 1;
nodes = (
"255 1479 OFFCURVE",
"186 1447 OFFCURVE",
"136 1384 CURVE SMOOTH",
"86 1321 OFFCURVE",
"61 1233 OFFCURVE",
"61 1120 CURVE SMOOTH",
"61 1010 OFFCURVE",
"86 922 OFFCURVE",
"136 856 CURVE SMOOTH",
"187 791 OFFCURVE",
"255 758 OFFCURVE",
"342 758 CURVE SMOOTH",
"429 758 OFFCURVE",
"498 790 OFFCURVE",
"549 853 CURVE SMOOTH",
"600 917 OFFCURVE",
"625 1006 OFFCURVE",
"625 1120 CURVE SMOOTH",
"625 1231 OFFCURVE",
"599 1318 OFFCURVE",
"548 1382 CURVE SMOOTH",
"497 1447 OFFCURVE",
"429 1479 OFFCURVE",
"344 1479 CURVE SMOOTH"
);
},
{
closed = 1;
nodes = (
"420 1325 OFFCURVE",
"453 1261 OFFCURVE",
"453 1120 CURVE SMOOTH",
"453 978.999 OFFCURVE",
"420 911 OFFCURVE",
"344 911 CURVE SMOOTH",
"268 911 OFFCURVE",
"233 978.999 OFFCURVE",
"233 1120 CURVE SMOOTH",
"233 1261 OFFCURVE",
"268 1325 OFFCURVE",
"344 1325 CURVE SMOOTH"
);
}
);
width = 686;
}
);
unicode = 00BA;
},
{
glyphname = "alef-hb";
lastChange = "2013-03-07 05:35:11 +0200";
layers = (
{
anchors = (
{
name = bottom;
position = "{512, 0}";
},
{
name = bottomleft;
position = "{20, 0}";
},
{
name = center;
position = "{473, 60}";
},
{
name = top;
position = "{512, 1118}";
},
{
name = topleft;
position = "{133, 1118}";
}
);
layerId = "72C2BD91-63AC-4E79-A4ED-224E2850FB61";
name = "Bold Condensed";
paths = (
{
closed = 1;
nodes = (
"704 1290 LINE",
"704 825 LINE SMOOTH",
"703 749 OFFCURVE",
"689 696 OFFCURVE",
"646 664 CURVE",
"560 848 LINE",
"368 1290 LINE",
"61 1290 LINE",
"294 819 LINE",
"108 742 OFFCURVE",
"86 593 OFFCURVE",
"86 461 CURVE SMOOTH",
"86 0 LINE",
"351 0 LINE",
"351 464 LINE SMOOTH",
"351 530 OFFCURVE",
"362 580 OFFCURVE",
"394 612 CURVE",
"651 0 LINE",
"959 0 LINE",
"741 462 LINE",
"944 536 OFFCURVE",
"968.999 691 OFFCURVE",
"968.999 828 CURVE SMOOTH",
"968.999 1290 LINE"
);
}
);
width = 1024;
}
);
unicode = 05D0;
},
{
glyphname = "bet-hb";
lastChange = "2013-03-07 05:35:11 +0200";
layers = (
{
anchors = (
{
name = bottom;
position = "{464, 0}";
},
{
name = bottomleft;
position = "{20, 0}";
},
{
name = center;
position = "{267, 559}";
},
{
name = top;
position = "{464, 1118}";
},
{
name = topleft;
position = "{157, 1118}";
}
);
layerId = "72C2BD91-63AC-4E79-A4ED-224E2850FB61";
name = "Bold Condensed";
paths = (
{
closed = 1;
nodes = (
"203 1310 OFFCURVE",
"84 1294 OFFCURVE",
"84 1294 CURVE",
"84 1076 LINE",
"84 1076 OFFCURVE",
"160 1093 OFFCURVE",
"305 1093 CURVE SMOOTH",
"450 1093 OFFCURVE",
"493 1038 OFFCURVE",
"493 862 CURVE SMOOTH",
"493 215 LINE",
"84 215 LINE SMOOTH",
"84 215 OFFCURVE",
"84 0 OFFCURVE",
"84 0 CURVE",
"894 0 LINE",
"894 0 OFFCURVE",
"894 215 OFFCURVE",
"894 215 CURVE SMOOTH",
"760 215 LINE",
"760 861 LINE SMOOTH",
"760 1152 OFFCURVE",
"703 1310 OFFCURVE",
"344 1310 CURVE SMOOTH"
);
}
);
width = 927;
}
);
unicode = 05D1;
},
{
glyphname = "gimel-hb";
lastChange = "2013-03-07 05:35:11 +0200";
layers = (
{
anchors = (
{
name = bottom;
position = "{393, 0}";
},
{
name = bottomleft;
position = "{20, 0}";
},
{
name = center;
position = "{220, 559}";
},
{
name = top;
position = "{393, 1118}";
},
{
name = topleft;
position = "{234, 1118}";
}
);
layerId = "72C2BD91-63AC-4E79-A4ED-224E2850FB61";
name = "Bold Condensed";
paths = (
{
closed = 1;
nodes = (
"234 1310 OFFCURVE",
"166 1287 OFFCURVE",
"166 1287 CURVE",
"166 1064 LINE",
"166 1064 OFFCURVE",
"234 1087 OFFCURVE",
"300 1087 CURVE SMOOTH",
"397 1087 OFFCURVE",
"418 1001 OFFCURVE",
"418 926 CURVE SMOOTH",
"418 526 LINE SMOOTH",
"418 402 OFFCURVE",
"409 312 OFFCURVE",
"327 268 CURVE SMOOTH",
"211 206 OFFCURVE",
"60 237 OFFCURVE",
"59 238 CURVE",
"37 -9 LINE",
"37 -9 OFFCURVE",
"87 -20 OFFCURVE",
"138 -20 CURVE SMOOTH",
"371 -20 OFFCURVE",
"432 188 OFFCURVE",
"432 188 CURVE",
"447 188 LINE",
"447 188 OFFCURVE",
"492 0 OFFCURVE",
"492 0 CURVE",
"684 0 LINE",
"684 926 LINE SMOOTH",
"684 1152 OFFCURVE",
"640 1310 OFFCURVE",
"336 1310 CURVE SMOOTH"
);
}
);
width = 786;
}
);
unicode = 05D2;
},
{
glyphname = "dalet-hb";
lastChange = "2013-03-07 05:35:11 +0200";
layers = (
{
anchors = (
{
name = bottom;
position = "{553, 0}";
},
{
name = bottomleft;
position = "{20, 0}";
},
{
name = center;
position = "{213, 559}";
},
{
name = top;
position = "{422, 1118}";
},
{
name = topleft;
position = "{108, 1118}";
}
);
layerId = "72C2BD91-63AC-4E79-A4ED-224E2850FB61";
name = "Bold Condensed";
paths = (
{
closed = 1;
nodes = (
"27 1290 LINE",
"27 1075 LINE",
"559 1075 LINE",
"559 1068 LINE",
"559 1068 OFFCURVE",
"408 1021 OFFCURVE",
"408 826 CURVE SMOOTH",
"408 0 LINE",
"674 0 LINE",
"674 819 LINE SMOOTH",
"674 941 OFFCURVE",
"711 1045 OFFCURVE",
"826 1087 CURVE",
"826 1290 LINE"
);
}
);
width = 844;
}
);
unicode = 05D3;
},
{
glyphname = "he-hb";
lastChange = "2013-03-07 05:35:11 +0200";
layers = (
{
anchors = (
{
name = bottom;
position = "{519, 0}";
},
{
name = bottomleft;
position = "{20, 0}";
},
{
name = center;
position = "{525, 559}";
},
{
name = top;
position = "{519, 1118}";
},
{
name = topleft;
position = "{180, 1118}";
}
);
layerId = "72C2BD91-63AC-4E79-A4ED-224E2850FB61";
name = "Bold Condensed";
paths = (
{
closed = 1;
nodes = (
"256 1310 OFFCURVE",
"113 1267 OFFCURVE",
"113 1267 CURVE",
"113 1054 LINE",
"113 1054 OFFCURVE",
"315 1093 OFFCURVE",
"480 1093 CURVE SMOOTH",
"625 1093 OFFCURVE",
"669 1038 OFFCURVE",
"669 862 CURVE SMOOTH",
"669 0 LINE",
"936 0 LINE",
"936 861 LINE SMOOTH",
"936 1152 OFFCURVE",
"878 1310 OFFCURVE",
"519 1310 CURVE SMOOTH"
);
},
{
closed = 1;
nodes = (
"113 823 LINE",
"113 0 LINE",
"380 0 LINE",
"380 823 LINE"
);
}
);
width = 1038;
}
);
unicode = 05D4;
},
{
glyphname = "vav-hb";
lastChange = "2013-03-07 07:50:04 +0200";
layers = (
{
anchors = (
{
name = bottom;
position = "{246, 0}";
},
{
name = bottomleft;
position = "{20, 0}";
},
{
name = center;
position = "{14, 559}";
},
{
name = top;
position = "{246, 1118}";
},
{
name = topleft;
position = "{180, 1118}";
}
);
layerId = "72C2BD91-63AC-4E79-A4ED-224E2850FB61";
name = "Bold Condensed";
paths = (
{
closed = 1;
nodes = (
"113 1290 LINE",
"113 0 LINE",
"379 0 LINE",
"379 1290 LINE"
);
}
);
width = 492;
}
);
unicode = 05D5;
},
{
glyphname = "zayin-hb";
lastChange = "2013-03-07 07:51:06 +0200";
layers = (
{
anchors = (
{
name = bottom;
position = "{285, 0}";
},
{
name = bottomleft;
position = "{20, 0}";
},
{
name = center;
position = "{10, 559}";
},
{
name = top;
position = "{285, 1118}";
},
{
name = topleft;
position = "{167, 1118}";
}
);
layerId = "72C2BD91-63AC-4E79-A4ED-224E2850FB61";
name = "Bold Condensed";
paths = (
{
closed = 1;
nodes = (
"97.9999 1290 LINE",
"97.9999 1075 LINE",
"352 1075 LINE",
"352 1068 LINE",
"352 1068 OFFCURVE",
"133 943 OFFCURVE",
"133 434 CURVE SMOOTH",
"133 0 LINE",
"399 0 LINE",
"399 434 LINE SMOOTH",
"399 606 OFFCURVE",
"402 788 OFFCURVE",
"486 966 CURVE SMOOTH",
"521 1041 OFFCURVE",
"541 1075 OFFCURVE",
"541 1075 CURVE",
"541 1290 LINE"
);
}
);
width = 570;
}
);
unicode = 05D6;
},
{
glyphname = "het-hb";
lastChange = "2013-03-07 05:35:11 +0200";
layers = (
{
anchors = (
{
name = bottom;
position = "{519, 0}";
},
{
name = bottomleft;
position = "{20, 0}";
},
{
name = center;
position = "{519, 559}";
},
{
name = top;
position = "{519, 1118}";
},
{
name = topleft;
position = "{173, 1118}";
}
);
layerId = "72C2BD91-63AC-4E79-A4ED-224E2850FB61";
name = "Bold Condensed";
paths = (
{
closed = 1;
nodes = (
"316 1310 OFFCURVE",
"157 1276 OFFCURVE",
"113 1267 CURVE",
"113 0 LINE",
"380 0 LINE",
"380 1084 LINE",
"408 1088 OFFCURVE",
"447 1093 OFFCURVE",
"480 1093 CURVE SMOOTH",
"625 1093 OFFCURVE",
"669 1038 OFFCURVE",
"669 862 CURVE SMOOTH",
"669 0 LINE",
"936 0 LINE",
"936 861 LINE SMOOTH",
"936 1152 OFFCURVE",
"878 1310 OFFCURVE",
"519 1310 CURVE SMOOTH"
);
}
);
width = 1038;
}
);
unicode = 05D7;
},
{
glyphname = "tet-hb";
lastChange = "2013-03-07 05:35:11 +0200";
layers = (
{
anchors = (
{
name = bottom;
position = "{519, 0}";
},
{
name = bottomleft;
position = "{20, 0}";
},
{
name = center;
position = "{519, 559}";
},
{
name = top;
position = "{519, 1118}";
},
{
name = topleft;
position = "{167, 1118}";
}
);
layerId = "72C2BD91-63AC-4E79-A4ED-224E2850FB61";
name = "Bold Condensed";
paths = (
{
closed = 1;
nodes = (
"514 1310 OFFCURVE",
"465 1301 OFFCURVE",
"465 1301 CURVE",
"465 1087 LINE",
"465 1087 OFFCURVE",
"509 1093 OFFCURVE",
"533 1093 CURVE SMOOTH",
"623 1093 OFFCURVE",
"692 1004 OFFCURVE",
"692 646 CURVE SMOOTH",
"692 288 OFFCURVE",
"623 197 OFFCURVE",
"533 197 CURVE SMOOTH",
"443 197 OFFCURVE",
"375 288 OFFCURVE",
"374 646 CURVE SMOOTH",
"373 1288 LINE",
"373 1288 OFFCURVE",
"102 1288 OFFCURVE",
"102 1288 CURVE",
"102 645 LINE SMOOTH",
"102 64 OFFCURVE",
"394 -20 OFFCURVE",
"533 -20 CURVE SMOOTH",
"672 -20 OFFCURVE",
"964 64 OFFCURVE",
"964 646 CURVE SMOOTH",
"964 921 OFFCURVE",
"880 1310 OFFCURVE",
"564 1310 CURVE SMOOTH"
);
}
);
width = 1038;
}
);
unicode = 05D8;
},
{
glyphname = "yod-hb";
lastChange = "2013-03-07 07:51:26 +0200";
layers = (
{
anchors = (
{
name = bottom;
position = "{246, 0}";
},
{
name = bottomleft;
position = "{20, 0}";
},
{
name = center;
position = "{14, 787}";
},
{
name = top;
position = "{246, 1118}";
},
{
name = topleft;
position = "{207, 1118}";
}
);
layerId = "72C2BD91-63AC-4E79-A4ED-224E2850FB61";
name = "Bold Condensed";
paths = (
{
closed = 1;
nodes = (
"113 1290 LINE",
"113 436 LINE",
"215 436 LINE",
"379 694 LINE",
"379 1290 LINE"
);
}
);
width = 492;
}
);
unicode = 05D9;
},
{
glyphname = "finalkaf-hb";
lastChange = "2013-03-07 07:51:46 +0200";
layers = (
{
anchors = (
{
name = bottom;
position = "{74, 407}";
},
{
name = bottomleft;
position = "{20, 0}";
},
{
name = center;
position = "{213, 559}";
},
{
name = top;
position = "{411, 1118}";
},
{
name = topleft;
position = "{133, 1118}";
}
);
layerId = "72C2BD91-63AC-4E79-A4ED-224E2850FB61";
name = "Bold Condensed";
paths = (
{
closed = 1;
nodes = (
"192 1310 OFFCURVE",
"121 1298 OFFCURVE",
"55 1283 CURVE",
"55 1061 LINE",
"119 1070 OFFCURVE",
"207 1082 OFFCURVE",
"287 1082 CURVE SMOOTH",
"414 1082 OFFCURVE",
"453 913 OFFCURVE",
"453 737 CURVE SMOOTH",
"453 -492 LINE",
"719 -492 LINE",
"719 737 LINE SMOOTH",
"719 1028 OFFCURVE",
"649 1310 OFFCURVE",
"308 1310 CURVE SMOOTH"
);
}
);
width = 821;
}
);
unicode = 05DA;
},
{
glyphname = "kaf-hb";
lastChange = "2013-03-07 05:35:11 +0200";
layers = (
{
anchors = (
{
name = bottom;
position = "{397, 0}";
},
{
name = bottomleft;
position = "{20, 0}";
},
{
name = center;
position = "{213, 559}";
},
{
name = top;
position = "{397, 1118}";
},
{
name = topleft;
position = "{127, 1118}";
}
);
layerId = "72C2BD91-63AC-4E79-A4ED-224E2850FB61";
name = "Bold Condensed";
paths = (
{
closed = 1;
nodes = (
"192 1310 OFFCURVE",
"121 1298 OFFCURVE",
"55 1283 CURVE",
"55 1066 LINE",
"150 1076 OFFCURVE",
"207 1082 OFFCURVE",
"287 1082 CURVE SMOOTH",
"414 1082 OFFCURVE",
"446 913 OFFCURVE",
"446 737 CURVE SMOOTH",
"446 522 LINE SMOOTH",
"446 339 OFFCURVE",
"406 208 OFFCURVE",
"287 208 CURVE SMOOTH",
"194 208 OFFCURVE",
"117 222 OFFCURVE",
"55 241 CURVE",
"55 11 LINE",
"115 -7 OFFCURVE",
"227 -20 OFFCURVE",
"308 -20 CURVE SMOOTH",
"629 -20 OFFCURVE",
"719 263 OFFCURVE",
"719 522 CURVE SMOOTH",
"719 737 LINE SMOOTH",
"719 1028 OFFCURVE",
"649 1310 OFFCURVE",
"308 1310 CURVE SMOOTH"
);
}
);
width = 793;
}
);
unicode = 05DB;
},
{
glyphname = "lamed-hb";
lastChange = "2013-03-07 05:35:11 +0200";
layers = (
{
anchors = (
{
name = bottom;
position = "{412, 0}";
},
{
name = bottomleft;
position = "{20, 0}";
},
{
name = center;
position = "{153, 559}";
},
{
name = top;
position = "{412, 1118}";
},
{
name = topleft;
position = "{-93, 1118}";
}
);
layerId = "72C2BD91-63AC-4E79-A4ED-224E2850FB61";
name = "Bold Condensed";
paths = (
{
closed = 1;
nodes = (
"43 1556 LINE",
"43 1075 LINE",
"512 1075 LINE",
"353 497 LINE",
"353 497 OFFCURVE",
"251 0 OFFCURVE",
"251 0 CURVE",
"509 0 LINE",
"611 497 LINE",
"780 1110 LINE",
"780 1290 LINE",
"309 1290 LINE",
"309 1556 LINE"
);
}
);
width = 823;
}
);
unicode = 05DC;
},
{
glyphname = "finalmem-hb";
lastChange = "2013-03-07 05:35:11 +0200";
layers = (
{
anchors = (
{
name = bottom;
position = "{519, 0}";
},
{
name = bottomleft;
position = "{20, 0}";
},
{
name = center;
position = "{519, 559}";
},
{
name = top;
position = "{519, 1118}";
},
{
name = topleft;
position = "{180, 1118}";
}
);
layerId = "72C2BD91-63AC-4E79-A4ED-224E2850FB61";
name = "Bold Condensed";
paths = (
{
closed = 1;
nodes = (
"316 1310 OFFCURVE",
"157 1291 OFFCURVE",
"113 1282 CURVE",
"113 0 LINE",
"936 0 LINE",
"936 861 LINE SMOOTH",
"936 1152 OFFCURVE",
"878 1310 OFFCURVE",
"519 1310 CURVE SMOOTH"
);
},
{
closed = 1;
nodes = (
"625 1093 OFFCURVE",
"669 1038 OFFCURVE",
"669 862 CURVE SMOOTH",
"669 215 LINE",
"380 215 LINE",
"380 1089 LINE",
"408 1093 OFFCURVE",
"447 1093 OFFCURVE",
"480 1093 CURVE SMOOTH"
);
}
);
width = 1038;
}
);
unicode = 05DD;
},
{
glyphname = "mem-hb";
lastChange = "2013-03-07 05:35:11 +0200";
layers = (
{
anchors = (
{
name = bottom;
position = "{541, 0}";
},
{
name = bottomleft;
position = "{20, 0}";
},
{
name = center;
position = "{541, 559}";
},
{
name = top;
position = "{541, 1118}";
},
{
name = topleft;
position = "{107, 1118}";
}
);
layerId = "72C2BD91-63AC-4E79-A4ED-224E2850FB61";
name = "Bold Condensed";
paths = (
{
closed = 1;
nodes = (
"431 1310 OFFCURVE",
"362 1111 OFFCURVE",
"362 1111 CURVE SMOOTH",
"348 1111 LINE SMOOTH",
"348 1111 OFFCURVE",
"343 1145 OFFCURVE",
"327 1200 CURVE SMOOTH",
"312 1252 OFFCURVE",
"297 1290 OFFCURVE",
"297 1290 CURVE SMOOTH",
"44 1290 LINE SMOOTH",
"44 1290 OFFCURVE",
"57 1257 OFFCURVE",
"80 1176 CURVE SMOOTH",
"107 1081 OFFCURVE",
"127 982.999 OFFCURVE",
"113 837 CURVE SMOOTH",
"43 0 LINE",
"308 0 LINE",
"384 878 LINE",
"384 878 OFFCURVE",
"436 1086 OFFCURVE",
"575 1086 CURVE SMOOTH",
"712 1086 OFFCURVE",
"714 842 OFFCURVE",
"714 746 CURVE SMOOTH",
"714 215 LINE",
"474 215 LINE SMOOTH",
"474 215 OFFCURVE",
"474 0 OFFCURVE",
"474 0 CURVE",
"979.999 0 LINE",
"979.999 748 LINE SMOOTH",
"979.999 1038 OFFCURVE",
"935 1310 OFFCURVE",
"667 1310 CURVE SMOOTH"
);
}
);
width = 1082;
}
);
unicode = 05DE;
},
{
glyphname = "finalnun-hb";
lastChange = "2013-03-07 05:35:11 +0200";
layers = (
{
anchors = (
{
name = bottom;
position = "{-287, 393}";
},
{
name = bottomleft;
position = "{20, 0}";
},
{
name = center;
position = "{-73, 559}";
},
{
name = top;
position = "{237, 1118}";
},
{
name = topleft;
position = "{94, 1123}";
}
);
layerId = "72C2BD91-63AC-4E79-A4ED-224E2850FB61";
name = "Bold Condensed";
paths = (
{
closed = 1;
nodes = (
"36 1290 LINE SMOOTH",
"36 1290 OFFCURVE",
"93.9999 1123 OFFCURVE",
"93.9999 825 CURVE SMOOTH",
"93.9999 714 OFFCURVE",
"93.9999 -492 OFFCURVE",
"93.9999 -492 CURVE",
"360 -492 LINE",
"360 825 LINE SMOOTH",
"360 1123 OFFCURVE",
"302 1290 OFFCURVE",
"302 1290 CURVE SMOOTH"
);
}
);
width = 473;
}
);
unicode = 05DF;
},
{
glyphname = "nun-hb";
lastChange = "2013-03-07 05:35:11 +0200";
layers = (
{
anchors = (
{
name = bottom;
position = "{358, 0}";
},
{
name = bottomleft;
position = "{20, 0}";
},
{
name = center;
position = "{107, 559}";
},
{
name = top;
position = "{358, 1118}";
},
{
name = topleft;
position = "{153, 1118}";
}
);
layerId = "72C2BD91-63AC-4E79-A4ED-224E2850FB61";
name = "Bold Condensed";
paths = (
{
closed = 1;
nodes = (
"178 1310 OFFCURVE",
"135 1297 OFFCURVE",
"102 1290 CURVE",
"102 1068 LINE",
"133 1075 OFFCURVE",
"166 1087 OFFCURVE",
"229 1087 CURVE SMOOTH",
"332 1087 OFFCURVE",
"347 1001 OFFCURVE",
"347 926 CURVE SMOOTH",
"347 445 LINE SMOOTH",
"347 292 OFFCURVE",
"329 215 OFFCURVE",
"329 215 CURVE SMOOTH",
"43 215 LINE",
"43 0 LINE",
"563 0 LINE",
"563 0 OFFCURVE",
"613 154 OFFCURVE",
"613 365 CURVE SMOOTH",
"613 926 LINE SMOOTH",
"613 1152 OFFCURVE",
"579 1310 OFFCURVE",
"265 1310 CURVE SMOOTH"
);
}
);
width = 715;
}
);
unicode = 05E0;
},
{
glyphname = "samekh-hb";
lastChange = "2013-03-07 05:35:11 +0200";
layers = (
{
anchors = (
{
name = bottom;
position = "{505, 0}";
},
{
name = bottomleft;
position = "{20, 0}";
},
{
name = center;
position = "{505, 559}";
},
{
name = top;
position = "{505, 1118}";
},
{
name = topleft;
position = "{153, 1118}";
}
);
layerId = "72C2BD91-63AC-4E79-A4ED-224E2850FB61";
name = "Bold Condensed";
paths = (
{
closed = 1;
nodes = (
"263 1310 OFFCURVE",
"87 1282 OFFCURVE",
"87 1282 CURVE",
"87 1069 LINE",
"219 1078 LINE",
"219 1070 LINE",
"148 1004 OFFCURVE",
"74 817 OFFCURVE",
"74 646 CURVE SMOOTH",
"74 64 OFFCURVE",
"366 -20 OFFCURVE",
"505 -20 CURVE SMOOTH",
"644 -20 OFFCURVE",
"936 64 OFFCURVE",
"936 646 CURVE SMOOTH",
"936 1228 OFFCURVE",
"644 1310 OFFCURVE",
"505 1310 CURVE SMOOTH"
);
},
{
closed = 1;
nodes = (
"595 1093 OFFCURVE",
"664 1004 OFFCURVE",
"664 646 CURVE SMOOTH",
"664 288 OFFCURVE",
"595 197 OFFCURVE",
"505 197 CURVE SMOOTH",
"415 197 OFFCURVE",
"346 288 OFFCURVE",
"346 646 CURVE SMOOTH",
"346 846 OFFCURVE",
"362 982.999 OFFCURVE",
"435 1084 CURVE",
"435 1084 OFFCURVE",
"466 1093 OFFCURVE",
"505 1093 CURVE SMOOTH"
);
}
);
width = 1010;
}
);
unicode = 05E1;
},
{
glyphname = "ayin-hb";
lastChange = "2013-03-07 05:35:11 +0200";
layers = (
{
anchors = (
{
name = bottom;
position = "{486, 0}";
},
{
name = bottomleft;
position = "{20, 0}";
},
{
name = center;
position = "{505, 659}";
},
{
name = top;
position = "{486, 1118}";
},
{
name = topleft;
position = "{117, 1118}";
}
);
layerId = "72C2BD91-63AC-4E79-A4ED-224E2850FB61";
name = "Bold Condensed";
paths = (
{
closed = 1;
nodes = (
"43 1290 LINE",
"261 200 LINE",
"52 158 LINE",
"52 -60 LINE",
"335 -4 LINE SMOOTH",
"818 92 OFFCURVE",
"862 498 OFFCURVE",
"880 711 CURVE SMOOTH",
"930 1289 LINE",
"663 1289 LINE",
"610 667 LINE SMOOTH",
"599 540 OFFCURVE",
"548 402 OFFCURVE",
"470 311 CURVE",
"417 708 LINE",
"308 1290 LINE"
);
}
);
width = 972;
}
);
unicode = 05E2;
},
{
glyphname = "finalpe-hb";
lastChange = "2013-03-07 05:35:11 +0200";
layers = (
{
anchors = (
{
name = bottom;
position = "{240, 393}";
},
{
name = bottomleft;
position = "{20, 0}";
},
{
name = center;
position = "{503, 787}";
},
{
name = top;
position = "{503, 1118}";
},
{
name = topleft;
position = "{160, 1118}";
}
);
layerId = "72C2BD91-63AC-4E79-A4ED-224E2850FB61";
name = "Bold Condensed";
paths = (
{
closed = 1;
nodes = (
"259 1310 OFFCURVE",
"54 1162 OFFCURVE",
"54 853 CURVE SMOOTH",
"54 522 OFFCURVE",
"257 452 OFFCURVE",
"401 433 CURVE SMOOTH",
"454 426 LINE",
"505 636 LINE",
"467 643 LINE SMOOTH",
"379 659 OFFCURVE",
"325 721 OFFCURVE",
"325 864 CURVE SMOOTH",
"325 898 OFFCURVE",
"334 1093 OFFCURVE",
"472 1093 CURVE SMOOTH",
"562 1093 OFFCURVE",
"637 1004 OFFCURVE",
"637 646 CURVE SMOOTH",
"637 -492 LINE",
"637 -492 OFFCURVE",
"903 -492 OFFCURVE",
"903 -492 CURVE",
"903 646 LINE SMOOTH",
"903 1228 OFFCURVE",
"611 1310 OFFCURVE",
"472 1310 CURVE SMOOTH"
);
}
);
width = 1005;
}
);
unicode = 05E3;
},
{
glyphname = "pe-hb";
lastChange = "2013-03-07 05:35:11 +0200";
layers = (
{
anchors = (
{
name = bottom;
position = "{488, 0}";
},
{
name = bottomleft;
position = "{20, 0}";
},
{
name = center;
position = "{479, 787}";
},
{
name = top;
position = "{488, 1118}";
},
{
name = topleft;
position = "{133, 1118}";
}
);
layerId = "72C2BD91-63AC-4E79-A4ED-224E2850FB61";
name = "Bold Condensed";
paths = (
{
closed = 1;
nodes = (
"259 1310 OFFCURVE",
"54 1162 OFFCURVE",
"54 853 CURVE SMOOTH",
"54 522 OFFCURVE",
"257 452 OFFCURVE",
"401 433 CURVE SMOOTH",
"454 426 LINE",
"505 636 LINE",
"467 643 LINE SMOOTH",
"379 659 OFFCURVE",
"325 721 OFFCURVE",
"325 864 CURVE SMOOTH",
"325 898 OFFCURVE",
"334 1093 OFFCURVE",
"472 1093 CURVE SMOOTH",
"562 1093 OFFCURVE",
"631 1004 OFFCURVE",
"631 646 CURVE SMOOTH",
"631 288 OFFCURVE",
"562 197 OFFCURVE",
"472 197 CURVE SMOOTH",
"356 197 OFFCURVE",
"163 232 OFFCURVE",
"163 232 CURVE",
"163 8 LINE",
"163 8 OFFCURVE",
"286 -20 OFFCURVE",
"472 -20 CURVE SMOOTH",
"611 -20 OFFCURVE",
"903 64 OFFCURVE",
"903 646 CURVE SMOOTH",
"903 1228 OFFCURVE",
"611 1310 OFFCURVE",
"472 1310 CURVE SMOOTH"
);
}
);
width = 976;
}
);
unicode = 05E4;
},
{
glyphname = "finaltsadi-hb";
lastChange = "2013-03-07 05:35:11 +0200";
layers = (
{
anchors = (
{
name = bottom;
position = "{-180, 413}";
},
{
name = bottomleft;
position = "{20, 0}";
},
{
name = center;
position = "{475, 933}";
},
{
name = top;
position = "{475, 1118}";
},
{
name = topleft;
position = "{93, 1118}";
}
);
layerId = "72C2BD91-63AC-4E79-A4ED-224E2850FB61";
name = "Bold Condensed";
paths = (
{
closed = 1;
nodes = (
"609 1290 LINE",
"609 807 LINE SMOOTH",
"609 676 OFFCURVE",
"565 625 OFFCURVE",
"460 625 CURVE SMOOTH",
"447 625 OFFCURVE",
"436 625 OFFCURVE",
"436 625 CURVE",
"430 661 LINE",
"307 1290 LINE",
"12 1290 LINE",
"201 577 LINE",
"201 -492 LINE",
"467 -492 LINE",
"467 435 LINE",
"467 435 OFFCURVE",
"453 435 OFFCURVE",
"483 435 CURVE SMOOTH",
"800 435 OFFCURVE",
"875 622 OFFCURVE",
"875 810 CURVE SMOOTH",
"875 1290 LINE"
);
}
);
width = 949;
}
);
unicode = 05E5;
},
{
glyphname = "tsadi-hb";
lastChange = "2013-03-07 05:35:11 +0200";
layers = (
{
anchors = (
{
name = bottom;
position = "{502, 0}";
},
{
name = bottomleft;
position = "{20, 0}";
},
{
name = center;
position = "{213, 407}";
},
{
name = top;
position = "{502, 1118}";
},
{
name = topleft;
position = "{113, 1118}";
}
);
layerId = "72C2BD91-63AC-4E79-A4ED-224E2850FB61";
name = "Bold Condensed";
paths = (
{
closed = 1;
nodes = (
"58 1290 LINE",
"420 459 LINE",
"586 205 LINE",
"586 201 LINE",
"414 215 LINE",
"68 215 LINE",
"68 0 LINE",
"899 0 LINE",
"899 158 LINE",
"689 492 LINE",
"903 665 OFFCURVE",
"928 935 OFFCURVE",
"939 1051 CURVE SMOOTH",
"960 1289 LINE",
"693 1289 LINE",
"669 1007 LINE SMOOTH",
"655 853 OFFCURVE",
"616 789 OFFCURVE",
"571 731 CURVE",
"335 1290 LINE"
);
}
);
width = 1003;
}
);
unicode = 05E6;
},
{
glyphname = "qof-hb";
lastChange = "2013-03-07 05:35:11 +0200";
layers = (
{
anchors = (
{
name = bottom;
position = "{820, 0}";
},
{
name = bottomleft;
position = "{20, 0}";
},
{
name = center;
position = "{494, 619}";
},
{
name = top;
position = "{529, 1118}";
},
{
name = topleft;
position = "{207, 1118}";
}
);
layerId = "72C2BD91-63AC-4E79-A4ED-224E2850FB61";
name = "Bold Condensed";
paths = (
{
closed = 1;
nodes = (
"134 1290 LINE",
"134 1075 LINE",
"726 1075 LINE",
"578 505 LINE SMOOTH",
"537 353 OFFCURVE",
"501 170 OFFCURVE",
"501 34 CURVE SMOOTH",
"501 0 LINE",
"765 0 LINE",
"765 34 LINE SMOOTH",
"765 161 OFFCURVE",
"804 319 OFFCURVE",
"855 515 CURVE SMOOTH",
"1014 1124 LINE",
"1014 1290 LINE"
);
},
{
closed = 1;
nodes = (
"134 772 LINE",
"134 -493 LINE",
"400 -493 LINE",
"400 772 LINE"
);
}
);
width = 1057;
}
);
unicode = 05E7;
},
{
glyphname = "resh-hb";
lastChange = "2013-03-07 05:35:11 +0200";
layers = (
{
anchors = (
{
name = bottom;
position = "{593, 0}";
},
{
name = bottomleft;
position = "{20, 0}";
},
{
name = center;
position = "{233, 559}";
},
{
name = top;
position = "{411, 1118}";
},
{
name = topleft;
position = "{133, 1118}";
}
);
layerId = "72C2BD91-63AC-4E79-A4ED-224E2850FB61";
name = "Bold Condensed";
paths = (
{
closed = 1;
nodes = (
"170 1310 OFFCURVE",
"132 1304 OFFCURVE",
"43 1295 CURVE",
"43 1078 LINE",
"133 1087 OFFCURVE",
"175 1093 OFFCURVE",
"264 1093 CURVE SMOOTH",
"424 1093 OFFCURVE",
"453 1020 OFFCURVE",
"453 862 CURVE SMOOTH",
"453 0 LINE",
"720 0 LINE",
"720 861 LINE SMOOTH",
"720 1152 OFFCURVE",
"661 1310 OFFCURVE",
"303 1310 CURVE SMOOTH"
);
}
);
width = 822;
}
);
unicode = 05E8;
},
{
glyphname = "shin-hb";
lastChange = "2013-03-07 05:35:11 +0200";
layers = (
{
anchors = (
{
name = bottom;
position = "{646, 0}";
},
{
name = bottomleft;
position = "{20, 0}";
},
{
name = center;
position = "{646, 313}";
},
{
name = top;
position = "{646, 1118}";
},
{
name = topleft;
position = "{127, 1118}";
},
{
name = topright;
position = "{1177, 1118}";
}
);
layerId = "72C2BD91-63AC-4E79-A4ED-224E2850FB61";
name = "Bold Condensed";
paths = (
{
closed = 1;
nodes = (
"988.999 1290 LINE",
"942 710 LINE SMOOTH",
"917 406 OFFCURVE",
"767 215 OFFCURVE",
"509 215 CURVE SMOOTH",
"397 215 LINE",
"378 436 LINE",
"672 447 OFFCURVE",
"751 628 OFFCURVE",
"765 810 CURVE SMOOTH",
"802 1290 LINE",
"539 1290 LINE",
"501 807 LINE SMOOTH",
"491 684 OFFCURVE",
"454 632 OFFCURVE",
"363 626 CURVE",
"308 1290 LINE",
"43 1290 LINE",
"146 0 LINE",
"509 0 LINE SMOOTH",
"1131 0 OFFCURVE",
"1192 539 OFFCURVE",
"1206 711 CURVE SMOOTH",
"1254 1290 LINE"
);
}
);
width = 1291;
}
);
unicode = 05E9;
},
{
glyphname = "tav-hb";
lastChange = "2013-03-07 05:35:11 +0200";
layers = (
{
anchors = (
{
name = bottom;
position = "{533, 0}";
},
{
name = bottomleft;
position = "{20, 0}";
},
{
name = center;
position = "{573, 559}";
},
{
name = top;
position = "{533, 1118}";
},
{
name = topleft;
position = "{173, 1118}";
}
);
layerId = "72C2BD91-63AC-4E79-A4ED-224E2850FB61";
name = "Bold Condensed";
paths = (
{
closed = 1;
nodes = (
"261 1310 OFFCURVE",
"87 1262 OFFCURVE",
"87 1262 CURVE",
"87 1049 LINE",
"183 1068 LINE",
"183 364 LINE SMOOTH",
"183 288 OFFCURVE",
"178 203 OFFCURVE",
"102 203 CURVE SMOOTH",
"63 203 OFFCURVE",
"32 221 OFFCURVE",
"32 221 CURVE",
"32 7 LINE",
"32 7 OFFCURVE",
"87 -20 OFFCURVE",
"155 -20 CURVE SMOOTH",
"439 -20 OFFCURVE",
"450 138 OFFCURVE",
"450 364 CURVE SMOOTH",
"450 1092 LINE",
"494 1094 OFFCURVE",
"470 1093 OFFCURVE",
"507 1093 CURVE SMOOTH",
"652 1093 OFFCURVE",
"696 1038 OFFCURVE",
"696 862 CURVE SMOOTH",
"696 0 LINE",
"963 0 LINE",
"963 861 LINE SMOOTH",
"963 1152 OFFCURVE",
"905 1310 OFFCURVE",
"546 1310 CURVE SMOOTH"
);
}
);
width = 1065;
}
);
unicode = 05EA;
},
{
glyphname = zero;
lastChange = "2013-03-07 05:35:11 +0200";
layers = (
{
layerId = "72C2BD91-63AC-4E79-A4ED-224E2850FB61";
name = "Bold Condensed";
paths = (
{
closed = 1;
nodes = (
"337 1485 OFFCURVE",
"236 1425 OFFCURVE",
"171 1306 CURVE SMOOTH",
"106 1187 OFFCURVE",
"74 994.999 OFFCURVE",
"74 731 CURVE SMOOTH",
"74 468 OFFCURVE",
"105 277 OFFCURVE",
"166 158 CURVE SMOOTH",
"228 39 OFFCURVE",
"330 -20 OFFCURVE",
"471 -20 CURVE SMOOTH",
"612 -20 OFFCURVE",
"715 39 OFFCURVE",
"778 157 CURVE SMOOTH",
"842 275 OFFCURVE",
"874 466 OFFCURVE",
"874 731 CURVE SMOOTH",
"874 999.999 OFFCURVE",
"843 1193 OFFCURVE",
"780 1310 CURVE SMOOTH",
"717 1427 OFFCURVE",
"616 1485 OFFCURVE",
"475 1485 CURVE SMOOTH"
);
},
{
closed = 1;
nodes = (
"522 1253 OFFCURVE",
"555 1216 OFFCURVE",
"574 1143 CURVE SMOOTH",
"593 1070 OFFCURVE",
"602 932 OFFCURVE",
"602 731 CURVE SMOOTH",
"602 588 OFFCURVE",
"598 480 OFFCURVE",
"590 409 CURVE SMOOTH",
"574 268 OFFCURVE",
"540 211 OFFCURVE",
"473 211 CURVE SMOOTH",
"424 211 OFFCURVE",
"390 246 OFFCURVE",
"372 317 CURVE SMOOTH",
"355 388 OFFCURVE",
"346 526 OFFCURVE",
"346 731 CURVE SMOOTH",
"346 933 OFFCURVE",
"355 1070 OFFCURVE",
"372 1143 CURVE SMOOTH",
"390 1216 OFFCURVE",
"424 1253 OFFCURVE",
"473 1253 CURVE SMOOTH"
);
}
);
width = 948;
}
);
unicode = 0030;
},
{
glyphname = one;
lastChange = "2013-03-07 05:35:10 +0200";
layers = (
{
layerId = "72C2BD91-63AC-4E79-A4ED-224E2850FB61";
name = "Bold Condensed";
paths = (
{
closed = 1;
nodes = (
"487 1462 LINE",
"97.9999 1102 LINE",
"250 936 LINE",
"336 1024 OFFCURVE",
"394 1085 OFFCURVE",
"423 1119 CURVE SMOOTH",
"453 1153 OFFCURVE",
"470 1173 OFFCURVE",
"475 1180 CURVE",
"466 1059 OFFCURVE",
"461 951 OFFCURVE",
"461 858 CURVE SMOOTH",
"461 0 LINE",
"729 0 LINE",
"729 1462 LINE"
);
}
);
width = 948;
}
);
unicode = 0031;
},
{
glyphname = two;
lastChange = "2013-03-07 05:35:10 +0200";
layers = (
{
layerId = "72C2BD91-63AC-4E79-A4ED-224E2850FB61";
name = "Bold Condensed";
paths = (
{
closed = 1;
nodes = (
"381 1483 OFFCURVE",
"316 1468 OFFCURVE",
"256 1439 CURVE SMOOTH",
"196 1410 OFFCURVE",
"131 1355 OFFCURVE",
"61 1276 CURVE",
"213 1116 LINE",
"257 1165 OFFCURVE",
"294 1198 OFFCURVE",
"325 1217 CURVE SMOOTH",
"356 1236 OFFCURVE",
"389 1245 OFFCURVE",
"424 1245 CURVE SMOOTH",
"504 1245 OFFCURVE",
"559 1189 OFFCURVE",
"559 1077 CURVE SMOOTH",
"559 1029 OFFCURVE",
"553 981.999 OFFCURVE",
"540 937 CURVE SMOOTH",
"527 892 OFFCURVE",
"508 845 OFFCURVE",
"481 796 CURVE SMOOTH",
"454 747 OFFCURVE",
"405 672 OFFCURVE",
"334 571 CURVE SMOOTH",
"74 203 LINE",
"74 0 LINE",
"858 0 LINE",
"858 242 LINE",
"379 242 LINE",
"379 250 LINE",
"532 445 OFFCURVE",
"626 569 OFFCURVE",
"663 623 CURVE SMOOTH",
"700 678 OFFCURVE",
"730 730 OFFCURVE",
"754 780 CURVE SMOOTH",
"803 881 OFFCURVE",
"827 977.999 OFFCURVE",
"827 1090 CURVE SMOOTH",
"827 1213 OFFCURVE",
"794 1310 OFFCURVE",
"727 1379 CURVE SMOOTH",
"661 1448 OFFCURVE",
"569 1483 OFFCURVE",
"451 1483 CURVE SMOOTH"
);
}
);
width = 948;
}
);
unicode = 0032;
},
{
glyphname = three;
lastChange = "2013-03-07 05:35:10 +0200";
layers = (
{
layerId = "72C2BD91-63AC-4E79-A4ED-224E2850FB61";
name = "Bold Condensed";
paths = (
{
closed = 1;
nodes = (
"286 1483 OFFCURVE",
"162 1434 OFFCURVE",
"63 1335 CURVE",
"186 1155 LINE",
"257 1219 OFFCURVE",
"331 1251 OFFCURVE",
"406 1251 CURVE SMOOTH",
"505 1251 OFFCURVE",
"561 1191 OFFCURVE",
"561 1075 CURVE SMOOTH",
"561 927 OFFCURVE",
"474 852 OFFCURVE",
"315 852 CURVE SMOOTH",
"236 852 LINE",
"236 649 LINE",
"319 649 LINE SMOOTH",
"498 649 OFFCURVE",
"588 576 OFFCURVE",
"588 430 CURVE SMOOTH",
"588 275 OFFCURVE",
"509 207 OFFCURVE",
"354 207 CURVE SMOOTH",
"259 207 OFFCURVE",
"151 240 OFFCURVE",
"63 293 CURVE",
"63 49 LINE",
"151 3 OFFCURVE",
"260 -20 OFFCURVE",
"389 -20 CURVE SMOOTH",
"534 -20 OFFCURVE",
"649 20 OFFCURVE",
"732 99.9999 CURVE SMOOTH",
"816 180 OFFCURVE",
"858 287 OFFCURVE",
"858 422 CURVE SMOOTH",
"858 619 OFFCURVE",
"753 735 OFFCURVE",
"569 764 CURVE",
"569 772 LINE",
"734 820 OFFCURVE",
"829 949 OFFCURVE",
"829 1133 CURVE SMOOTH",
"829 1242 OFFCURVE",
"794 1327 OFFCURVE",
"725 1389 CURVE SMOOTH",
"656 1452 OFFCURVE",
"559 1483 OFFCURVE",
"436 1483 CURVE SMOOTH"
);
}
);
width = 948;
}
);
unicode = 0033;
},
{
glyphname = four;
lastChange = "2013-03-07 05:35:11 +0200";
layers = (
{
layerId = "72C2BD91-63AC-4E79-A4ED-224E2850FB61";
name = "Bold Condensed";
paths = (
{
closed = 1;
nodes = (
"479 1462 LINE",
"37 528 LINE",
"37 307 LINE",
"514 307 LINE",
"514 0 LINE",
"770 0 LINE",
"770 307 LINE",
"918 307 LINE",
"918 532 LINE",
"770 532 LINE",
"770 1462 LINE"
);
},
{
closed = 1;
nodes = (
"519 975.999 LINE",
"514 840 LINE",
"514 532 LINE",
"266 532 LINE",
"442 909 LINE SMOOTH",
"469 967.999 OFFCURVE",
"495 1033 OFFCURVE",
"518 1106 CURVE",
"526 1106 LINE"
);
}
);
width = 948;
}
);
unicode = 0034;
},
{
glyphname = five;
lastChange = "2013-03-07 05:35:10 +0200";
layers = (
{
layerId = "72C2BD91-63AC-4E79-A4ED-224E2850FB61";
name = "Bold Condensed";
paths = (
{
closed = 1;
nodes = (
"158 1462 LINE",
"113 729 LINE",
"201 664 LINE",
"263 685 OFFCURVE",
"322 696 OFFCURVE",
"377 696 CURVE SMOOTH",
"516 696 OFFCURVE",
"586 618 OFFCURVE",
"586 463 CURVE SMOOTH",
"586 296 OFFCURVE",
"514 213 OFFCURVE",
"371 213 CURVE SMOOTH",
"325 213 OFFCURVE",
"275 222 OFFCURVE",
"221 241 CURVE SMOOTH",
"168 260 OFFCURVE",
"124 282 OFFCURVE",
"90 307 CURVE",
"90 53 LINE",
"169 4 OFFCURVE",
"273 -20 OFFCURVE",
"401 -20 CURVE SMOOTH",
"545 -20 OFFCURVE",
"657 24 OFFCURVE",
"738 113 CURVE SMOOTH",
"819 202 OFFCURVE",
"860 326 OFFCURVE",
"860 485 CURVE SMOOTH",
"860 618 OFFCURVE",
"827 723 OFFCURVE",
"762 800 CURVE SMOOTH",
"697 877 OFFCURVE",
"610 915 OFFCURVE",
"500 915 CURVE SMOOTH",
"451 915 OFFCURVE",
"408 911 OFFCURVE",
"371 903 CURVE",
"391 1219 LINE",
"782 1219 LINE",
"782 1462 LINE"
);
}
);
width = 948;
}
);
unicode = 0035;
},
{
glyphname = six;
lastChange = "2013-03-07 05:35:11 +0200";
layers = (
{
layerId = "72C2BD91-63AC-4E79-A4ED-224E2850FB61";
name = "Bold Condensed";
paths = (
{
closed = 1;
nodes = (
"447 1481 OFFCURVE",
"306 1412 OFFCURVE",
"213 1274 CURVE SMOOTH",
"120 1137 OFFCURVE",
"74 919 OFFCURVE",
"74 621 CURVE SMOOTH",
"74 198 OFFCURVE",
"212 -20 OFFCURVE",
"473 -20 CURVE SMOOTH",
"596 -20 OFFCURVE",
"694 25 OFFCURVE",
"766 115 CURVE SMOOTH",
"838 206 OFFCURVE",
"874 328 OFFCURVE",
"874 483 CURVE SMOOTH",
"874 779 OFFCURVE",
"759 944 OFFCURVE",
"563 944 CURVE SMOOTH",
"456 944 OFFCURVE",
"373 887 OFFCURVE",
"326 776 CURVE",
"315 776 LINE",
"320 896 OFFCURVE",
"336 988.999 OFFCURVE",
"361 1055 CURVE SMOOTH",
"412 1188 OFFCURVE",
"507 1255 OFFCURVE",
"659 1255 CURVE SMOOTH",
"704 1255 OFFCURVE",
"749 1250 OFFCURVE",
"795 1239 CURVE",
"795 1464 LINE",
"764 1472 OFFCURVE",
"697 1481 OFFCURVE",
"637 1481 CURVE SMOOTH"
);
},
{
closed = 1;
nodes = (
"565 725 OFFCURVE",
"608 632 OFFCURVE",
"608 481 CURVE SMOOTH",
"608 294 OFFCURVE",
"555 209 OFFCURVE",
"475 209 CURVE SMOOTH",
"392 209 OFFCURVE",
"344 315 OFFCURVE",
"344 510 CURVE SMOOTH",
"344 572 OFFCURVE",
"356 623 OFFCURVE",
"381 664 CURVE SMOOTH",
"406 705 OFFCURVE",
"438 725 OFFCURVE",
"477 725 CURVE SMOOTH"
);
}
);
width = 948;
}
);
unicode = 0036;
},
{
glyphname = seven;
lastChange = "2013-03-07 05:35:10 +0200";
layers = (
{
layerId = "72C2BD91-63AC-4E79-A4ED-224E2850FB61";
name = "Bold Condensed";
paths = (
{
closed = 1;
nodes = (
"80 1460 LINE",
"80 1219 LINE",
"590 1219 LINE",
"180 0 LINE",
"461 0 LINE",
"864 1276 LINE",
"864 1460 LINE"
);
}
);
width = 948;
}
);
unicode = 0037;
},
{
glyphname = eight;
lastChange = "2013-03-07 05:35:11 +0200";
layers = (
{
layerId = "72C2BD91-63AC-4E79-A4ED-224E2850FB61";
name = "Bold Condensed";
paths = (
{
closed = 1;
nodes = (
"364 1481 OFFCURVE",
"274 1448 OFFCURVE",
"203 1382 CURVE SMOOTH",
"133 1317 OFFCURVE",
"97.9999 1229 OFFCURVE",
"97.9999 1120 CURVE SMOOTH",
"97.9999 1049 OFFCURVE",
"113 985.999 OFFCURVE",
"142 929 CURVE SMOOTH",
"172 873 OFFCURVE",
"222 817 OFFCURVE",
"291 762 CURVE",
"142 666 OFFCURVE",
"72 539 OFFCURVE",
"72 371 CURVE SMOOTH",
"72 246 OFFCURVE",
"108 149 OFFCURVE",
"179 81 CURVE SMOOTH",
"250 14 OFFCURVE",
"349 -20 OFFCURVE",
"475 -20 CURVE SMOOTH",
"596 -20 OFFCURVE",
"694 17 OFFCURVE",
"767 90 CURVE SMOOTH",
"840 163 OFFCURVE",
"877 260 OFFCURVE",
"877 379 CURVE SMOOTH",
"877 530 OFFCURVE",
"812 653 OFFCURVE",
"641 774 CURVE",
"793 875 OFFCURVE",
"850 982.999 OFFCURVE",
"850 1120 CURVE SMOOTH",
"850 1231 OFFCURVE",
"816 1319 OFFCURVE",
"748 1384 CURVE SMOOTH",
"680 1449 OFFCURVE",
"589 1481 OFFCURVE",
"475 1481 CURVE SMOOTH"
);
},
{
closed = 1;
nodes = (
"477 633 LINE",
"532 584 OFFCURVE",
"570 541 OFFCURVE",
"589 504 CURVE SMOOTH",
"608 467 OFFCURVE",
"618 427 OFFCURVE",
"618 385 CURVE SMOOTH",
"618 268 OFFCURVE",
"570 193 OFFCURVE",
"471 193 CURVE SMOOTH",
"380 193 OFFCURVE",
"330 268 OFFCURVE",
"330 385 CURVE SMOOTH",
"330 506 OFFCURVE",
"376 583 OFFCURVE",
"463 647 CURVE"
);
},
{
closed = 1;
nodes = (
"551 1270 OFFCURVE",
"590 1217 OFFCURVE",
"590 1110 CURVE SMOOTH",
"590 1022 OFFCURVE",
"563 959 OFFCURVE",
"475 891 CURVE",
"429 928 OFFCURVE",
"398 962 OFFCURVE",
"382 994.999 CURVE SMOOTH",
"366 1028 OFFCURVE",
"358 1066 OFFCURVE",
"358 1110 CURVE SMOOTH",
"358 1213 OFFCURVE",
"397 1270 OFFCURVE",
"473 1270 CURVE SMOOTH"
);
}
);
width = 948;
}
);
unicode = 0038;
},
{
glyphname = nine;
lastChange = "2013-03-07 05:35:11 +0200";
layers = (
{
layerId = "72C2BD91-63AC-4E79-A4ED-224E2850FB61";
name = "Bold Condensed";
paths = (
{
closed = 1;
nodes = (
"343 1481 OFFCURVE",
"247 1435 OFFCURVE",
"175 1344 CURVE SMOOTH",
"104 1253 OFFCURVE",
"68 1129 OFFCURVE",
"68 972.999 CURVE SMOOTH",
"68 831 OFFCURVE",
"94.9999 719 OFFCURVE",
"150 638 CURVE SMOOTH",
"205 557 OFFCURVE",
"282 516 OFFCURVE",
"381 516 CURVE SMOOTH",
"490 516 OFFCURVE",
"571 579 OFFCURVE",
"614 684 CURVE",
"623 684 LINE",
"611 352 OFFCURVE",
"497 203 OFFCURVE",
"274 203 CURVE SMOOTH",
"235 203 OFFCURVE",
"192 210 OFFCURVE",
"147 225 CURVE",
"147 -4 LINE",
"188 -15 OFFCURVE",
"240 -20 OFFCURVE",
"303 -20 CURVE SMOOTH",
"680 -20 OFFCURVE",
"868 262 OFFCURVE",
"868 825 CURVE SMOOTH",
"868 1249 OFFCURVE",
"724 1481 OFFCURVE",
"463 1481 CURVE SMOOTH"
);
},
{
closed = 1;
nodes = (
"506 1249 OFFCURVE",
"538 1221 OFFCURVE",
"563 1164 CURVE SMOOTH",
"588 1108 OFFCURVE",
"600 1037 OFFCURVE",
"600 950 CURVE SMOOTH",
"600 894 OFFCURVE",
"586 844 OFFCURVE",
"558 800 CURVE SMOOTH",
"530 757 OFFCURVE",
"497 735 OFFCURVE",
"459 735 CURVE SMOOTH",
"375 735 OFFCURVE",
"334 826 OFFCURVE",
"334 978.999 CURVE SMOOTH",
"334 1166 OFFCURVE",
"385 1249 OFFCURVE",
"465 1249 CURVE SMOOTH"
);
}
);
width = 948;
}
);
unicode = 0039;
},
{
glyphname = fraction;
lastChange = "2013-03-07 05:35:10 +0200";
layers = (
{
layerId = "72C2BD91-63AC-4E79-A4ED-224E2850FB61";
name = "Bold Condensed";
paths = (
{
closed = 1;
nodes = (
"369 1462 LINE",
"-373 0 LINE",
"-170 0 LINE",
"573 1462 LINE"
);
}
);
width = 201;
}
);
unicode = 2044;
},
{
glyphname = onehalf;
lastChange = "2013-03-07 05:35:11 +0200";
layers = (
{
layerId = "72C2BD91-63AC-4E79-A4ED-224E2850FB61";
name = "Bold Condensed";
paths = (
{
closed = 1;
nodes = (
"1018 1462 LINE",
"276 0 LINE",
"479 0 LINE",
"1222 1462 LINE"
);
},
{
closed = 1;
nodes = (
"331 1462 LINE",
"59 1235 LINE",
"151 1118 LINE",
"282 1231 LINE SMOOTH",
"292 1240 OFFCURVE",
"299 1248 OFFCURVE",
"304 1255 CURVE",
"299 1159 LINE",
"296 1047 LINE",
"296 586 LINE",
"493 586 LINE",
"493 1462 LINE"
);
},
{
closed = 1;
nodes = (
"1125 898 OFFCURVE",
"1029 856 OFFCURVE",
"944 771 CURVE",
"1047 632 LINE",
"1106 691 OFFCURVE",
"1160 720 OFFCURVE",
"1210 720 CURVE SMOOTH",
"1262 720 OFFCURVE",
"1296 688 OFFCURVE",
"1296 632 CURVE SMOOTH",
"1296 597 OFFCURVE",
"1287 564 OFFCURVE",
"1269 533 CURVE SMOOTH",
"1251 502 OFFCURVE",
"1210 451 OFFCURVE",
"1147 380 CURVE SMOOTH",
"948 158 LINE",
"948 0.999999 LINE",
"1518 0.999999 LINE",
"1518 187 LINE",
"1192 187 LINE",
"1294 294 LINE SMOOTH",
"1375 379 OFFCURVE",
"1429 445 OFFCURVE",
"1454 494 CURVE SMOOTH",
"1480 543 OFFCURVE",
"1493 594 OFFCURVE",
"1493 648 CURVE SMOOTH",
"1493 803 OFFCURVE",
"1396 898 OFFCURVE",
"1233 898 CURVE SMOOTH"
);
}
);
width = 1597;
}
);
unicode = 00BD;
},
{
glyphname = onequarter;
lastChange = "2013-03-07 05:35:11 +0200";
layers = (
{
layerId = "72C2BD91-63AC-4E79-A4ED-224E2850FB61";
name = "Bold Condensed";
paths = (
{
closed = 1;
nodes = (
"1018 1462 LINE",
"276 0 LINE",
"479 0 LINE",
"1222 1462 LINE"
);
},
{
closed = 1;
nodes = (
"331 1462 LINE",
"59 1235 LINE",
"151 1118 LINE",
"282 1231 LINE SMOOTH",
"292 1240 OFFCURVE",
"299 1248 OFFCURVE",
"304 1255 CURVE",
"299 1159 LINE",
"296 1047 LINE",
"296 586 LINE",
"493 586 LINE",
"493 1462 LINE"
);
},
{
closed = 1;
nodes = (
"1174 490 LINE",
"1174 320 LINE",
"986.999 320 LINE",
"1108 521 LINE SMOOTH",
"1117 535 OFFCURVE",
"1128 559 OFFCURVE",
"1143 593 CURVE SMOOTH",
"1158 627 OFFCURVE",
"1170 655 OFFCURVE",
"1178 677 CURVE"
);
},
{
closed = 1;
nodes = (
"1176 883 LINE",
"829 306 LINE",
"829 160 LINE",
"1174 160 LINE",
"1174 0.999999 LINE",
"1370 0.999999 LINE",
"1370 160 LINE",
"1481 160 LINE",
"1481 320 LINE",
"1370 320 LINE",
"1370 883 LINE"
);
}
);
width = 1597;
}
);
unicode = 00BC;
},
{
glyphname = threequarters;
lastChange = "2013-03-07 05:35:11 +0200";
layers = (
{
layerId = "72C2BD91-63AC-4E79-A4ED-224E2850FB61";
name = "Bold Condensed";
paths = (
{
closed = 1;
nodes = (
"1053 1462 LINE",
"311 0 LINE",
"514 0 LINE",
"1257 1462 LINE"
);
},
{
closed = 1;
nodes = (
"239 1481 OFFCURVE",
"156 1453 OFFCURVE",
"61 1374 CURVE",
"147 1241 LINE",
"212 1294 OFFCURVE",
"258 1319 OFFCURVE",
"317 1319 CURVE SMOOTH",
"380 1319 OFFCURVE",
"412 1282 OFFCURVE",
"412 1225 CURVE SMOOTH",
"412 1142 OFFCURVE",
"361 1108 OFFCURVE",
"264 1108 CURVE SMOOTH",
"180 1108 LINE",
"180 958 LINE",
"278 958 LINE SMOOTH",
"381 958 OFFCURVE",
"432 921 OFFCURVE",
"432 846 CURVE SMOOTH",
"432 768 OFFCURVE",
"387 729 OFFCURVE",
"297 729 CURVE SMOOTH",
"214 729 OFFCURVE",
"138 753 OFFCURVE",
"67 801 CURVE",
"67 625 LINE",
"126 588 OFFCURVE",
"207 569 OFFCURVE",
"311 569 CURVE SMOOTH",
"512 569 OFFCURVE",
"618 670 OFFCURVE",
"618 831 CURVE SMOOTH",
"618 928 OFFCURVE",
"563 1012 OFFCURVE",
"444 1040 CURVE",
"444 1051 LINE",
"543 1085 OFFCURVE",
"592 1152 OFFCURVE",
"592 1251 CURVE SMOOTH",
"592 1321 OFFCURVE",
"568 1377 OFFCURVE",
"520 1418 CURVE SMOOTH",
"473 1460 OFFCURVE",
"412 1481 OFFCURVE",
"338 1481 CURVE SMOOTH"
);
},
{
closed = 1;
nodes = (
"1180 490 LINE",
"1180 320 LINE",
"992.999 320 LINE",
"1114 521 LINE SMOOTH",
"1123 535 OFFCURVE",
"1134 559 OFFCURVE",
"1149 593 CURVE SMOOTH",
"1164 627 OFFCURVE",
"1176 655 OFFCURVE",
"1184 677 CURVE"
);
},
{
closed = 1;
nodes = (
"1182 883 LINE",
"835 306 LINE",
"835 160 LINE",
"1180 160 LINE",
"1180 0.999999 LINE",
"1376 0.999999 LINE",
"1376 160 LINE",
"1487 160 LINE",
"1487 320 LINE",
"1376 320 LINE",
"1376 883 LINE"
);
}
);
width = 1597;
}
);
unicode = 00BE;
},
{
glyphname = onesuperior;
lastChange = "2013-03-07 05:35:10 +0200";
layers = (
{
layerId = "72C2BD91-63AC-4E79-A4ED-224E2850FB61";
name = "Bold Condensed";
paths = (
{
closed = 1;
nodes = (
"338 1462 LINE",
"66 1235 LINE",
"158 1118 LINE",
"289 1231 LINE SMOOTH",
"299 1240 OFFCURVE",
"306 1248 OFFCURVE",
"311 1255 CURVE",
"306 1159 LINE",
"303 1047 LINE",
"303 586 LINE",
"500 586 LINE",
"500 1462 LINE"
);
}
);
width = 688;
}
);
unicode = 00B9;
},
{
glyphname = twosuperior;
lastChange = "2013-03-07 05:35:10 +0200";
layers = (
{
layerId = "72C2BD91-63AC-4E79-A4ED-224E2850FB61";
name = "Bold Condensed";
paths = (
{
closed = 1;
nodes = (
"230 1483 OFFCURVE",
"134 1441 OFFCURVE",
"49 1356 CURVE",
"152 1217 LINE",
"211 1276 OFFCURVE",
"265 1305 OFFCURVE",
"315 1305 CURVE SMOOTH",
"367 1305 OFFCURVE",
"401 1273 OFFCURVE",
"401 1217 CURVE SMOOTH",
"401 1182 OFFCURVE",
"392 1149 OFFCURVE",
"374 1118 CURVE SMOOTH",
"356 1087 OFFCURVE",
"315 1036 OFFCURVE",
"252 965 CURVE SMOOTH",
"53 743 LINE",
"53 586 LINE",
"623 586 LINE",
"623 772 LINE",
"297 772 LINE",
"399 879 LINE SMOOTH",
"480 964 OFFCURVE",
"534 1030 OFFCURVE",
"559 1079 CURVE SMOOTH",
"585 1128 OFFCURVE",
"598 1179 OFFCURVE",
"598 1233 CURVE SMOOTH",
"598 1388 OFFCURVE",
"501 1483 OFFCURVE",
"338 1483 CURVE SMOOTH"
);
}
);
width = 688;
}
);
unicode = 00B2;
},
{
glyphname = threesuperior;
lastChange = "2013-03-07 05:35:10 +0200";
layers = (
{
layerId = "72C2BD91-63AC-4E79-A4ED-224E2850FB61";
name = "Bold Condensed";
paths = (
{
closed = 1;
nodes = (
"235 1481 OFFCURVE",
"152 1453 OFFCURVE",
"57 1374 CURVE",
"143 1241 LINE",
"208 1294 OFFCURVE",
"254 1319 OFFCURVE",
"313 1319 CURVE SMOOTH",
"376 1319 OFFCURVE",
"408 1282 OFFCURVE",
"408 1225 CURVE SMOOTH",
"408 1142 OFFCURVE",
"357 1108 OFFCURVE",
"260 1108 CURVE SMOOTH",
"176 1108 LINE",
"176 958 LINE",
"274 958 LINE SMOOTH",
"377 958 OFFCURVE",
"428 921 OFFCURVE",
"428 846 CURVE SMOOTH",
"428 768 OFFCURVE",
"383 729 OFFCURVE",
"293 729 CURVE SMOOTH",
"210 729 OFFCURVE",
"134 753 OFFCURVE",
"63 801 CURVE",
"63 625 LINE",
"122 588 OFFCURVE",
"203 569 OFFCURVE",
"307 569 CURVE SMOOTH",
"508 569 OFFCURVE",
"614 670 OFFCURVE",
"614 831 CURVE SMOOTH",
"614 928 OFFCURVE",
"559 1012 OFFCURVE",
"440 1040 CURVE",
"440 1051 LINE",
"539 1085 OFFCURVE",
"588 1152 OFFCURVE",
"588 1251 CURVE SMOOTH",
"588 1321 OFFCURVE",
"564 1377 OFFCURVE",
"516 1418 CURVE SMOOTH",
"469 1460 OFFCURVE",
"408 1481 OFFCURVE",
"334 1481 CURVE SMOOTH"
);
}
);
width = 688;
}
);
unicode = 00B3;
},
{
glyphname = asterisk;
lastChange = "2013-03-07 05:35:10 +0200";
layers = (
{
layerId = "72C2BD91-63AC-4E79-A4ED-224E2850FB61";
name = "Bold Condensed";
paths = (
{
closed = 1;
nodes = (
"356 1556 LINE",
"393 1249 LINE",
"90 1335 LINE",
"53 1114 LINE",
"334 1092 LINE",
"152 846 LINE",
"356 737 LINE",
"473 996.999 LINE",
"602 737 LINE",
"801 846 LINE",
"616 1092 LINE",
"901 1110 LINE",
"868 1335 LINE",
"557 1249 LINE",
"594 1556 LINE"
);
}
);
width = 952;
}
);
unicode = 002A;
},
{
glyphname = backslash;
lastChange = "2013-03-07 05:35:10 +0200";
layers = (
{
layerId = "72C2BD91-63AC-4E79-A4ED-224E2850FB61";
name = "Bold Condensed";
paths = (
{
closed = 1;
nodes = (
"14 1462 LINE",
"559 0 LINE",
"817 0 LINE",
"272 1462 LINE"
);
}
);
width = 829;
}
);
unicode = 005C;
},
{
glyphname = bullet;
lastChange = "2013-03-07 05:35:10 +0200";
layers = (
{
layerId = "72C2BD91-63AC-4E79-A4ED-224E2850FB61";
name = "Bold Condensed";
paths = (
{
closed = 1;
nodes = (
"196 1055 OFFCURVE",
"97.9999 945 OFFCURVE",
"97.9999 748 CURVE SMOOTH",
"97.9999 553 OFFCURVE",
"198 440 OFFCURVE",
"375 440 CURVE SMOOTH",
"548 440 OFFCURVE",
"651 555 OFFCURVE",
"651 748 CURVE SMOOTH",
"651 943 OFFCURVE",
"551 1055 OFFCURVE",
"375 1055 CURVE SMOOTH"
);
}
);
width = 750;
}
);
unicode = 2022;
},
{
glyphname = colon;
lastChange = "2013-03-07 05:35:11 +0200";
layers = (
{
layerId = "72C2BD91-63AC-4E79-A4ED-224E2850FB61";
name = "Bold Condensed";
paths = (
{
closed = 1;
nodes = (
"167 1137 OFFCURVE",
"111 1077 OFFCURVE",
"111 972.999 CURVE SMOOTH",
"111 870 OFFCURVE",
"168 809 OFFCURVE",
"276 809 CURVE SMOOTH",
"381 809 OFFCURVE",
"442 869 OFFCURVE",
"442 972.999 CURVE SMOOTH",
"442 1078 OFFCURVE",
"385 1137 OFFCURVE",
"276 1137 CURVE SMOOTH"
);
},
{
closed = 1;
nodes = (
"167 301 OFFCURVE",
"111 241 OFFCURVE",
"111 137 CURVE SMOOTH",
"111 34 OFFCURVE",
"168 -27 OFFCURVE",
"276 -27 CURVE SMOOTH",
"381 -27 OFFCURVE",
"442 33 OFFCURVE",
"442 137 CURVE SMOOTH",
"442 242 OFFCURVE",
"385 301 OFFCURVE",
"276 301 CURVE SMOOTH"
);
}
);
width = 553;
}
);
unicode = 003A;
},
{
glyphname = comma;
lastChange = "2013-03-07 05:35:10 +0200";
layers = (
{
layerId = "72C2BD91-63AC-4E79-A4ED-224E2850FB61";
name = "Bold Condensed";
paths = (
{
closed = 1;
nodes = (
"152 238 LINE",
"128 81 OFFCURVE",
"93.9999 -87 OFFCURVE",
"51 -264 CURVE",
"254 -264 LINE",
"337 -79 OFFCURVE",
"395 80 OFFCURVE",
"430 215 CURVE",
"416 238 LINE"
);
}
);
width = 553;
}
);
unicode = 002C;
},
{
glyphname = ellipsis;
lastChange = "2013-03-07 05:35:11 +0200";
layers = (
{
layerId = "72C2BD91-63AC-4E79-A4ED-224E2850FB61";
name = "Bold Condensed";
paths = (
{
closed = 1;
nodes = (
"1273 301 OFFCURVE",
"1217 241 OFFCURVE",
"1217 137 CURVE SMOOTH",
"1217 34 OFFCURVE",
"1274 -27 OFFCURVE",
"1382 -27 CURVE SMOOTH",
"1487 -27 OFFCURVE",
"1548 33 OFFCURVE",
"1548 137 CURVE SMOOTH",
"1548 242 OFFCURVE",
"1491 301 OFFCURVE",
"1382 301 CURVE SMOOTH"
);
},
{
closed = 1;
nodes = (
"167 301 OFFCURVE",
"111 241 OFFCURVE",
"111 137 CURVE SMOOTH",
"111 34 OFFCURVE",
"168 -27 OFFCURVE",
"276 -27 CURVE SMOOTH",
"381 -27 OFFCURVE",
"442 33 OFFCURVE",
"442 137 CURVE SMOOTH",
"442 242 OFFCURVE",
"385 301 OFFCURVE",
"276 301 CURVE SMOOTH"
);
},
{
closed = 1;
nodes = (
"720 301 OFFCURVE",
"664 241 OFFCURVE",
"664 137 CURVE SMOOTH",
"664 34 OFFCURVE",
"721 -27 OFFCURVE",
"829 -27 CURVE SMOOTH",
"934 -27 OFFCURVE",
"994.999 33 OFFCURVE",
"994.999 137 CURVE SMOOTH",
"994.999 242 OFFCURVE",
"938 301 OFFCURVE",
"829 301 CURVE SMOOTH"
);
}
);
width = 1659;
}
);
unicode = 2026;
},
{
glyphname = exclam;
lastChange = "2013-03-07 05:35:11 +0200";
layers = (
{
layerId = "72C2BD91-63AC-4E79-A4ED-224E2850FB61";
name = "Bold Condensed";
paths = (
{
closed = 1;
nodes = (
"119 1462 LINE",
"168 471 LINE",
"387 471 LINE",
"438 1462 LINE"
);
},
{
closed = 1;
nodes = (
"167 301 OFFCURVE",
"111 241 OFFCURVE",
"111 137 CURVE SMOOTH",
"111 34 OFFCURVE",
"168 -27 OFFCURVE",
"276 -27 CURVE SMOOTH",
"381 -27 OFFCURVE",
"442 33 OFFCURVE",
"442 137 CURVE SMOOTH",
"442 242 OFFCURVE",
"385 301 OFFCURVE",
"276 301 CURVE SMOOTH"
);
}
);
width = 555;
}
);
unicode = 0021;
},
{
glyphname = exclamdown;
lastChange = "2013-03-07 05:35:11 +0200";
layers = (
{
layerId = "72C2BD91-63AC-4E79-A4ED-224E2850FB61";
name = "Bold Condensed";
paths = (
{
closed = 1;
nodes = (
"164 621 LINE",
"113 -369 LINE",
"436 -369 LINE",
"385 621 LINE"
);
},
{
closed = 1;
nodes = (
"173 1118 OFFCURVE",
"111 1058 OFFCURVE",
"111 954 CURVE SMOOTH",
"111 849 OFFCURVE",
"170 791 OFFCURVE",
"274 791 CURVE SMOOTH",
"383 791 OFFCURVE",
"442 849 OFFCURVE",
"442 954 CURVE SMOOTH",
"442 1057 OFFCURVE",
"383 1118 OFFCURVE",
"274 1118 CURVE SMOOTH"
);
}
);
width = 555;
}
);
unicode = 00A1;
},
{
glyphname = numbersign;
lastChange = "2013-03-07 05:35:11 +0200";
layers = (
{
layerId = "72C2BD91-63AC-4E79-A4ED-224E2850FB61";
name = "Bold Condensed";
paths = (
{
closed = 1;
nodes = (
"756 1462 LINE",
"694 1049 LINE",
"512 1049 LINE",
"571 1462 LINE",
"383 1462 LINE",
"324 1049 LINE",
"93.9999 1049 LINE",
"93.9999 856 LINE",
"295 856 LINE",
"258 604 LINE",
"41 604 LINE",
"41 410 LINE",
"229 410 LINE",
"170 0 LINE",
"362 0 LINE",
"420 410 LINE",
"602 410 LINE",
"541 0 LINE",
"733 0 LINE",
"793 410 LINE",
"1022 410 LINE",
"1022 604 LINE",
"819 604 LINE",
"856 856 LINE",
"1075 856 LINE",
"1075 1049 LINE",
"885 1049 LINE",
"944 1462 LINE"
);
},
{
closed = 1;
nodes = (
"629 604 LINE",
"449 604 LINE",
"483 856 LINE",
"666 856 LINE"
);
}
);
width = 1114;
}
);
unicode = 0023;
},
{
glyphname = period;
lastChange = "2013-03-07 05:35:10 +0200";
layers = (
{
layerId = "72C2BD91-63AC-4E79-A4ED-224E2850FB61";
name = "Bold Condensed";
paths = (
{
closed = 1;
nodes = (
"167 301 OFFCURVE",
"111 241 OFFCURVE",
"111 137 CURVE SMOOTH",
"111 34 OFFCURVE",
"168 -27 OFFCURVE",
"276 -27 CURVE SMOOTH",
"381 -27 OFFCURVE",
"442 33 OFFCURVE",
"442 137 CURVE SMOOTH",
"442 242 OFFCURVE",
"385 301 OFFCURVE",
"276 301 CURVE SMOOTH"
);
}
);
width = 553;
}
);
unicode = 002E;
},
{
glyphname = periodcentered;
lastChange = "2013-03-07 05:35:10 +0200";
layers = (
{
layerId = "72C2BD91-63AC-4E79-A4ED-224E2850FB61";
name = "Bold Condensed";
paths = (
{
closed = 1;
nodes = (
"167 887 OFFCURVE",
"111 827 OFFCURVE",
"111 723 CURVE SMOOTH",
"111 620 OFFCURVE",
"168 559 OFFCURVE",
"276 559 CURVE SMOOTH",
"381 559 OFFCURVE",
"442 619 OFFCURVE",
"442 723 CURVE SMOOTH",
"442 828 OFFCURVE",
"385 887 OFFCURVE",
"276 887 CURVE SMOOTH"
);
}
);
width = 553;
}
);
unicode = 00B7;
},
{
glyphname = question;
lastChange = "2013-03-07 05:35:11 +0200";
layers = (
{
layerId = "72C2BD91-63AC-4E79-A4ED-224E2850FB61";
name = "Bold Condensed";
paths = (
{
closed = 1;
nodes = (
"246 1483 OFFCURVE",
"130 1447 OFFCURVE",
"25 1376 CURVE",
"119 1176 LINE",
"198 1227 OFFCURVE",
"274 1253 OFFCURVE",
"346 1253 CURVE SMOOTH",
"433 1253 OFFCURVE",
"471 1193 OFFCURVE",
"471 1106 CURVE SMOOTH",
"471 1059 OFFCURVE",
"464 1020 OFFCURVE",
"450 988.999 CURVE SMOOTH",
"437 958 OFFCURVE",
"405 916 OFFCURVE",
"356 862 CURVE SMOOTH",
"304 807 OFFCURVE",
"268 756 OFFCURVE",
"248 708 CURVE SMOOTH",
"229 661 OFFCURVE",
"219 605 OFFCURVE",
"219 541 CURVE SMOOTH",
"219 471 LINE",
"455 471 LINE",
"455 532 LINE SMOOTH",
"455 577 OFFCURVE",
"461 613 OFFCURVE",
"473 639 CURVE SMOOTH",
"486 666 OFFCURVE",
"514 703 OFFCURVE",
"559 752 CURVE SMOOTH",
"628 827 OFFCURVE",
"674 890 OFFCURVE",
"696 943 CURVE SMOOTH",
"718 995.999 OFFCURVE",
"729 1061 OFFCURVE",
"729 1137 CURVE SMOOTH",
"729 1246 OFFCURVE",
"697 1330 OFFCURVE",
"633 1391 CURVE SMOOTH",
"570 1452 OFFCURVE",
"483 1483 OFFCURVE",
"373 1483 CURVE SMOOTH"
);
},
{
closed = 1;
nodes = (
"230 301 OFFCURVE",
"172 242 OFFCURVE",
"172 137 CURVE SMOOTH",
"172 33 OFFCURVE",
"231 -27 OFFCURVE",
"338 -27 CURVE SMOOTH",
"445 -27 OFFCURVE",
"504 36 OFFCURVE",
"504 137 CURVE SMOOTH",
"504 240 OFFCURVE",
"447 301 OFFCURVE",
"338 301 CURVE SMOOTH"
);
}
);
width = 782;
}
);
unicode = 003F;
},
{
glyphname = questiondown;
lastChange = "2013-03-07 05:35:11 +0200";
layers = (
{
layerId = "72C2BD91-63AC-4E79-A4ED-224E2850FB61";
name = "Bold Condensed";
paths = (
{
closed = 1;
nodes = (
"328 621 LINE",
"328 559 LINE SMOOTH",
"328 515 OFFCURVE",
"321 479 OFFCURVE",
"308 451 CURVE SMOOTH",
"295 424 OFFCURVE",
"267 387 OFFCURVE",
"223 340 CURVE SMOOTH",
"168 280 OFFCURVE",
"131 233 OFFCURVE",
"111 198 CURVE SMOOTH",
"71 130 OFFCURVE",
"53 56 OFFCURVE",
"53 -45 CURVE SMOOTH",
"53 -155 OFFCURVE",
"85 -240 OFFCURVE",
"148 -300 CURVE SMOOTH",
"211 -361 OFFCURVE",
"299 -391 OFFCURVE",
"410 -391 CURVE SMOOTH",
"537 -391 OFFCURVE",
"653 -356 OFFCURVE",
"758 -285 CURVE",
"662 -84 LINE",
"584 -136 OFFCURVE",
"509 -162 OFFCURVE",
"436 -162 CURVE SMOOTH",
"352 -162 OFFCURVE",
"311 -100 OFFCURVE",
"311 -16 CURVE SMOOTH",
"311 31 OFFCURVE",
"318 69 OFFCURVE",
"331 99.9999 CURVE SMOOTH",
"345 131 OFFCURVE",
"377 173 OFFCURVE",
"426 227 CURVE SMOOTH",
"478 284 OFFCURVE",
"514 336 OFFCURVE",
"533 383 CURVE SMOOTH",
"553 431 OFFCURVE",
"563 486 OFFCURVE",
"563 549 CURVE SMOOTH",
"563 621 LINE"
);
},
{
closed = 1;
nodes = (
"341 1118 OFFCURVE",
"279 1058 OFFCURVE",
"279 954 CURVE SMOOTH",
"279 849 OFFCURVE",
"338 791 OFFCURVE",
"442 791 CURVE SMOOTH",
"551 791 OFFCURVE",
"610 849 OFFCURVE",
"610 954 CURVE SMOOTH",
"610 1057 OFFCURVE",
"551 1118 OFFCURVE",
"442 1118 CURVE SMOOTH"
);
}
);
width = 782;
}
);
unicode = 00BF;
},
{
glyphname = quotedbl;
lastChange = "2013-03-07 05:35:11 +0200";
layers = (
{
layerId = "72C2BD91-63AC-4E79-A4ED-224E2850FB61";
name = "Bold Condensed";
paths = (
{
closed = 1;
nodes = (
"530 1462 LINE",
"571 934 LINE",
"752 934 LINE",
"793 1462 LINE"
);
},
{
closed = 1;
nodes = (
"121 1462 LINE",
"162 934 LINE",
"342 934 LINE",
"383 1462 LINE"
);
}
);
width = 913;
}
);
unicode = 0022;
},
{
glyphname = quotesingle;
lastChange = "2013-03-07 05:35:10 +0200";
layers = (
{
layerId = "72C2BD91-63AC-4E79-A4ED-224E2850FB61";
name = "Bold Condensed";
paths = (
{
closed = 1;
nodes = (
"121 1462 LINE",
"162 934 LINE",
"342 934 LINE",
"383 1462 LINE"
);
}
);
width = 504;
}
);
unicode = 0027;
},
{
glyphname = semicolon;
lastChange = "2013-03-07 05:35:11 +0200";
layers = (
{
layerId = "72C2BD91-63AC-4E79-A4ED-224E2850FB61";
name = "Bold Condensed";
paths = (
{
closed = 1;
nodes = (
"152 238 LINE",
"128 81 OFFCURVE",
"93.9999 -87 OFFCURVE",
"51 -264 CURVE",
"254 -264 LINE",
"337 -79 OFFCURVE",
"395 80 OFFCURVE",
"430 215 CURVE",
"416 238 LINE"
);
},
{
closed = 1;
nodes = (
"167 1137 OFFCURVE",
"111 1077 OFFCURVE",
"111 972.999 CURVE SMOOTH",
"111 870 OFFCURVE",
"168 809 OFFCURVE",
"276 809 CURVE SMOOTH",
"381 809 OFFCURVE",
"442 869 OFFCURVE",
"442 972.999 CURVE SMOOTH",
"442 1078 OFFCURVE",
"385 1137 OFFCURVE",
"276 1137 CURVE SMOOTH"
);
}
);
width = 553;
}
);
unicode = 003B;
},
{
glyphname = slash;
lastChange = "2013-03-07 05:35:10 +0200";
layers = (
{
layerId = "72C2BD91-63AC-4E79-A4ED-224E2850FB61";
name = "Bold Condensed";
paths = (
{
closed = 1;
nodes = (
"561 1462 LINE",
"16 0 LINE",
"272 0 LINE",
"817 1462 LINE"
);
}
);
width = 829;
}
);
unicode = 002F;
},
{
glyphname = underscore;
lastChange = "2013-03-07 05:35:10 +0200";
layers = (
{
layerId = "72C2BD91-63AC-4E79-A4ED-224E2850FB61";
name = "Bold Condensed";
paths = (
{
closed = 1;
nodes = (
"-4 -184 LINE",
"-4 -324 LINE",
"700 -324 LINE",
"700 -184 LINE"
);
}
);
width = 696;
}
);
unicode = 005F;
},
{
glyphname = braceleft;
lastChange = "2013-03-07 05:35:10 +0200";
layers = (
{
layerId = "72C2BD91-63AC-4E79-A4ED-224E2850FB61";
name = "Bold Condensed";
paths = (
{
closed = 1;
nodes = (
"393 1457 OFFCURVE",
"286 1395 OFFCURVE",
"283 1180 CURVE SMOOTH",
"283 860 LINE",
"283 852 LINE SMOOTH",
"283 729 OFFCURVE",
"190 680 OFFCURVE",
"25 680 CURVE",
"25 457 LINE",
"190 457 OFFCURVE",
"283 408 OFFCURVE",
"283 276 CURVE SMOOTH",
"283 -41 LINE SMOOTH",
"288 -256 OFFCURVE",
"390 -320 OFFCURVE",
"705 -324 CURVE",
"705 -113 LINE",
"637 -111 OFFCURVE",
"591 -98 OFFCURVE",
"566 -75 CURVE SMOOTH",
"542 -52 OFFCURVE",
"530 -16 OFFCURVE",
"530 33 CURVE SMOOTH",
"530 336 LINE",
"530 348 LINE SMOOTH",
"530 469 OFFCURVE",
"453 540 OFFCURVE",
"299 563 CURVE",
"299 575 LINE",
"451 598 OFFCURVE",
"528 674 OFFCURVE",
"530 803 CURVE SMOOTH",
"530 1106 LINE SMOOTH",
"530 1155 OFFCURVE",
"542 1190 OFFCURVE",
"567 1213 CURVE SMOOTH",
"592 1236 OFFCURVE",
"638 1249 OFFCURVE",
"705 1251 CURVE",
"705 1462 LINE"
);
}
);
width = 737;
}
);
unicode = 007B;
},
{
glyphname = braceright;
lastChange = "2013-03-07 05:35:10 +0200";
layers = (
{
layerId = "72C2BD91-63AC-4E79-A4ED-224E2850FB61";
name = "Bold Condensed";
paths = (
{
closed = 1;
nodes = (
"33 1251 LINE",
"101 1249 OFFCURVE",
"147 1237 OFFCURVE",
"172 1214 CURVE SMOOTH",
"197 1191 OFFCURVE",
"209 1155 OFFCURVE",
"209 1106 CURVE SMOOTH",
"209 803 LINE SMOOTH",
"212 674 OFFCURVE",
"289 598 OFFCURVE",
"442 575 CURVE",
"442 563 LINE",
"290 540 OFFCURVE",
"209 466 OFFCURVE",
"209 345 CURVE SMOOTH",
"209 336 LINE",
"209 33 LINE SMOOTH",
"209 -16 OFFCURVE",
"197 -52 OFFCURVE",
"172 -75 CURVE SMOOTH",
"147 -98 OFFCURVE",
"101 -111 OFFCURVE",
"33 -113 CURVE",
"33 -324 LINE",
"188 -324 OFFCURVE",
"298 -303 OFFCURVE",
"361 -260 CURVE SMOOTH",
"425 -218 OFFCURVE",
"457 -145 OFFCURVE",
"457 -41 CURVE SMOOTH",
"457 276 LINE SMOOTH",
"457 408 OFFCURVE",
"546 457 OFFCURVE",
"713 457 CURVE",
"713 680 LINE",
"546 680 OFFCURVE",
"457 729 OFFCURVE",
"457 852 CURVE SMOOTH",
"457 860 LINE",
"457 1180 LINE SMOOTH",
"457 1283 OFFCURVE",
"425 1356 OFFCURVE",
"362 1398 CURVE SMOOTH",
"299 1441 OFFCURVE",
"189 1462 OFFCURVE",
"33 1462 CURVE"
);
}
);
width = 737;
}
);
unicode = 007D;
},
{
glyphname = bracketleft;
lastChange = "2013-03-07 05:35:10 +0200";
layers = (
{
layerId = "72C2BD91-63AC-4E79-A4ED-224E2850FB61";
name = "Bold Condensed";
paths = (
{
closed = 1;
nodes = (
"133 1462 LINE",
"133 -324 LINE",
"602 -324 LINE",
"602 -125 LINE",
"379 -125 LINE",
"379 1264 LINE",
"602 1264 LINE",
"602 1462 LINE"
);
}
);
width = 649;
}
);
unicode = 005B;
},
{
glyphname = bracketright;
lastChange = "2013-03-07 05:35:10 +0200";
layers = (
{
layerId = "72C2BD91-63AC-4E79-A4ED-224E2850FB61";
name = "Bold Condensed";
paths = (
{
closed = 1;
nodes = (
"47 1462 LINE",
"47 1264 LINE",
"270 1264 LINE",
"270 -125 LINE",
"47 -125 LINE",
"47 -324 LINE",
"516 -324 LINE",
"516 1462 LINE"
);
}
);
width = 649;
}
);
unicode = 005D;
},
{
glyphname = parenleft;
lastChange = "2013-03-07 05:35:10 +0200";
layers = (
{
layerId = "72C2BD91-63AC-4E79-A4ED-224E2850FB61";
name = "Bold Condensed";
paths = (
{
closed = 1;
nodes = (
"375 1462 LINE",
"180 1230 OFFCURVE",
"74 914 OFFCURVE",
"74 561 CURVE SMOOTH",
"74 213 OFFCURVE",
"179 -97 OFFCURVE",
"375 -324 CURVE",
"608 -324 LINE",
"520 -204 OFFCURVE",
"451 -67 OFFCURVE",
"401 86 CURVE SMOOTH",
"351 239 OFFCURVE",
"326 398 OFFCURVE",
"326 563 CURVE SMOOTH",
"326 888 OFFCURVE",
"423 1205 OFFCURVE",
"610 1462 CURVE"
);
}
);
width = 666;
}
);
unicode = 0028;
},
{
glyphname = parenright;
lastChange = "2013-03-07 05:35:10 +0200";
layers = (
{
layerId = "72C2BD91-63AC-4E79-A4ED-224E2850FB61";
name = "Bold Condensed";
paths = (
{
closed = 1;
nodes = (
"55 1462 LINE",
"243 1205 OFFCURVE",
"340 888 OFFCURVE",
"340 563 CURVE SMOOTH",
"340 399 OFFCURVE",
"315 241 OFFCURVE",
"266 88 CURVE SMOOTH",
"217 -64 OFFCURVE",
"147 -201 OFFCURVE",
"57 -324 CURVE",
"291 -324 LINE",
"486 -100 OFFCURVE",
"592 210 OFFCURVE",
"592 561 CURVE SMOOTH",
"592 736 OFFCURVE",
"566 901 OFFCURVE",
"515 1055 CURVE SMOOTH",
"464 1210 OFFCURVE",
"389 1345 OFFCURVE",
"291 1462 CURVE"
);
}
);
width = 666;
}
);
unicode = 0029;
},
{
glyphname = emdash;
lastChange = "2013-03-07 05:35:10 +0200";
layers = (
{
layerId = "72C2BD91-63AC-4E79-A4ED-224E2850FB61";
name = "Bold Condensed";
paths = (
{
closed = 1;
nodes = (
"70 659 LINE",
"70 442 LINE",
"1507 442 LINE",
"1507 659 LINE"
);
}
);
width = 1579;
}
);
unicode = 2014;
},
{
glyphname = endash;
lastChange = "2013-03-07 05:35:10 +0200";
layers = (
{
layerId = "72C2BD91-63AC-4E79-A4ED-224E2850FB61";
name = "Bold Condensed";
paths = (
{
closed = 1;
nodes = (
"70 659 LINE",
"70 442 LINE",
"903 442 LINE",
"903 659 LINE"
);
}
);
width = 972;
}
);
unicode = 2013;
},
{
glyphname = hyphen;
lastChange = "2013-03-07 05:35:10 +0200";
layers = (
{
layerId = "72C2BD91-63AC-4E79-A4ED-224E2850FB61";
name = "Bold Condensed";
paths = (
{
closed = 1;
nodes = (
"72 666 LINE",
"72 432 LINE",
"575 432 LINE",
"575 666 LINE"
);
}
);
width = 647;
}
);
unicode = 002D;
},
{
glyphname = uni00AD;
lastChange = "2013-03-07 05:35:10 +0200";
layers = (
{
layerId = "72C2BD91-63AC-4E79-A4ED-224E2850FB61";
name = "Bold Condensed";
paths = (
{
closed = 1;
nodes = (
"72 666 LINE",
"72 432 LINE",
"575 432 LINE",
"575 666 LINE"
);
}
);
width = 647;
}
);
unicode = 00AD;
},
{
glyphname = guillemotleft;
lastChange = "2013-03-07 05:35:11 +0200";
layers = (
{
layerId = "72C2BD91-63AC-4E79-A4ED-224E2850FB61";
name = "Bold Condensed";
paths = (
{
closed = 1;
nodes = (
"561 569 LINE",
"561 543 LINE",
"868 97.9999 LINE",
"1067 209 LINE",
"848 557 LINE",
"1067 905 LINE",
"868 1016 LINE"
);
},
{
closed = 1;
nodes = (
"74 569 LINE",
"74 543 LINE",
"381 97.9999 LINE",
"580 209 LINE",
"360 557 LINE",
"580 905 LINE",
"381 1016 LINE"
);
}
);
width = 1141;
}
);
unicode = 00AB;
},
{
glyphname = guillemotright;
lastChange = "2013-03-07 05:35:11 +0200";
layers = (
{
layerId = "72C2BD91-63AC-4E79-A4ED-224E2850FB61";
name = "Bold Condensed";
paths = (
{
closed = 1;
nodes = (
"561 905 LINE",
"780 557 LINE",
"561 209 LINE",
"760 97.9999 LINE",
"1067 543 LINE",
"1067 569 LINE",
"760 1016 LINE"
);
},
{
closed = 1;
nodes = (
"74 905 LINE",
"293 557 LINE",
"74 209 LINE",
"272 97.9999 LINE",
"580 543 LINE",
"580 569 LINE",
"272 1016 LINE"
);
}
);
width = 1141;
}
);
unicode = 00BB;
},
{
glyphname = guilsinglleft;
lastChange = "2013-03-07 05:35:10 +0200";
layers = (
{
layerId = "72C2BD91-63AC-4E79-A4ED-224E2850FB61";
name = "Bold Condensed";
paths = (
{
closed = 1;
nodes = (
"74 569 LINE",
"74 543 LINE",
"381 97.9999 LINE",
"580 209 LINE",
"360 557 LINE",
"580 905 LINE",
"381 1016 LINE"
);
}
);
width = 653;
}
);
unicode = 2039;
},
{
glyphname = guilsinglright;
lastChange = "2013-03-07 05:35:10 +0200";
layers = (
{
layerId = "72C2BD91-63AC-4E79-A4ED-224E2850FB61";
name = "Bold Condensed";
paths = (
{
closed = 1;
nodes = (
"74 905 LINE",
"293 557 LINE",
"74 209 LINE",
"272 97.9999 LINE",
"580 543 LINE",
"580 569 LINE",
"272 1016 LINE"
);
}
);
width = 653;
}
);
unicode = 203A;
},
{
glyphname = quotedblbase;
lastChange = "2013-03-07 05:35:11 +0200";
layers = (
{
layerId = "72C2BD91-63AC-4E79-A4ED-224E2850FB61";
name = "Bold Condensed";
paths = (
{
closed = 1;
nodes = (
"586 238 LINE",
"562 81 OFFCURVE",
"528 -87 OFFCURVE",
"485 -264 CURVE",
"688 -264 LINE",
"771 -79 OFFCURVE",
"829 80 OFFCURVE",
"864 215 CURVE",
"850 238 LINE"
);
},
{
closed = 1;
nodes = (
"152 238 LINE",
"128 81 OFFCURVE",
"93.9999 -87 OFFCURVE",
"51 -264 CURVE",
"254 -264 LINE",
"337 -79 OFFCURVE",
"395 80 OFFCURVE",
"430 215 CURVE",
"416 238 LINE"
);
}
);
width = 986;
}
);
unicode = 201E;
},
{
glyphname = quotedblleft;
lastChange = "2013-03-07 05:35:11 +0200";
layers = (
{
layerId = "72C2BD91-63AC-4E79-A4ED-224E2850FB61";
name = "Bold Condensed";
paths = (
{
closed = 1;
nodes = (
"631 1462 LINE",
"604 1403 OFFCURVE",
"573 1328 OFFCURVE",
"538 1237 CURVE SMOOTH",
"503 1146 OFFCURVE",
"476 1062 OFFCURVE",
"455 982.999 CURVE",
"469 961 LINE",
"733 961 LINE",
"756 1117 OFFCURVE",
"790 1284 OFFCURVE",
"834 1462 CURVE"
);
},
{
closed = 1;
nodes = (
"197 1462 LINE",
"160 1382 OFFCURVE",
"125 1298 OFFCURVE",
"92.9999 1211 CURVE SMOOTH",
"61 1124 OFFCURVE",
"37 1048 OFFCURVE",
"20 982.999 CURVE",
"35 961 LINE",
"299 961 LINE",
"305 1009 OFFCURVE",
"318 1084 OFFCURVE",
"338 1185 CURVE SMOOTH",
"358 1286 OFFCURVE",
"378 1379 OFFCURVE",
"399 1462 CURVE"
);
}
);
width = 854;
}
);
unicode = 201C;
},
{
glyphname = quotedblright;
lastChange = "2013-03-07 05:35:11 +0200";
layers = (
{
layerId = "72C2BD91-63AC-4E79-A4ED-224E2850FB61";
name = "Bold Condensed";
paths = (
{
closed = 1;
nodes = (
"555 1462 LINE",
"530 1292 OFFCURVE",
"496 1125 OFFCURVE",
"455 961 CURVE",
"657 961 LINE",
"742 1152 OFFCURVE",
"801 1312 OFFCURVE",
"834 1440 CURVE",
"819 1462 LINE"
);
},
{
closed = 1;
nodes = (
"121 1462 LINE",
"95.9999 1299 OFFCURVE",
"63 1132 OFFCURVE",
"20 961 CURVE",
"223 961 LINE",
"307 1149 OFFCURVE",
"366 1309 OFFCURVE",
"399 1440 CURVE",
"385 1462 LINE"
);
}
);
width = 854;
}
);
unicode = 201D;
},
{
glyphname = quoteleft;
lastChange = "2013-03-07 05:35:10 +0200";
layers = (
{
layerId = "72C2BD91-63AC-4E79-A4ED-224E2850FB61";
name = "Bold Condensed";
paths = (
{
closed = 1;
nodes = (
"197 1462 LINE",
"160 1382 OFFCURVE",
"125 1298 OFFCURVE",
"92.9999 1211 CURVE SMOOTH",
"61 1124 OFFCURVE",
"37 1048 OFFCURVE",
"20 982.999 CURVE",
"35 961 LINE",
"299 961 LINE",
"305 1009 OFFCURVE",
"318 1084 OFFCURVE",
"338 1185 CURVE SMOOTH",
"358 1286 OFFCURVE",
"378 1379 OFFCURVE",
"399 1462 CURVE"
);
}
);
width = 420;
}
);
unicode = 2018;
},
{
glyphname = quoteright;
lastChange = "2013-03-07 05:35:10 +0200";
layers = (
{
layerId = "72C2BD91-63AC-4E79-A4ED-224E2850FB61";
name = "Bold Condensed";
paths = (
{
closed = 1;
nodes = (
"121 1462 LINE",
"95.9999 1299 OFFCURVE",
"63 1132 OFFCURVE",
"20 961 CURVE",
"223 961 LINE",
"307 1149 OFFCURVE",
"366 1309 OFFCURVE",
"399 1440 CURVE",
"385 1462 LINE"
);
}
);
width = 420;
}
);
unicode = 2019;
},
{
glyphname = quotesinglbase;
lastChange = "2013-03-07 05:35:10 +0200";
layers = (
{
layerId = "72C2BD91-63AC-4E79-A4ED-224E2850FB61";
name = "Bold Condensed";
paths = (
{
closed = 1;
nodes = (
"152 238 LINE",
"128 81 OFFCURVE",
"93.9999 -87 OFFCURVE",
"51 -264 CURVE",
"254 -264 LINE",
"337 -79 OFFCURVE",
"395 80 OFFCURVE",
"430 215 CURVE",
"416 238 LINE"
);
}
);
width = 553;
}
);
unicode = 201A;
},
{
glyphname = "geresh-hb";
lastChange = "2013-03-07 05:35:11 +0200";
layers = (
{
layerId = "72C2BD91-63AC-4E79-A4ED-224E2850FB61";
name = "Bold Condensed";
paths = (
{
closed = 1;
nodes = (
"120 1290 LINE",
"98.9999 1153 OFFCURVE",
"66 984.999 OFFCURVE",
"20 789 CURVE",
"224 789 LINE",
"308 975.999 OFFCURVE",
"367 1137 OFFCURVE",
"400 1268 CURVE",
"386 1290 LINE"
);
}
);
width = 420;
}
);
unicode = 05F3;
},
{
glyphname = "gershayim-hb";
lastChange = "2013-03-07 05:35:11 +0200";
layers = (
{
layerId = "72C2BD91-63AC-4E79-A4ED-224E2850FB61";
name = "Bold Condensed";
paths = (
{
closed = 1;
nodes = (
"555 1290 LINE",
"534 1153 OFFCURVE",
"501 984.999 OFFCURVE",
"455 789 CURVE",
"659 789 LINE",
"743 975.999 OFFCURVE",
"802 1137 OFFCURVE",
"835 1268 CURVE",
"821 1290 LINE"
);
},
{
closed = 1;
nodes = (
"120 1290 LINE",
"98.9999 1153 OFFCURVE",
"66 984.999 OFFCURVE",
"20 789 CURVE",
"224 789 LINE",
"308 975.999 OFFCURVE",
"367 1137 OFFCURVE",
"400 1268 CURVE",
"386 1290 LINE"
);
}
);
width = 855;
}
);
unicode = 05F4;
},
{
glyphname = "maqaf-hb";
lastChange = "2013-03-07 05:35:11 +0200";
layers = (
{
layerId = "72C2BD91-63AC-4E79-A4ED-224E2850FB61";
name = "Bold Condensed";
paths = (
{
closed = 1;
nodes = (
"72 1290 LINE",
"72 1056 LINE",
"575 1056 LINE",
"575 1290 LINE"
);
}
);
width = 647;
}
);
unicode = 05BE;
},
{
glyphname = .notdef;
lastChange = "2013-03-07 05:35:11 +0200";
layers = (
{
layerId = "72C2BD91-63AC-4E79-A4ED-224E2850FB61";
name = "Bold Condensed";
paths = (
{
closed = 1;
nodes = (
"174 1462 LINE",
"174 0 LINE",
"1016 0 LINE",
"1016 1462 LINE"
);
},
{
closed = 1;
nodes = (
"911 104 LINE",
"279 104 LINE",
"279 1358 LINE",
"911 1358 LINE"
);
}
);
width = 1192;
}
);
},
{
glyphname = florin;
lastChange = "2013-03-07 05:35:10 +0200";
layers = (
{
layerId = "72C2BD91-63AC-4E79-A4ED-224E2850FB61";
name = "Bold Condensed";
paths = (
{
closed = 1;
nodes = (
"403 1483 OFFCURVE",
"299 1367 OFFCURVE",
"299 1116 CURVE SMOOTH",
"299 1030 LINE",
"133 952 LINE",
"133 817 LINE",
"299 817 LINE",
"299 -86 LINE SMOOTH",
"299 -209 OFFCURVE",
"258 -264 OFFCURVE",
"166 -264 CURVE SMOOTH",
"127 -264 OFFCURVE",
"88 -258 OFFCURVE",
"49 -246 CURVE",
"49 -469 LINE",
"104 -484 OFFCURVE",
"161 -492 OFFCURVE",
"221 -492 CURVE SMOOTH",
"453 -492 OFFCURVE",
"578 -364 OFFCURVE",
"578 -121 CURVE SMOOTH",
"580 817 LINE",
"799 817 LINE",
"799 1030 LINE",
"580 1030 LINE",
"580 1106 LINE SMOOTH",
"580 1205 OFFCURVE",
"610 1260 OFFCURVE",
"690 1260 CURVE SMOOTH",
"731 1260 OFFCURVE",
"776 1250 OFFCURVE",
"827 1231 CURVE",
"895 1438 LINE",
"824 1468 OFFCURVE",
"743 1483 OFFCURVE",
"651 1483 CURVE SMOOTH"
);
}
);
width = 948;
}
);
unicode = 0192;
},
{
glyphname = Euro;
lastChange = "2013-03-07 05:35:10 +0200";
layers = (
{
layerId = "72C2BD91-63AC-4E79-A4ED-224E2850FB61";
name = "Bold Condensed";
paths = (
{
closed = 1;
nodes = (
"392 1485 OFFCURVE",
"221 1297 OFFCURVE",
"170 946 CURVE",
"41 946 LINE",
"41 778 LINE",
"158 778 LINE",
"158 655 LINE",
"41 655 LINE",
"41 487 LINE",
"172 487 LINE",
"221 156 OFFCURVE",
"386 -20 OFFCURVE",
"645 -20 CURVE SMOOTH",
"747 -20 OFFCURVE",
"834 4 OFFCURVE",
"907 51 CURVE",
"907 293 LINE",
"824 244 OFFCURVE",
"746 219 OFFCURVE",
"674 219 CURVE SMOOTH",
"553 219 OFFCURVE",
"476 308 OFFCURVE",
"442 487 CURVE",
"690 487 LINE",
"690 655 LINE",
"426 655 LINE",
"426 778 LINE",
"735 778 LINE",
"735 946 LINE",
"440 946 LINE",
"471 1141 OFFCURVE",
"546 1247 OFFCURVE",
"659 1247 CURVE SMOOTH",
"714 1247 OFFCURVE",
"774 1231 OFFCURVE",
"838 1200 CURVE",
"928 1415 LINE",
"841 1464 OFFCURVE",
"763 1485 OFFCURVE",
"647 1485 CURVE SMOOTH"
);
}
);
width = 948;
}
);
unicode = 20AC;
},
{
glyphname = cent;
lastChange = "2013-03-07 05:35:10 +0200";
layers = (
{
layerId = "72C2BD91-63AC-4E79-A4ED-224E2850FB61";
name = "Bold Condensed";
paths = (
{
closed = 1;
nodes = (
"446 1479 LINE",
"446 1311 LINE",
"243 1263 OFFCURVE",
"147 1073 OFFCURVE",
"147 737 CURVE SMOOTH",
"147 418 OFFCURVE",
"247 233 OFFCURVE",
"446 180 CURVE",
"446 -20 LINE",
"612 -20 LINE",
"612 172 LINE",
"677 179 OFFCURVE",
"735 200 OFFCURVE",
"786 233 CURVE",
"786 467 LINE",
"714 419 OFFCURVE",
"645 395 OFFCURVE",
"578 395 CURVE SMOOTH",
"466 395 OFFCURVE",
"420 511 OFFCURVE",
"420 739 CURVE SMOOTH",
"420 978.999 OFFCURVE",
"467 1094 OFFCURVE",
"580 1094 CURVE SMOOTH",
"621 1094 OFFCURVE",
"670 1077 OFFCURVE",
"727 1044 CURVE",
"805 1253 LINE",
"747 1286 OFFCURVE",
"683 1308 OFFCURVE",
"612 1319 CURVE",
"612 1479 LINE"
);
}
);
width = 948;
}
);
unicode = 00A2;
},
{
glyphname = currency;
lastChange = "2013-03-07 05:35:11 +0200";
layers = (
{
layerId = "72C2BD91-63AC-4E79-A4ED-224E2850FB61";
name = "Bold Condensed";
paths = (
{
closed = 1;
nodes = (
"754 1059 LINE",
"693 1097 OFFCURVE",
"626 1116 OFFCURVE",
"555 1116 CURVE SMOOTH",
"483 1116 OFFCURVE",
"416 1098 OFFCURVE",
"354 1061 CURVE",
"227 1188 LINE",
"90 1051 LINE",
"219 924 LINE",
"181 858 OFFCURVE",
"162 791 OFFCURVE",
"162 723 CURVE SMOOTH",
"162 650 OFFCURVE",
"181 583 OFFCURVE",
"219 522 CURVE",
"92 397 LINE",
"227 262 LINE",
"352 385 LINE",
"407 350 OFFCURVE",
"475 332 OFFCURVE",
"555 332 CURVE SMOOTH",
"626 332 OFFCURVE",
"692 350 OFFCURVE",
"754 385 CURVE",
"883 260 LINE",
"1018 395 LINE",
"893 520 LINE",
"930 579 OFFCURVE",
"948 647 OFFCURVE",
"948 723 CURVE SMOOTH",
"948 796 OFFCURVE",
"930 864 OFFCURVE",
"893 926 CURVE",
"1022 1055 LINE",
"883 1188 LINE"
);
},
{
closed = 1;
nodes = (
"612 924 OFFCURVE",
"660 904 OFFCURVE",
"699 865 CURVE SMOOTH",
"738 826 OFFCURVE",
"758 779 OFFCURVE",
"758 723 CURVE SMOOTH",
"758 668 OFFCURVE",
"738 621 OFFCURVE",
"699 582 CURVE SMOOTH",
"660 543 OFFCURVE",
"612 524 OFFCURVE",
"555 524 CURVE SMOOTH",
"500 524 OFFCURVE",
"453 543 OFFCURVE",
"414 582 CURVE SMOOTH",
"375 621 OFFCURVE",
"356 668 OFFCURVE",
"356 723 CURVE SMOOTH",
"356 780 OFFCURVE",
"375 827 OFFCURVE",
"414 866 CURVE SMOOTH",
"453 905 OFFCURVE",
"500 924 OFFCURVE",
"555 924 CURVE SMOOTH"
);
}
);
width = 1112;
}
);
unicode = 00A4;
},
{
glyphname = dollar;
lastChange = "2013-03-07 05:35:11 +0200";
layers = (
{
layerId = "72C2BD91-63AC-4E79-A4ED-224E2850FB61";
name = "Bold Condensed";
paths = (
{
closed = 1;
nodes = (
"414 1556 LINE",
"414 1395 LINE",
"198 1371 OFFCURVE",
"74 1244 OFFCURVE",
"74 1044 CURVE SMOOTH",
"74 957 OFFCURVE",
"95.9999 884 OFFCURVE",
"141 826 CURVE SMOOTH",
"186 769 OFFCURVE",
"266 713 OFFCURVE",
"379 659 CURVE SMOOTH",
"414 643 LINE",
"414 305 LINE",
"305 310 OFFCURVE",
"181 353 OFFCURVE",
"74 416 CURVE",
"74 170 LINE",
"174 118 OFFCURVE",
"287 90 OFFCURVE",
"414 86 CURVE",
"414 -119 LINE",
"530 -119 LINE",
"530 90 LINE",
"750 113 OFFCURVE",
"874 245 OFFCURVE",
"874 457 CURVE SMOOTH",
"874 517 OFFCURVE",
"864 569 OFFCURVE",
"844 613 CURVE SMOOTH",
"824 658 OFFCURVE",
"793 697 OFFCURVE",
"751 731 CURVE SMOOTH",
"709 766 OFFCURVE",
"646 801 OFFCURVE",
"561 838 CURVE",
"561 839 OFFCURVE",
"551 844 OFFCURVE",
"530 852 CURVE",
"530 1169 LINE",
"597 1163 OFFCURVE",
"673 1139 OFFCURVE",
"758 1098 CURVE",
"838 1311 LINE",
"736 1362 OFFCURVE",
"633 1390 OFFCURVE",
"530 1397 CURVE",
"530 1556 LINE"
);
},
{
closed = 1;
nodes = (
"577 567 OFFCURVE",
"606 545 OFFCURVE",
"619 525 CURVE SMOOTH",
"632 506 OFFCURVE",
"639 481 OFFCURVE",
"639 451 CURVE SMOOTH",
"639 370 OFFCURVE",
"603 324 OFFCURVE",
"530 311 CURVE",
"530 590 LINE"
);
},
{
closed = 1;
nodes = (
"414 907 LINE",
"338 938 OFFCURVE",
"309 975.999 OFFCURVE",
"309 1044 CURVE SMOOTH",
"309 1117 OFFCURVE",
"344 1158 OFFCURVE",
"414 1169 CURVE"
);
}
);
width = 948;
}
);
unicode = 0024;
},
{
glyphname = sterling;
lastChange = "2013-03-07 05:35:10 +0200";
layers = (
{
layerId = "72C2BD91-63AC-4E79-A4ED-224E2850FB61";
name = "Bold Condensed";
paths = (
{
closed = 1;
nodes = (
"361 1483 OFFCURVE",
"233 1338 OFFCURVE",
"233 1073 CURVE SMOOTH",
"233 854 LINE",
"78 854 LINE",
"78 651 LINE",
"233 651 LINE",
"233 494 LINE SMOOTH",
"233 429 OFFCURVE",
"222 377 OFFCURVE",
"200 337 CURVE SMOOTH",
"179 298 OFFCURVE",
"137 262 OFFCURVE",
"76 229 CURVE",
"76 0 LINE",
"903 0 LINE",
"903 242 LINE",
"369 242 LINE",
"462 309 OFFCURVE",
"500 397 OFFCURVE",
"500 518 CURVE SMOOTH",
"500 651 LINE",
"741 651 LINE",
"741 854 LINE",
"500 854 LINE",
"500 1067 LINE SMOOTH",
"500 1191 OFFCURVE",
"538 1253 OFFCURVE",
"614 1253 CURVE SMOOTH",
"675 1253 OFFCURVE",
"736 1235 OFFCURVE",
"797 1200 CURVE",
"881 1411 LINE",
"797 1459 OFFCURVE",
"703 1483 OFFCURVE",
"598 1483 CURVE SMOOTH"
);
}
);
width = 948;
}
);
unicode = 00A3;
},
{
glyphname = uni20AA;
lastChange = "2013-03-07 05:35:11 +0200";
layers = (
{
layerId = "72C2BD91-63AC-4E79-A4ED-224E2850FB61";
name = "Bold Condensed";
paths = (
{
closed = 1;
nodes = (
"133 1290 LINE",
"133 0 LINE",
"398 0 LINE",
"398 1057 LINE",
"590 1057 LINE SMOOTH",
"829 1057 OFFCURVE",
"864 974.999 OFFCURVE",
"864 727 CURVE SMOOTH",
"864 463 LINE",
"1117 463 LINE",
"1117 727 LINE SMOOTH",
"1117 1019 OFFCURVE",
"1098 1290 OFFCURVE",
"590 1290 CURVE SMOOTH"
);
},
{
closed = 1;
nodes = (
"1233 1290 LINE",
"1233 776 LINE SMOOTH",
"1233 445 OFFCURVE",
"1140 233 OFFCURVE",
"824 233 CURVE SMOOTH",
"768 233 LINE",
"768 827 LINE",
"503 827 LINE",
"503 0 LINE",
"825 0 LINE SMOOTH",
"1411 0 OFFCURVE",
"1486 454 OFFCURVE",
"1486 776 CURVE SMOOTH",
"1486 1290 LINE"
);
}
);
width = 1588;
}
);
unicode = 20AA;
},
